{"glyphs":{"0":{"ha":1042,"x_min":0,"x_max":0,"o":"m 521 964 b 99 472 267 966 99 746 b 521 -19 99 200 267 -19 b 942 472 776 -19 942 200 b 521 964 942 744 776 964 z m 520 838 b 805 472 687 838 805 687 b 521 106 805 257 687 106 b 236 472 356 106 236 257 b 520 838 236 689 356 840 z "},"1":{"ha":706,"x_min":0,"x_max":0,"o":"m 441 111 l 441 944 l 366 944 l 59 798 l 116 698 l 309 790 l 309 111 l 79 111 l 79 0 l 647 0 l 647 111 z "},"2":{"ha":842,"x_min":0,"x_max":0,"o":"m 209 111 l 209 124 b 433 350 211 233 292 279 b 742 680 629 447 742 502 b 380 964 742 902 566 964 b 99 911 280 964 181 946 l 149 804 b 380 838 219 827 300 838 b 605 680 528 838 605 803 b 372 462 605 582 564 557 b 72 127 218 385 76 309 l 72 0 l 742 0 l 742 111 z "},"3":{"ha":875,"x_min":0,"x_max":0,"o":"m 615 502 b 736 698 691 543 736 611 b 393 964 738 858 596 964 b 111 911 293 964 193 946 l 161 804 b 393 838 232 827 312 838 b 598 698 525 838 599 781 b 395 559 598 616 525 559 l 271 559 l 271 462 l 271 442 l 395 442 b 637 276 547 442 637 374 b 393 106 637 175 545 106 b 122 148 299 106 205 120 l 72 41 b 393 -19 166 1 279 -19 b 774 275 615 -19 774 96 b 615 502 775 379 714 460 z "},"4":{"ha":883,"x_min":0,"x_max":0,"o":"m 681 344 l 681 944 l 575 944 l 44 318 l 44 233 l 549 233 l 549 0 l 681 0 l 681 233 l 819 233 l 819 344 z m 223 344 l 549 734 l 549 344 z "},"5":{"ha":879,"x_min":0,"x_max":0,"o":"m 705 833 l 705 944 l 135 944 l 135 508 l 211 431 b 443 476 282 461 363 476 b 649 293 575 476 649 400 b 405 106 649 182 557 106 b 136 151 311 106 218 121 l 86 45 b 405 -19 179 2 292 -19 b 786 299 627 -19 786 106 b 443 585 788 471 646 585 b 267 563 376 585 321 579 l 267 834 z "},"6":{"ha":918,"x_min":0,"x_max":0,"o":"m 519 964 b 100 452 267 964 99 757 b 478 -19 99 206 209 -19 b 832 298 678 -19 832 106 b 510 586 832 477 700 586 b 234 514 413 586 315 562 b 524 853 247 711 359 853 b 720 809 602 853 667 835 l 761 895 b 519 964 700 934 620 964 z m 510 475 b 700 300 630 475 700 417 b 483 92 700 166 608 92 b 234 403 325 92 248 210 b 510 475 316 451 413 475 z "},"7":{"ha":735,"x_min":0,"x_max":0,"o":"m 698 944 l 38 944 l 38 834 l 543 834 l 74 0 l 229 0 l 698 857 z "},"8":{"ha":963,"x_min":0,"x_max":0,"o":"m 700 502 b 825 698 782 541 825 609 b 481 964 826 858 684 964 b 138 698 280 964 138 858 b 263 501 138 610 179 541 b 100 274 155 460 100 382 b 481 -20 100 96 259 -20 b 863 274 704 -20 863 96 b 700 502 864 382 809 461 z m 481 838 b 687 698 613 838 687 781 b 481 559 687 616 615 559 b 276 698 349 559 276 616 b 481 838 276 780 351 838 z m 481 106 b 238 274 330 106 238 175 b 481 441 238 372 328 441 b 725 275 636 441 725 374 b 481 106 725 175 633 106 z "},"9":{"ha":918,"x_min":0,"x_max":0,"o":"m 441 964 b 86 647 240 964 86 839 b 409 358 86 468 219 358 b 685 430 506 358 603 383 b 394 92 671 233 559 92 b 198 135 317 92 252 109 l 158 49 b 399 -19 219 10 299 -19 b 819 492 652 -19 819 188 b 441 964 819 739 710 964 z m 436 853 b 684 541 593 853 671 734 b 409 469 603 494 505 469 b 219 645 288 469 219 527 b 436 853 219 778 310 853 z "},"A":{"ha":1003,"x_min":0,"x_max":0,"o":"m 959 0 l 579 972 l 423 972 l 43 0 l 183 0 l 267 224 l 735 224 l 819 0 z m 309 335 l 501 848 l 694 335 z "},"Á":{"ha":1003,"x_min":0,"x_max":0,"o":"m 562 1061 l 755 1300 l 609 1300 l 432 1061 z m 959 0 l 579 972 l 423 972 l 43 0 l 183 0 l 267 224 l 735 224 l 819 0 z m 309 335 l 501 848 l 694 335 z "},"Ă":{"ha":1003,"x_min":0,"x_max":0,"o":"m 641 1297 b 501 1177 641 1224 582 1177 b 361 1297 421 1177 361 1224 l 244 1297 b 501 1071 244 1172 347 1071 b 758 1297 657 1071 758 1172 z m 959 0 l 579 972 l 423 972 l 43 0 l 183 0 l 267 224 l 735 224 l 819 0 z m 309 335 l 501 848 l 694 335 z "},"Ắ":{"ha":1003,"x_min":0,"x_max":0,"o":"m 562 1301 l 755 1541 l 609 1541 l 432 1301 z m 641 1297 b 501 1177 641 1224 582 1177 b 361 1297 421 1177 361 1224 l 244 1297 b 501 1071 244 1172 347 1071 b 758 1297 657 1071 758 1172 z m 959 0 l 579 972 l 423 972 l 43 0 l 183 0 l 267 224 l 735 224 l 819 0 z m 309 335 l 501 848 l 694 335 z "},"Ặ":{"ha":1003,"x_min":0,"x_max":0,"o":"m 641 1297 b 501 1177 641 1224 582 1177 b 361 1297 421 1177 361 1224 l 244 1297 b 501 1071 244 1172 347 1071 b 758 1297 657 1071 758 1172 z m 959 0 l 579 972 l 423 972 l 43 0 l 183 0 l 267 224 l 735 224 l 819 0 z m 309 335 l 501 848 l 694 335 z m 501 -101 b 428 -174 461 -101 428 -134 b 501 -247 428 -215 461 -247 b 574 -174 542 -247 574 -215 b 501 -101 574 -134 542 -101 z "},"Ằ":{"ha":1003,"x_min":0,"x_max":0,"o":"m 566 1301 l 389 1541 l 243 1541 l 437 1301 z m 641 1297 b 501 1177 641 1224 582 1177 b 361 1297 421 1177 361 1224 l 244 1297 b 501 1071 244 1172 347 1071 b 758 1297 657 1071 758 1172 z m 959 0 l 579 972 l 423 972 l 43 0 l 183 0 l 267 224 l 735 224 l 819 0 z m 309 335 l 501 848 l 694 335 z "},"Ẳ":{"ha":1003,"x_min":0,"x_max":0,"o":"m 534 1597 b 394 1570 487 1597 439 1589 l 436 1484 b 533 1502 464 1493 502 1501 b 594 1466 573 1502 593 1491 b 533 1407 594 1449 589 1434 b 425 1269 484 1383 428 1354 l 529 1269 b 578 1317 532 1293 546 1301 b 697 1459 663 1361 697 1383 b 534 1597 697 1571 624 1597 z m 641 1297 b 501 1177 641 1224 582 1177 b 361 1297 421 1177 361 1224 l 244 1297 b 501 1071 244 1172 347 1071 b 758 1297 657 1071 758 1172 z m 959 0 l 579 972 l 423 972 l 43 0 l 183 0 l 267 224 l 735 224 l 819 0 z m 309 335 l 501 848 l 694 335 z "},"Ẵ":{"ha":1003,"x_min":0,"x_max":0,"o":"m 403 1531 b 225 1392 314 1531 261 1443 l 302 1334 b 398 1420 340 1391 369 1420 b 468 1387 420 1420 444 1404 b 602 1332 503 1362 542 1332 b 777 1469 684 1333 723 1390 l 700 1528 b 604 1442 661 1468 632 1441 b 537 1474 584 1441 563 1456 b 403 1531 502 1499 455 1531 z m 641 1297 b 501 1177 641 1224 582 1177 b 361 1297 421 1177 361 1224 l 245 1297 b 501 1071 245 1172 347 1071 b 758 1297 657 1071 758 1172 z m 959 0 l 579 972 l 423 972 l 43 0 l 183 0 l 267 224 l 735 224 l 819 0 z m 309 335 l 501 848 l 694 335 z "},"Ǎ":{"ha":1003,"x_min":0,"x_max":0,"o":"m 436 1062 l 566 1062 l 777 1301 l 632 1301 l 501 1141 l 370 1301 l 225 1301 z m 959 0 l 579 972 l 423 972 l 43 0 l 183 0 l 267 224 l 735 224 l 819 0 z m 694 335 l 309 335 l 501 848 z "},"Â":{"ha":1003,"x_min":0,"x_max":0,"o":"m 370 1062 l 501 1222 l 632 1062 l 777 1062 l 566 1301 l 436 1301 l 225 1062 z m 959 0 l 579 972 l 423 972 l 43 0 l 183 0 l 267 224 l 735 224 l 819 0 z m 694 335 l 309 335 l 501 848 z "},"Ấ":{"ha":1003,"x_min":0,"x_max":0,"o":"m 891 1146 l 1085 1386 l 939 1386 l 761 1146 z m 370 1062 l 501 1222 l 632 1062 l 777 1062 l 566 1301 l 436 1301 l 225 1062 z m 579 972 l 423 972 l 43 0 l 183 0 l 267 224 l 735 224 l 819 0 l 959 0 z m 694 335 l 309 335 l 501 848 z "},"Ậ":{"ha":1003,"x_min":0,"x_max":0,"o":"m 370 1062 l 501 1222 l 632 1062 l 777 1062 l 566 1301 l 436 1301 l 225 1062 z m 959 0 l 579 972 l 423 972 l 43 0 l 183 0 l 267 224 l 735 224 l 819 0 z m 694 335 l 309 335 l 501 848 z m 501 -101 b 428 -174 461 -101 428 -134 b 501 -247 428 -215 461 -247 b 574 -174 542 -247 574 -215 b 501 -101 574 -134 542 -101 z "},"Ầ":{"ha":1003,"x_min":0,"x_max":0,"o":"m 818 1146 l 948 1146 l 770 1386 l 624 1386 z m 370 1062 l 501 1222 l 632 1062 l 777 1062 l 566 1301 l 436 1301 l 225 1062 z m 959 0 l 579 972 l 423 972 l 43 0 l 183 0 l 267 224 l 735 224 l 819 0 z m 694 335 l 309 335 l 501 848 z "},"Ẩ":{"ha":1003,"x_min":0,"x_max":0,"o":"m 880 1438 b 739 1410 833 1438 785 1430 l 782 1325 b 879 1342 810 1334 848 1342 b 939 1306 919 1342 939 1332 b 879 1248 939 1290 934 1275 b 771 1110 830 1224 773 1195 l 875 1110 b 924 1158 877 1134 892 1142 b 1043 1300 1008 1202 1043 1224 b 880 1438 1043 1412 969 1438 z m 370 1062 l 501 1222 l 632 1062 l 777 1062 l 566 1301 l 436 1301 l 225 1062 z m 579 972 l 423 972 l 43 0 l 183 0 l 267 224 l 735 224 l 819 0 l 959 0 z m 694 335 l 309 335 l 501 848 z "},"Ẫ":{"ha":1003,"x_min":0,"x_max":0,"o":"m 398 1416 b 468 1383 420 1416 444 1401 b 602 1328 503 1358 542 1328 b 778 1466 684 1329 723 1386 l 700 1524 b 604 1438 661 1464 632 1438 b 537 1471 584 1438 563 1452 b 403 1527 502 1496 455 1527 b 225 1389 314 1527 261 1440 l 302 1330 b 398 1416 340 1388 369 1416 z m 566 1301 l 436 1301 l 225 1062 l 370 1062 l 501 1222 l 632 1062 l 777 1062 z m 959 0 l 579 972 l 423 972 l 43 0 l 183 0 l 267 224 l 735 224 l 819 0 z m 694 335 l 309 335 l 501 848 z "},"Ä":{"ha":1003,"x_min":0,"x_max":0,"o":"m 353 1236 b 280 1163 313 1236 280 1203 b 353 1089 280 1122 313 1089 b 427 1163 394 1089 427 1122 b 353 1236 427 1203 394 1236 z m 649 1236 b 576 1163 609 1236 576 1203 b 649 1089 576 1122 609 1089 b 722 1163 689 1089 722 1122 b 649 1236 722 1203 689 1236 z m 959 0 l 579 972 l 423 972 l 43 0 l 183 0 l 267 224 l 735 224 l 819 0 z m 309 335 l 501 848 l 694 335 z "},"Ạ":{"ha":1003,"x_min":0,"x_max":0,"o":"m 959 0 l 579 972 l 423 972 l 43 0 l 183 0 l 267 224 l 735 224 l 819 0 z m 309 335 l 501 848 l 694 335 z m 501 -101 b 428 -174 461 -101 428 -134 b 501 -247 428 -215 461 -247 b 574 -174 542 -247 574 -215 b 501 -101 574 -134 542 -101 z "},"À":{"ha":1003,"x_min":0,"x_max":0,"o":"m 566 1062 l 389 1301 l 243 1301 l 437 1062 z m 959 0 l 579 972 l 423 972 l 43 0 l 183 0 l 267 224 l 735 224 l 819 0 z m 309 335 l 501 848 l 694 335 z "},"Ả":{"ha":1003,"x_min":0,"x_max":0,"o":"m 555 1382 b 415 1354 508 1382 460 1374 l 457 1269 b 554 1286 485 1278 523 1286 b 614 1250 594 1286 614 1276 b 554 1192 615 1234 610 1219 b 446 1054 505 1168 449 1139 l 550 1054 b 599 1102 553 1078 567 1086 b 718 1244 683 1146 718 1168 b 555 1382 718 1356 645 1382 z m 959 0 l 579 972 l 423 972 l 43 0 l 183 0 l 267 224 l 735 224 l 819 0 z m 309 335 l 501 848 l 694 335 z "},"Ā":{"ha":1003,"x_min":0,"x_max":0,"o":"m 729 1096 l 729 1210 l 274 1210 l 274 1096 z m 959 0 l 579 972 l 423 972 l 43 0 l 183 0 l 267 224 l 735 224 l 819 0 z m 309 335 l 501 848 l 694 335 z "},"Ą":{"ha":1003,"x_min":0,"x_max":0,"o":"m 999 -180 b 921 -197 974 -192 943 -197 b 833 -124 872 -197 834 -177 b 911 0 834 -71 871 -31 l 959 0 l 579 972 l 423 972 l 43 0 l 183 0 l 267 224 l 735 224 l 819 0 b 717 -161 761 -42 717 -97 b 889 -297 717 -249 801 -296 b 1027 -258 936 -296 989 -284 z m 309 335 l 501 848 l 694 335 z "},"Å":{"ha":1003,"x_min":0,"x_max":0,"o":"m 501 1383 b 317 1206 390 1384 317 1305 b 501 1029 317 1108 390 1029 b 685 1206 613 1029 685 1108 b 501 1383 685 1304 613 1383 z m 500 1299 b 588 1206 551 1299 588 1263 b 501 1113 588 1149 551 1113 b 415 1206 452 1113 415 1149 b 500 1299 415 1264 452 1300 z m 959 0 l 579 972 l 423 972 l 43 0 l 183 0 l 267 224 l 735 224 l 819 0 z m 309 335 l 501 848 l 694 335 z "},"Ã":{"ha":1003,"x_min":0,"x_max":0,"o":"m 403 1278 b 225 1139 314 1278 261 1190 l 302 1081 b 398 1167 340 1139 369 1167 b 468 1134 420 1167 444 1151 b 602 1079 503 1109 542 1079 b 777 1217 684 1080 723 1137 l 700 1275 b 604 1189 661 1215 632 1189 b 537 1221 584 1189 563 1203 b 403 1278 502 1246 455 1278 z m 959 0 l 579 972 l 423 972 l 43 0 l 183 0 l 267 224 l 735 224 l 819 0 z m 309 335 l 501 848 l 694 335 z "},"Æ":{"ha":1371,"x_min":0,"x_max":0,"o":"m 1301 111 l 780 111 l 780 454 l 1233 454 l 1233 565 l 780 565 l 780 861 l 1287 861 l 1287 972 l 577 972 l 43 0 l 183 0 l 304 224 l 648 224 l 648 0 l 1301 0 z m 648 335 l 364 335 l 648 860 z "},"B":{"ha":951,"x_min":0,"x_max":0,"o":"m 706 520 b 810 712 769 560 810 627 b 534 972 811 869 687 972 l 141 972 l 141 0 l 272 0 l 272 0 l 580 0 b 880 283 745 0 880 112 b 706 520 880 401 808 488 z m 272 861 l 529 861 b 672 712 611 861 673 806 b 530 565 672 618 611 565 l 272 565 z m 742 284 b 574 111 742 175 670 111 l 272 111 l 272 453 l 576 453 b 742 284 671 453 743 390 z "},"C":{"ha":1063,"x_min":0,"x_max":0,"o":"m 589 992 b 113 486 302 994 113 768 b 589 -19 113 207 302 -19 b 964 117 710 -19 848 27 l 928 217 b 589 105 820 144 698 105 b 250 486 388 105 250 267 b 588 866 250 707 387 868 b 928 755 698 866 820 828 l 964 855 b 589 992 848 945 711 992 z "},"Ć":{"ha":1063,"x_min":0,"x_max":0,"o":"m 624 1061 l 818 1300 l 672 1300 l 494 1061 z m 589 992 b 113 486 302 994 113 768 b 589 -19 113 207 302 -19 b 964 117 710 -19 848 27 l 928 217 b 589 105 820 144 698 105 b 250 486 388 105 250 267 b 588 866 250 707 387 868 b 928 755 698 866 820 828 l 964 855 b 589 992 848 945 711 992 z "},"Č":{"ha":1063,"x_min":0,"x_max":0,"o":"m 499 1062 l 628 1062 l 840 1301 l 694 1301 l 563 1141 l 432 1301 l 287 1301 z m 589 105 b 250 486 388 105 250 267 b 588 866 250 707 387 868 b 928 755 698 866 820 828 l 964 855 b 589 992 848 945 711 992 b 113 486 302 994 113 768 b 589 -19 113 207 302 -19 b 964 117 710 -19 848 27 l 928 217 b 589 105 820 144 698 105 z "},"Ç":{"ha":1063,"x_min":0,"x_max":0,"o":"m 589 -19 b 964 117 710 -19 848 27 l 928 217 b 589 105 820 144 698 105 b 250 486 388 105 250 267 b 588 866 250 707 387 868 b 928 755 698 866 820 828 l 964 855 b 589 992 848 945 711 992 b 113 486 302 994 113 768 b 485 -9 113 242 257 39 l 439 -106 l 463 -155 b 538 -141 482 -147 521 -141 b 600 -197 581 -141 599 -163 b 521 -255 599 -233 579 -255 b 379 -228 478 -255 423 -246 l 344 -305 b 533 -344 391 -329 474 -346 b 718 -196 646 -343 718 -279 b 578 -61 718 -121 662 -71 b 567 -61 575 -61 571 -61 l 580 -19 b 589 -19 583 -19 586 -19 z "},"Ċ":{"ha":1063,"x_min":0,"x_max":0,"o":"m 563 1236 b 490 1162 523 1236 490 1203 b 563 1089 490 1122 523 1089 b 637 1162 604 1089 637 1122 b 563 1236 637 1203 604 1236 z m 589 992 b 113 486 302 994 113 768 b 589 -19 113 207 302 -19 b 964 117 710 -19 848 27 l 928 217 b 589 105 820 144 698 105 b 250 486 388 105 250 267 b 588 866 250 707 387 868 b 928 755 698 866 820 828 l 964 855 b 589 992 848 945 711 992 z "},"D":{"ha":1068,"x_min":0,"x_max":0,"o":"m 141 972 l 141 0 l 475 0 b 955 486 764 0 955 207 b 475 972 955 766 764 972 z m 272 111 l 272 861 l 475 861 b 818 486 684 861 818 713 b 475 111 818 259 684 111 z "},"Ð":{"ha":1068,"x_min":0,"x_max":0,"o":"m 141 972 l 141 535 l 2 535 l 2 437 l 141 437 l 141 0 l 475 0 b 955 486 764 0 955 207 b 475 972 955 766 764 972 z m 272 111 l 272 437 l 519 437 l 519 535 l 272 535 l 272 861 l 475 861 b 818 486 684 861 818 713 b 475 111 818 259 684 111 z "},"Ď":{"ha":1068,"x_min":0,"x_max":0,"o":"m 454 1062 l 583 1062 l 795 1301 l 649 1301 l 518 1141 l 388 1301 l 242 1301 z m 140 972 l 140 0 l 475 0 b 955 486 764 0 955 207 b 475 972 955 766 764 972 z m 272 111 l 272 861 l 475 861 b 818 486 684 861 818 713 b 475 111 818 259 684 111 z "},"Đ":{"ha":1068,"x_min":0,"x_max":0,"o":"m 141 972 l 141 535 l 2 535 l 2 437 l 141 437 l 141 0 l 475 0 b 955 486 764 0 955 207 b 475 972 955 766 764 972 z m 272 111 l 272 437 l 519 437 l 519 535 l 272 535 l 272 861 l 475 861 b 818 486 684 861 818 713 b 475 111 818 259 684 111 z "},"E":{"ha":864,"x_min":0,"x_max":0,"o":"m 793 111 l 272 111 l 272 454 l 725 454 l 725 565 l 272 565 l 272 861 l 780 861 l 780 972 l 140 972 l 140 0 l 793 0 z "},"É":{"ha":864,"x_min":0,"x_max":0,"o":"m 527 1061 l 720 1300 l 575 1300 l 397 1061 z m 793 111 l 272 111 l 272 454 l 725 454 l 725 565 l 272 565 l 272 861 l 780 861 l 780 972 l 140 972 l 140 0 l 793 0 z "},"Ě":{"ha":864,"x_min":0,"x_max":0,"o":"m 401 1062 l 531 1062 l 743 1301 l 597 1301 l 466 1141 l 335 1301 l 190 1301 z m 793 111 l 272 111 l 272 454 l 725 454 l 725 565 l 272 565 l 272 861 l 780 861 l 780 972 l 140 972 l 140 0 l 793 0 z "},"Ê":{"ha":864,"x_min":0,"x_max":0,"o":"m 335 1062 l 466 1222 l 597 1062 l 743 1062 l 531 1301 l 401 1301 l 190 1062 z m 793 111 l 272 111 l 272 454 l 725 454 l 725 565 l 272 565 l 272 861 l 780 861 l 780 972 l 141 972 l 141 0 l 793 0 z "},"Ế":{"ha":864,"x_min":0,"x_max":0,"o":"m 1050 1386 l 904 1386 l 726 1146 l 856 1146 z m 335 1062 l 466 1222 l 597 1062 l 743 1062 l 531 1301 l 401 1301 l 190 1062 z m 272 111 l 272 454 l 725 454 l 725 565 l 272 565 l 272 861 l 780 861 l 780 972 l 140 972 l 140 0 l 793 0 l 793 111 z "},"Ệ":{"ha":864,"x_min":0,"x_max":0,"o":"m 335 1062 l 466 1222 l 597 1062 l 743 1062 l 531 1301 l 401 1301 l 190 1062 z m 793 111 l 272 111 l 272 454 l 725 454 l 725 565 l 272 565 l 272 861 l 780 861 l 780 972 l 141 972 l 141 0 l 793 0 z m 467 -101 b 393 -174 426 -101 393 -134 b 467 -248 393 -215 426 -248 b 540 -174 507 -248 540 -215 b 467 -101 540 -134 507 -101 z "},"Ề":{"ha":864,"x_min":0,"x_max":0,"o":"m 783 1146 l 913 1146 l 736 1386 l 590 1386 z m 336 1062 l 466 1222 l 597 1062 l 743 1062 l 531 1301 l 402 1301 l 190 1062 z m 272 111 l 272 454 l 725 454 l 725 565 l 272 565 l 272 861 l 780 861 l 780 972 l 141 972 l 141 0 l 793 0 l 793 111 z "},"Ể":{"ha":864,"x_min":0,"x_max":0,"o":"m 845 1438 b 705 1410 798 1438 750 1430 l 747 1325 b 844 1342 775 1334 813 1342 b 904 1306 884 1342 904 1332 b 844 1248 905 1290 899 1275 b 736 1110 795 1224 738 1195 l 840 1110 b 889 1158 842 1134 857 1142 b 1008 1300 973 1202 1008 1224 b 845 1438 1008 1412 934 1438 z m 335 1062 l 466 1222 l 597 1062 l 743 1062 l 531 1301 l 401 1301 l 190 1062 z m 272 111 l 272 454 l 725 454 l 725 565 l 272 565 l 272 861 l 780 861 l 780 972 l 141 972 l 141 0 l 793 0 l 793 111 z "},"Ễ":{"ha":864,"x_min":0,"x_max":0,"o":"m 363 1416 b 433 1383 385 1416 409 1401 b 567 1328 468 1358 507 1328 b 743 1466 649 1329 688 1386 l 665 1524 b 569 1438 627 1464 597 1438 b 502 1471 549 1438 528 1452 b 368 1527 467 1496 421 1527 b 190 1389 279 1527 226 1440 l 267 1330 b 363 1416 305 1388 335 1416 z m 531 1301 l 401 1301 l 190 1062 l 335 1062 l 466 1222 l 597 1062 l 743 1062 z m 793 111 l 272 111 l 272 454 l 725 454 l 725 565 l 272 565 l 272 861 l 780 861 l 780 972 l 141 972 l 141 0 l 793 0 z "},"Ë":{"ha":864,"x_min":0,"x_max":0,"o":"m 318 1089 b 392 1163 359 1089 392 1122 b 318 1236 392 1203 359 1236 b 245 1163 278 1236 245 1203 b 318 1089 245 1122 278 1089 z m 614 1089 b 687 1163 655 1089 687 1122 b 614 1236 687 1203 655 1236 b 541 1163 574 1236 541 1203 b 614 1089 541 1122 574 1089 z m 793 111 l 272 111 l 272 454 l 725 454 l 725 565 l 272 565 l 272 861 l 780 861 l 780 972 l 140 972 l 140 0 l 793 0 z "},"Ė":{"ha":864,"x_min":0,"x_max":0,"o":"m 466 1089 b 540 1163 507 1089 540 1122 b 466 1236 540 1203 507 1236 b 393 1163 426 1236 393 1203 b 466 1089 393 1122 426 1089 z m 793 111 l 272 111 l 272 454 l 725 454 l 725 565 l 272 565 l 272 861 l 780 861 l 780 972 l 141 972 l 141 0 l 793 0 z "},"Ẹ":{"ha":864,"x_min":0,"x_max":0,"o":"m 793 111 l 272 111 l 272 454 l 725 454 l 725 565 l 272 565 l 272 861 l 780 861 l 780 972 l 140 972 l 140 0 l 793 0 z m 467 -101 b 393 -174 426 -101 393 -134 b 467 -248 393 -215 426 -248 b 540 -174 507 -248 540 -215 b 467 -101 540 -134 507 -101 z "},"È":{"ha":864,"x_min":0,"x_max":0,"o":"m 402 1062 l 532 1062 l 354 1301 l 208 1301 z m 793 111 l 272 111 l 272 454 l 725 454 l 725 565 l 272 565 l 272 861 l 780 861 l 780 972 l 141 972 l 141 0 l 793 0 z "},"Ẻ":{"ha":864,"x_min":0,"x_max":0,"o":"m 520 1286 b 581 1250 560 1286 580 1276 b 520 1192 581 1234 576 1219 b 412 1054 471 1168 415 1139 l 516 1054 b 565 1102 519 1078 533 1086 b 684 1244 649 1146 684 1168 b 521 1382 684 1356 611 1382 b 381 1354 474 1382 426 1374 l 423 1269 b 520 1286 451 1278 489 1286 z m 793 111 l 272 111 l 272 454 l 725 454 l 725 565 l 272 565 l 272 861 l 780 861 l 780 972 l 141 972 l 141 0 l 793 0 z "},"Ē":{"ha":864,"x_min":0,"x_max":0,"o":"m 694 1096 l 694 1210 l 239 1210 l 239 1096 z m 793 111 l 272 111 l 272 454 l 725 454 l 725 565 l 272 565 l 272 861 l 780 861 l 780 972 l 141 972 l 141 0 l 793 0 z "},"Ę":{"ha":864,"x_min":0,"x_max":0,"o":"m 815 -179 b 738 -196 790 -192 760 -196 b 650 -124 688 -196 650 -176 b 727 0 650 -71 687 -31 l 793 0 l 793 111 l 272 111 l 272 454 l 725 454 l 725 565 l 272 565 l 272 861 l 780 861 l 780 972 l 140 972 l 140 0 l 634 0 b 533 -160 577 -42 534 -96 b 705 -296 534 -249 617 -296 b 844 -258 752 -296 806 -283 z "},"Ẽ":{"ha":864,"x_min":0,"x_max":0,"o":"m 363 1167 b 433 1134 385 1167 409 1151 b 567 1079 468 1109 507 1079 b 743 1217 649 1080 688 1137 l 665 1275 b 569 1189 627 1215 597 1189 b 502 1221 549 1189 528 1203 b 368 1278 467 1246 421 1278 b 190 1139 279 1278 226 1190 l 267 1081 b 363 1167 305 1139 335 1167 z m 793 111 l 272 111 l 272 454 l 725 454 l 725 565 l 272 565 l 272 861 l 780 861 l 780 972 l 141 972 l 141 0 l 793 0 z "},"F":{"ha":822,"x_min":0,"x_max":0,"o":"m 272 861 l 752 861 l 752 972 l 141 972 l 141 0 l 272 0 l 272 426 l 698 426 l 698 537 l 272 537 z "},"G":{"ha":1147,"x_min":0,"x_max":0,"o":"m 1013 509 l 681 509 l 681 398 l 881 398 l 881 188 b 590 106 783 133 683 106 b 250 486 388 106 250 267 b 589 866 250 707 388 868 b 942 751 703 866 830 827 l 978 851 b 590 992 858 944 716 992 b 113 486 303 994 113 768 b 590 -19 113 207 303 -19 b 899 86 689 -19 801 17 l 913 0 l 1013 0 z "},"Ğ":{"ha":1147,"x_min":0,"x_max":0,"o":"m 576 1071 b 832 1297 731 1071 832 1172 l 716 1297 b 576 1177 716 1224 656 1177 b 435 1297 496 1177 435 1224 l 319 1297 b 576 1071 319 1172 421 1071 z m 1013 509 l 681 509 l 681 398 l 881 398 l 881 188 b 590 106 783 133 683 106 b 250 486 388 106 250 267 b 589 866 250 707 388 868 b 942 751 703 866 830 827 l 978 851 b 590 992 858 944 716 992 b 113 486 303 994 113 768 b 590 -19 113 207 303 -19 b 899 86 689 -19 801 17 l 913 0 l 1013 0 z "},"Ģ":{"ha":1147,"x_min":0,"x_max":0,"o":"m 1013 509 l 681 509 l 681 398 l 881 398 l 881 188 b 590 106 783 133 683 106 b 250 486 388 106 250 267 b 589 866 250 707 388 868 b 942 751 703 866 830 827 l 978 851 b 590 992 858 944 716 992 b 113 486 303 994 113 768 b 590 -19 113 207 303 -19 b 899 86 689 -19 801 17 l 913 0 l 1013 0 z m 583 -86 b 520 -149 548 -86 520 -114 b 566 -210 520 -180 542 -203 b 501 -332 556 -263 534 -300 l 544 -359 b 648 -149 609 -309 659 -215 b 583 -86 642 -110 616 -86 z "},"Ġ":{"ha":1147,"x_min":0,"x_max":0,"o":"m 576 1089 b 649 1163 616 1089 649 1122 b 576 1236 649 1203 616 1236 b 502 1163 535 1236 502 1203 b 576 1089 502 1122 535 1089 z m 1013 509 l 681 509 l 681 398 l 881 398 l 881 188 b 590 106 783 133 683 106 b 250 486 388 106 250 267 b 589 866 250 707 388 868 b 942 751 703 866 830 827 l 978 851 b 590 992 858 944 716 992 b 113 486 303 994 113 768 b 590 -19 113 207 303 -19 b 899 86 689 -19 801 17 l 913 0 l 1013 0 z "},"H":{"ha":1103,"x_min":0,"x_max":0,"o":"m 962 972 l 830 972 l 830 565 l 272 565 l 272 972 l 141 972 l 141 0 l 272 0 l 272 454 l 830 454 l 830 0 l 962 0 z "},"Ħ":{"ha":1101,"x_min":0,"x_max":0,"o":"m 1102 716 l 1102 827 l 963 827 l 963 972 l 831 972 l 831 827 l 273 827 l 273 972 l 141 972 l 141 827 l 0 827 l 0 716 l 141 716 l 141 0 l 273 0 l 273 454 l 831 454 l 831 0 l 963 0 l 963 716 z m 831 716 l 831 565 l 273 565 l 273 716 z "},"I":{"ha":413,"x_min":0,"x_max":0,"o":"m 272 0 l 272 972 l 141 972 l 141 0 z "},"Ĳ":{"ha":1067,"x_min":0,"x_max":0,"o":"m 272 0 l 272 972 l 141 972 l 141 0 z m 927 972 l 795 972 l 795 330 b 588 92 795 187 711 92 b 490 105 553 92 521 96 l 455 5 b 588 -19 494 -11 539 -19 b 927 330 794 -19 927 137 z "},"Í":{"ha":413,"x_min":0,"x_max":0,"o":"m 267 1061 l 461 1300 l 315 1300 l 137 1061 z m 272 0 l 272 972 l 141 972 l 141 0 z "},"Ǐ":{"ha":413,"x_min":0,"x_max":0,"o":"m 142 1062 l 271 1062 l 483 1301 l 337 1301 l 206 1141 l 76 1301 l -70 1301 z m 140 972 l 140 0 l 272 0 l 272 972 z "},"Î":{"ha":413,"x_min":0,"x_max":0,"o":"m 483 1062 l 271 1301 l 142 1301 l -70 1062 l 76 1062 l 206 1222 l 337 1062 z m 141 972 l 141 0 l 272 0 l 272 972 z "},"Ï":{"ha":413,"x_min":0,"x_max":0,"o":"m 59 1236 b -15 1163 18 1236 -15 1203 b 59 1089 -15 1122 18 1089 b 132 1163 99 1089 132 1122 b 59 1236 132 1203 99 1236 z m 354 1236 b 281 1163 314 1236 281 1203 b 354 1089 281 1122 314 1089 b 428 1163 395 1089 428 1122 b 354 1236 428 1203 395 1236 z m 272 0 l 272 972 l 141 972 l 141 0 z "},"İ":{"ha":413,"x_min":0,"x_max":0,"o":"m 206 1236 b 133 1163 166 1236 133 1203 b 206 1089 133 1122 166 1089 b 280 1163 247 1089 280 1122 b 206 1236 280 1203 247 1236 z m 272 0 l 272 972 l 141 972 l 141 0 z "},"Ị":{"ha":413,"x_min":0,"x_max":0,"o":"m 272 0 l 272 972 l 141 972 l 141 0 z m 207 -101 b 133 -174 166 -101 133 -134 b 207 -247 133 -215 166 -247 b 280 -174 247 -247 280 -215 b 207 -101 280 -134 247 -101 z "},"Ì":{"ha":413,"x_min":0,"x_max":0,"o":"m 272 1062 l 94 1301 l -52 1301 l 142 1062 z m 272 0 l 272 972 l 141 972 l 141 0 z "},"Ỉ":{"ha":413,"x_min":0,"x_max":0,"o":"m 264 1382 b 123 1354 217 1382 169 1374 l 166 1269 b 263 1286 194 1278 232 1286 b 323 1250 303 1286 323 1276 b 263 1192 323 1234 318 1219 b 155 1054 214 1168 157 1139 l 258 1054 b 307 1102 261 1078 276 1086 b 426 1244 392 1146 426 1168 b 264 1382 426 1356 353 1382 z m 272 0 l 272 972 l 141 972 l 141 0 z "},"Ī":{"ha":413,"x_min":0,"x_max":0,"o":"m 434 1096 l 434 1210 l -21 1210 l -21 1096 z m 272 0 l 272 972 l 141 972 l 141 0 z "},"Į":{"ha":413,"x_min":0,"x_max":0,"o":"m 330 -200 b 253 -217 305 -213 275 -218 b 165 -145 203 -218 165 -197 b 272 0 165 -79 224 -32 l 272 972 l 141 972 l 141 0 l 179 0 b 48 -182 108 -44 49 -107 b 220 -317 49 -270 132 -317 b 359 -279 267 -317 321 -304 z "},"Ĩ":{"ha":413,"x_min":0,"x_max":0,"o":"m 108 1278 b -70 1139 19 1278 -34 1190 l 7 1081 b 103 1167 45 1139 75 1167 b 173 1134 125 1167 149 1151 b 307 1079 208 1109 247 1079 b 483 1217 389 1080 428 1137 l 406 1275 b 309 1189 367 1215 337 1189 b 242 1221 289 1189 268 1203 b 108 1278 207 1246 161 1278 z m 272 0 l 272 972 l 141 972 l 141 0 z "},"J":{"ha":653,"x_min":0,"x_max":0,"o":"m 514 972 l 382 972 l 382 330 b 175 92 382 187 298 92 b 77 105 140 92 108 96 l 42 5 b 175 -19 82 -11 126 -19 b 514 330 381 -19 514 137 z "},"K":{"ha":992,"x_min":0,"x_max":0,"o":"m 445 512 l 786 0 l 949 0 l 533 599 l 913 972 l 729 972 l 272 506 l 272 972 l 140 972 l 140 0 l 272 0 l 272 343 z "},"Ķ":{"ha":992,"x_min":0,"x_max":0,"o":"m 949 0 l 533 599 l 913 972 l 729 972 l 272 506 l 272 972 l 140 972 l 140 0 l 272 0 l 272 343 l 445 512 l 786 0 z m 503 -86 b 440 -149 468 -86 440 -114 b 486 -210 440 -180 461 -203 b 421 -332 476 -263 454 -300 l 464 -359 b 568 -149 529 -309 579 -215 b 503 -86 562 -110 535 -86 z "},"L":{"ha":774,"x_min":0,"x_max":0,"o":"m 730 111 l 272 111 l 272 972 l 141 972 l 141 0 l 730 0 z "},"Ĺ":{"ha":774,"x_min":0,"x_max":0,"o":"m 445 1061 l 638 1300 l 493 1300 l 315 1061 z m 730 111 l 272 111 l 272 972 l 141 972 l 141 0 l 730 0 z "},"Ľ":{"ha":774,"x_min":0,"x_max":0,"o":"m 632 929 b 567 992 625 968 599 992 b 504 929 532 992 504 964 b 549 868 504 898 525 875 b 485 746 540 815 517 778 l 528 718 b 632 929 593 768 643 863 z m 730 111 l 272 111 l 272 972 l 140 972 l 140 0 l 730 0 z "},"Ļ":{"ha":774,"x_min":0,"x_max":0,"o":"m 730 111 l 272 111 l 272 972 l 141 972 l 141 0 l 730 0 z m 392 -86 b 329 -149 357 -86 329 -114 b 375 -210 329 -180 350 -203 b 310 -332 365 -263 343 -300 l 353 -359 b 457 -149 418 -309 468 -215 b 392 -86 450 -110 424 -86 z "},"Ŀ":{"ha":774,"x_min":0,"x_max":0,"o":"m 730 111 l 272 111 l 272 972 l 141 972 l 141 0 l 730 0 z m 499 395 b 576 472 541 395 576 429 b 499 549 576 515 541 549 b 422 472 456 549 422 516 b 499 395 422 429 456 395 z "},"Ł":{"ha":774,"x_min":0,"x_max":0,"o":"m 730 111 l 272 111 l 272 465 l 500 590 l 446 687 l 272 592 l 272 972 l 141 972 l 141 519 l -31 425 l 22 328 l 141 393 l 141 0 l 730 0 z "},"M":{"ha":1240,"x_min":0,"x_max":0,"o":"m 1100 972 l 983 972 l 617 434 l 250 972 l 134 972 l 134 0 l 265 0 l 265 719 l 550 315 l 566 315 l 683 315 l 968 719 l 968 0 l 1100 0 z "},"N":{"ha":1068,"x_min":0,"x_max":0,"o":"m 935 972 l 803 972 l 803 241 l 249 972 l 133 972 l 133 0 l 265 0 l 265 732 l 819 0 l 935 0 z "},"Ń":{"ha":1068,"x_min":0,"x_max":0,"o":"m 595 1061 l 788 1300 l 642 1300 l 465 1061 z m 935 972 l 803 972 l 803 241 l 249 972 l 133 972 l 133 0 l 265 0 l 265 732 l 819 0 l 935 0 z "},"Ň":{"ha":1068,"x_min":0,"x_max":0,"o":"m 469 1062 l 599 1062 l 810 1301 l 665 1301 l 534 1141 l 403 1301 l 258 1301 z m 935 972 l 803 972 l 803 241 l 249 972 l 133 972 l 133 0 l 265 0 l 265 732 l 819 0 l 935 0 z "},"Ņ":{"ha":1068,"x_min":0,"x_max":0,"o":"m 935 972 l 803 972 l 803 241 l 249 972 l 133 972 l 133 0 l 265 0 l 265 732 l 819 0 l 935 0 z m 542 -86 b 478 -149 507 -86 478 -114 b 524 -210 478 -180 500 -203 b 460 -332 515 -263 492 -300 l 503 -359 b 607 -149 568 -309 618 -215 b 542 -86 600 -110 574 -86 z "},"Ŋ":{"ha":1068,"x_min":0,"x_max":0,"o":"m 935 972 l 803 972 l 803 241 l 249 972 l 133 972 l 133 0 l 265 0 l 265 732 l 802 22 b 595 -186 791 -104 710 -186 b 498 -173 561 -186 528 -182 l 462 -272 b 595 -297 502 -288 547 -297 b 935 52 801 -297 935 -141 z "},"Ñ":{"ha":1068,"x_min":0,"x_max":0,"o":"m 431 1167 b 501 1134 453 1167 477 1151 b 634 1079 536 1109 575 1079 b 810 1217 717 1080 756 1137 l 733 1275 b 637 1189 694 1215 665 1189 b 570 1221 617 1189 595 1203 b 436 1278 535 1246 488 1278 b 258 1139 347 1278 293 1190 l 335 1081 b 431 1167 373 1139 402 1167 z m 935 972 l 803 972 l 803 241 l 249 972 l 133 972 l 133 0 l 265 0 l 265 732 l 819 0 l 819 0 l 935 0 z "},"O":{"ha":1181,"x_min":0,"x_max":0,"o":"m 590 992 b 113 486 303 992 113 768 b 590 -19 113 207 303 -19 b 1067 486 879 -19 1067 207 b 590 992 1067 766 879 992 z m 589 866 b 929 486 793 866 929 706 b 590 106 929 266 793 106 b 250 486 388 106 250 267 b 589 866 250 707 388 866 z "},"Ó":{"ha":1181,"x_min":0,"x_max":0,"o":"m 650 1061 l 844 1300 l 698 1300 l 520 1061 z m 590 992 b 113 486 303 992 113 768 b 590 -19 113 207 303 -19 b 1067 486 879 -19 1067 207 b 590 992 1067 766 879 992 z m 589 866 b 929 486 793 866 929 706 b 590 106 929 266 793 106 b 250 486 388 106 250 267 b 589 866 250 707 388 866 z "},"Ǒ":{"ha":1181,"x_min":0,"x_max":0,"o":"m 525 1062 l 654 1062 l 866 1301 l 720 1301 l 590 1141 l 459 1301 l 313 1301 z m 590 992 b 113 486 303 992 113 768 b 590 -19 113 207 303 -19 b 1067 486 879 -19 1067 207 b 590 992 1067 766 879 992 z m 590 106 b 250 486 388 106 250 267 b 589 866 250 707 388 866 b 929 486 793 866 929 706 b 590 106 929 266 793 106 z "},"Ô":{"ha":1181,"x_min":0,"x_max":0,"o":"m 459 1062 l 590 1222 l 720 1062 l 866 1062 l 654 1301 l 525 1301 l 313 1062 z m 590 992 b 113 486 303 992 113 768 b 590 -19 113 207 303 -19 b 1067 486 879 -19 1067 207 b 590 992 1067 766 879 992 z m 590 106 b 250 486 388 106 250 267 b 589 866 250 707 388 866 b 929 486 793 866 929 706 b 590 106 929 266 793 106 z "},"Ố":{"ha":1181,"x_min":0,"x_max":0,"o":"m 980 1146 l 1174 1386 l 1028 1386 l 850 1146 z m 459 1062 l 590 1222 l 721 1062 l 866 1062 l 655 1301 l 525 1301 l 314 1062 z m 590 992 b 113 486 303 992 113 768 b 590 -19 113 207 303 -19 b 1067 486 879 -19 1067 207 b 590 992 1067 766 879 992 z m 590 106 b 250 486 388 106 250 267 b 589 866 250 707 388 866 b 930 486 793 866 930 706 b 590 106 930 266 793 106 z "},"Ộ":{"ha":1181,"x_min":0,"x_max":0,"o":"m 459 1062 l 590 1222 l 720 1062 l 866 1062 l 654 1301 l 525 1301 l 313 1062 z m 590 992 b 113 486 303 992 113 768 b 590 -19 113 207 303 -19 b 1067 486 879 -19 1067 207 b 590 992 1067 766 879 992 z m 590 106 b 250 486 388 106 250 267 b 589 866 250 707 388 866 b 929 486 793 866 929 706 b 590 106 929 266 793 106 z m 589 -101 b 516 -174 549 -101 516 -134 b 589 -247 516 -215 549 -247 b 662 -174 629 -247 662 -215 b 589 -101 662 -134 629 -101 z "},"Ồ":{"ha":1181,"x_min":0,"x_max":0,"o":"m 906 1146 l 1036 1146 l 859 1386 l 713 1386 z m 459 1062 l 590 1222 l 720 1062 l 866 1062 l 654 1301 l 525 1301 l 313 1062 z m 590 992 b 113 486 303 992 113 768 b 590 -19 113 207 303 -19 b 1067 486 879 -19 1067 207 b 590 992 1067 766 879 992 z m 590 106 b 250 486 388 106 250 267 b 589 866 250 707 388 866 b 929 486 793 866 929 706 b 590 106 929 266 793 106 z "},"Ổ":{"ha":1181,"x_min":0,"x_max":0,"o":"m 968 1438 b 827 1410 920 1438 872 1430 l 869 1325 b 967 1342 897 1334 936 1342 b 1027 1306 1006 1342 1027 1332 b 967 1248 1027 1290 1022 1275 b 859 1110 917 1224 861 1195 l 962 1110 b 1011 1158 965 1134 979 1142 b 1130 1300 1096 1202 1130 1224 b 968 1438 1130 1412 1057 1438 z m 458 1062 l 589 1222 l 720 1062 l 865 1062 l 654 1301 l 524 1301 l 313 1062 z m 590 992 b 113 486 303 992 113 768 b 590 -19 113 207 303 -19 b 1067 486 879 -19 1067 207 b 590 992 1067 766 879 992 z m 590 106 b 250 486 388 106 250 267 b 589 866 250 707 388 866 b 929 486 793 866 929 706 b 590 106 929 266 793 106 z "},"Ỗ":{"ha":1181,"x_min":0,"x_max":0,"o":"m 486 1416 b 556 1383 508 1416 532 1401 b 690 1328 591 1358 630 1328 b 866 1466 772 1329 811 1386 l 789 1524 b 692 1438 750 1464 720 1438 b 625 1471 672 1438 651 1452 b 491 1527 591 1496 544 1527 b 313 1389 402 1527 349 1440 l 390 1330 b 486 1416 428 1388 458 1416 z m 654 1301 l 525 1301 l 313 1062 l 459 1062 l 590 1222 l 720 1062 l 866 1062 z m 590 992 b 113 486 303 992 113 768 b 590 -19 113 207 303 -19 b 1067 486 879 -19 1067 207 b 590 992 1067 766 879 992 z m 590 106 b 250 486 388 106 250 267 b 589 866 250 707 388 866 b 930 486 793 866 930 706 b 590 106 930 266 793 106 z "},"Ö":{"ha":1181,"x_min":0,"x_max":0,"o":"m 442 1236 b 368 1162 401 1236 368 1203 b 442 1089 368 1122 401 1089 b 515 1162 482 1089 515 1122 b 442 1236 515 1203 482 1236 z m 737 1236 b 664 1162 697 1236 664 1203 b 737 1089 664 1122 697 1089 b 811 1162 778 1089 811 1122 b 737 1236 811 1203 778 1236 z m 590 992 b 113 486 303 992 113 768 b 590 -19 113 207 303 -19 b 1067 486 879 -19 1067 207 b 590 992 1067 766 879 992 z m 589 866 b 929 486 793 866 929 706 b 590 106 929 266 793 106 b 250 486 388 106 250 267 b 589 866 250 707 388 866 z "},"Ọ":{"ha":1181,"x_min":0,"x_max":0,"o":"m 590 992 b 113 486 303 992 113 768 b 590 -19 113 207 303 -19 b 1067 486 879 -19 1067 207 b 590 992 1067 766 879 992 z m 589 866 b 929 486 793 866 929 706 b 590 106 929 266 793 106 b 250 486 388 106 250 267 b 589 866 250 707 388 866 z m 589 -101 b 516 -174 549 -101 516 -134 b 589 -247 516 -215 549 -247 b 662 -174 629 -247 662 -215 b 589 -101 662 -134 629 -101 z "},"Ò":{"ha":1181,"x_min":0,"x_max":0,"o":"m 655 1062 l 477 1301 l 331 1301 l 525 1062 z m 590 992 b 113 486 303 992 113 768 b 590 -19 113 207 303 -19 b 1067 486 879 -19 1067 207 b 590 992 1067 766 879 992 z m 589 866 b 929 486 793 866 929 706 b 590 106 929 266 793 106 b 250 486 388 106 250 267 b 589 866 250 707 388 866 z "},"Ỏ":{"ha":1181,"x_min":0,"x_max":0,"o":"m 634 1382 b 493 1354 587 1382 539 1374 l 536 1269 b 633 1286 564 1278 602 1286 b 693 1250 673 1286 693 1276 b 633 1192 693 1234 688 1219 b 525 1054 584 1168 527 1139 l 628 1054 b 678 1102 631 1078 646 1086 b 796 1244 762 1146 796 1168 b 634 1382 796 1356 723 1382 z m 590 992 b 113 486 303 992 113 768 b 590 -19 113 207 303 -19 b 1067 486 879 -19 1067 207 b 590 992 1067 766 879 992 z m 589 866 b 929 486 793 866 929 706 b 590 106 929 266 793 106 b 250 486 388 106 250 267 b 589 866 250 707 388 866 z "},"Ơ":{"ha":1181,"x_min":0,"x_max":0,"o":"m 1045 858 b 1084 1096 1101 899 1121 982 l 977 1064 b 963 922 999 995 993 946 b 842 923 938 902 897 901 b 590 992 772 967 686 992 b 113 486 303 992 113 768 b 590 -19 113 207 303 -19 b 1067 486 879 -19 1067 207 b 949 829 1067 619 1025 739 b 1045 858 987 830 1020 839 z m 590 106 b 250 486 388 106 250 267 b 589 866 250 707 388 866 b 929 486 793 866 929 706 b 590 106 929 266 793 106 z "},"Ớ":{"ha":1181,"x_min":0,"x_max":0,"o":"m 650 1061 l 844 1300 l 698 1300 l 520 1061 z m 1045 858 b 1084 1096 1101 899 1121 982 l 977 1064 b 963 922 999 995 993 946 b 842 923 938 902 897 901 b 590 992 772 967 686 992 b 113 486 303 992 113 768 b 590 -19 113 207 303 -19 b 1067 486 879 -19 1067 207 b 949 829 1067 619 1025 739 b 1045 858 987 830 1020 839 z m 590 106 b 250 486 388 106 250 267 b 589 866 250 707 388 866 b 930 486 793 866 930 706 b 590 106 930 266 793 106 z "},"Ợ":{"ha":1181,"x_min":0,"x_max":0,"o":"m 1045 858 b 1084 1096 1101 899 1121 982 l 977 1064 b 963 922 999 995 993 946 b 842 923 938 902 897 901 b 590 992 772 967 686 992 b 113 486 303 992 113 768 b 590 -19 113 207 303 -19 b 1067 486 879 -19 1067 207 b 949 829 1067 619 1025 739 b 1045 858 987 830 1020 839 z m 590 106 b 250 486 388 106 250 267 b 589 866 250 707 388 866 b 930 486 793 866 930 706 b 590 106 930 266 793 106 z m 589 -101 b 516 -174 549 -101 516 -134 b 589 -248 516 -215 549 -248 b 662 -174 629 -248 662 -215 b 589 -101 662 -134 629 -101 z "},"Ờ":{"ha":1181,"x_min":0,"x_max":0,"o":"m 525 1062 l 655 1062 l 477 1301 l 331 1301 z m 1045 858 b 1084 1096 1101 899 1121 982 l 977 1064 b 963 922 999 995 993 946 b 842 923 938 902 897 901 b 590 992 772 967 686 992 b 113 486 303 992 113 768 b 590 -19 113 207 303 -19 b 1067 486 879 -19 1067 207 b 949 829 1067 619 1025 739 b 1045 858 987 830 1020 839 z m 590 106 b 250 486 388 106 250 267 b 589 866 250 707 388 866 b 929 486 793 866 929 706 b 590 106 929 266 793 106 z "},"Ở":{"ha":1181,"x_min":0,"x_max":0,"o":"m 633 1286 b 693 1250 673 1286 693 1276 b 633 1192 693 1234 688 1219 b 525 1054 584 1168 527 1139 l 628 1054 b 678 1102 631 1078 646 1086 b 796 1244 762 1146 796 1168 b 634 1382 796 1356 723 1382 b 493 1354 587 1382 539 1374 l 536 1269 b 633 1286 564 1278 602 1286 z m 1045 858 b 1084 1096 1101 899 1121 982 l 977 1064 b 963 922 999 995 993 946 b 842 923 938 902 897 901 b 590 992 772 967 686 992 b 113 486 303 992 113 768 b 590 -19 113 207 303 -19 b 1067 486 879 -19 1067 207 b 949 829 1067 619 1025 739 b 1045 858 987 830 1020 839 z m 590 106 b 250 486 388 106 250 267 b 589 866 250 707 388 866 b 930 486 793 866 930 706 b 590 106 930 266 793 106 z "},"Ỡ":{"ha":1181,"x_min":0,"x_max":0,"o":"m 486 1167 b 556 1134 508 1167 532 1151 b 690 1079 591 1109 630 1079 b 866 1217 772 1080 811 1137 l 789 1275 b 692 1189 750 1215 720 1189 b 625 1221 672 1189 651 1203 b 491 1278 591 1246 544 1278 b 313 1139 402 1278 349 1190 l 390 1081 b 486 1167 428 1139 458 1167 z m 1045 858 b 1084 1096 1101 899 1121 982 l 977 1064 b 963 922 999 995 993 946 b 842 923 938 902 897 901 b 590 992 772 967 686 992 b 113 486 303 992 113 768 b 590 -19 113 207 303 -19 b 1067 486 879 -19 1067 207 b 949 829 1067 619 1025 739 b 1045 858 987 830 1020 839 z m 590 106 b 250 486 388 106 250 267 b 589 866 250 707 388 866 b 930 486 793 866 930 706 b 590 106 930 266 793 106 z "},"Ő":{"ha":1181,"x_min":0,"x_max":0,"o":"m 518 1062 l 711 1301 l 566 1301 l 388 1062 z m 794 1062 l 987 1301 l 841 1301 l 664 1062 z m 590 992 b 113 486 303 992 113 768 b 590 -19 113 207 303 -19 b 1067 486 879 -19 1067 207 b 590 992 1067 766 879 992 z m 589 866 b 929 486 793 866 929 706 b 590 106 929 266 793 106 b 250 486 388 106 250 267 b 589 866 250 707 388 866 z "},"Ō":{"ha":1181,"x_min":0,"x_max":0,"o":"m 817 1096 l 817 1210 l 362 1210 l 362 1096 z m 590 992 b 113 486 303 992 113 768 b 590 -19 113 207 303 -19 b 1067 486 879 -19 1067 207 b 590 992 1067 766 879 992 z m 589 866 b 929 486 793 866 929 706 b 590 106 929 266 793 106 b 250 486 388 106 250 267 b 589 866 250 707 388 866 z "},"Ø":{"ha":1181,"x_min":0,"x_max":0,"o":"m 930 1042 l 808 1042 l 767 960 b 590 992 714 980 654 992 b 113 486 303 992 113 768 b 317 64 113 310 189 155 l 249 -69 l 372 -69 l 413 13 b 590 -19 466 -8 526 -19 b 1067 486 879 -19 1067 207 b 864 909 1067 663 992 818 z m 250 486 b 589 866 250 707 388 866 b 710 845 633 866 673 859 l 376 183 b 250 486 297 250 250 358 z m 590 106 b 470 127 547 106 507 113 l 804 790 b 929 486 883 722 929 614 b 590 106 929 266 793 106 z "},"Õ":{"ha":1181,"x_min":0,"x_max":0,"o":"m 491 1278 b 313 1139 402 1278 349 1190 l 390 1081 b 486 1167 428 1139 458 1167 b 556 1134 508 1167 532 1151 b 690 1079 591 1109 630 1079 b 866 1217 772 1080 811 1137 l 789 1275 b 692 1189 750 1215 720 1189 b 625 1221 672 1189 651 1203 b 491 1278 591 1246 544 1278 z m 590 992 b 113 486 303 992 113 768 b 590 -19 113 207 303 -19 b 1067 486 879 -19 1067 207 b 590 992 1067 766 879 992 z m 589 866 b 929 486 793 866 929 706 b 590 106 929 266 793 106 b 250 486 388 106 250 267 b 589 866 250 707 388 866 z "},"Œ":{"ha":1660,"x_min":0,"x_max":0,"o":"m 1589 111 l 1068 111 l 1068 454 l 1521 454 l 1521 565 l 1068 565 l 1068 861 l 1575 861 l 1575 972 l 936 972 l 936 844 b 590 992 853 935 734 992 b 113 486 303 992 113 768 b 590 -19 113 207 303 -19 b 936 128 734 -19 853 37 l 936 0 l 1589 0 z m 590 106 b 250 486 388 106 250 267 b 589 866 250 707 388 866 b 929 486 793 866 929 706 b 590 106 929 266 793 106 z "},"P":{"ha":944,"x_min":0,"x_max":0,"o":"m 207 972 l 140 972 l 140 0 l 272 0 l 272 351 l 577 351 b 858 662 729 351 858 473 b 577 972 859 849 730 972 z m 721 662 b 577 462 721 531 652 462 l 272 462 l 272 861 l 577 861 b 721 662 652 861 721 792 z "},"Þ":{"ha":944,"x_min":0,"x_max":0,"o":"m 272 810 l 272 972 l 141 972 l 141 0 l 272 0 l 272 189 l 577 189 b 858 500 729 189 858 311 b 577 810 859 687 730 810 z m 721 500 b 577 300 721 369 652 300 l 272 300 l 272 699 l 577 699 b 721 500 652 699 721 630 z "},"Q":{"ha":1176,"x_min":0,"x_max":0,"o":"m 1065 486 b 588 992 1065 766 877 992 b 111 486 301 994 111 768 b 588 -19 111 207 301 -19 b 733 1 640 -19 688 -12 l 826 -167 l 965 -142 l 848 55 b 1065 486 984 143 1065 303 z m 588 106 b 248 486 386 106 248 267 b 587 866 248 707 386 868 b 927 486 791 866 927 706 b 782 166 927 347 873 232 l 674 347 l 555 326 l 670 115 b 588 106 644 109 617 106 z "},"R":{"ha":936,"x_min":0,"x_max":0,"o":"m 524 388 l 736 0 l 892 0 l 656 403 b 844 680 764 439 844 540 b 563 972 845 856 716 972 l 272 972 l 141 972 l 141 0 l 272 0 l 272 388 z m 272 498 l 272 861 l 563 861 b 706 681 642 861 707 796 b 563 498 706 563 642 498 z "},"Ŕ":{"ha":936,"x_min":0,"x_max":0,"o":"m 527 1061 l 720 1300 l 574 1300 l 397 1061 z m 524 388 l 735 0 l 892 0 l 656 403 b 844 680 764 439 844 540 b 563 972 845 856 716 972 l 272 972 l 141 972 l 141 0 l 272 0 l 272 388 z m 272 498 l 272 861 l 563 861 b 706 681 642 861 707 796 b 563 498 706 563 642 498 z "},"Ř":{"ha":936,"x_min":0,"x_max":0,"o":"m 401 1062 l 531 1062 l 743 1301 l 597 1301 l 466 1141 l 335 1301 l 190 1301 z m 524 388 l 735 0 l 892 0 l 656 403 b 844 680 764 439 844 540 b 563 972 845 856 716 972 l 272 972 l 141 972 l 141 0 l 272 0 l 272 388 z m 272 498 l 272 861 l 563 861 b 706 681 642 861 707 796 b 563 498 706 563 642 498 z "},"Ŗ":{"ha":936,"x_min":0,"x_max":0,"o":"m 892 0 l 656 403 b 844 680 764 439 844 540 b 563 972 845 856 716 972 l 272 972 l 141 972 l 141 0 l 272 0 l 272 388 l 524 388 l 736 0 z m 272 498 l 272 861 l 563 861 b 706 681 642 861 707 796 b 563 498 706 563 642 498 z m 474 -86 b 411 -149 439 -86 411 -114 b 456 -210 411 -180 432 -203 b 392 -332 447 -263 424 -300 l 435 -359 b 539 -149 500 -309 550 -215 b 474 -86 532 -110 506 -86 z "},"S":{"ha":889,"x_min":0,"x_max":0,"o":"m 448 992 b 97 709 277 992 97 917 b 439 432 98 557 192 499 b 680 269 584 393 680 375 b 453 101 680 159 573 101 b 144 236 348 101 215 147 l 71 146 b 453 -20 152 47 306 -20 b 817 273 626 -20 820 73 b 475 553 814 473 626 513 b 234 708 272 607 235 633 b 446 869 234 825 318 869 b 725 775 564 869 657 831 l 798 867 b 448 992 713 941 588 992 z "},"Ś":{"ha":889,"x_min":0,"x_max":0,"o":"m 506 1061 l 699 1300 l 553 1300 l 376 1061 z m 448 992 b 97 709 277 992 97 917 b 439 432 98 557 192 499 b 680 269 584 393 680 375 b 453 101 680 159 573 101 b 144 236 348 101 215 147 l 71 146 b 453 -20 152 47 306 -20 b 817 273 626 -20 820 73 b 475 553 814 473 626 513 b 234 708 272 607 235 633 b 446 869 234 825 318 869 b 725 775 564 869 657 831 l 798 867 b 448 992 713 941 588 992 z "},"Š":{"ha":889,"x_min":0,"x_max":0,"o":"m 380 1062 l 510 1062 l 721 1301 l 576 1301 l 445 1141 l 314 1301 l 169 1301 z m 817 273 b 475 553 814 473 626 513 b 234 708 272 607 235 633 b 446 869 234 825 318 869 b 725 775 564 869 657 831 l 798 867 b 448 992 713 941 588 992 b 97 709 277 992 97 917 b 439 432 98 557 192 499 b 680 269 584 393 680 375 b 453 101 680 159 573 101 b 144 236 348 101 215 147 l 71 146 b 453 -20 152 47 306 -20 b 817 273 626 -20 820 73 z "},"Ş":{"ha":889,"x_min":0,"x_max":0,"o":"m 817 273 b 475 553 814 473 626 513 b 234 708 272 607 235 633 b 446 869 234 825 318 869 b 725 775 564 869 657 831 l 798 867 b 448 992 713 941 588 992 b 97 709 277 992 97 917 b 439 432 98 557 192 499 b 680 269 584 393 680 375 b 453 101 680 159 573 101 b 144 236 348 101 215 147 l 71 146 b 387 -15 140 62 262 1 l 344 -106 l 368 -155 b 443 -141 387 -147 426 -141 b 505 -197 486 -141 505 -163 b 427 -255 505 -233 484 -255 b 285 -228 384 -255 328 -246 l 250 -305 b 439 -344 297 -329 379 -346 b 623 -196 551 -343 624 -279 b 484 -61 624 -121 567 -71 b 472 -61 480 -61 476 -61 l 485 -18 b 817 273 649 -8 820 86 z "},"Ș":{"ha":889,"x_min":0,"x_max":0,"o":"m 448 992 b 97 709 277 992 97 917 b 439 432 98 557 192 499 b 680 269 584 393 680 375 b 453 101 680 159 573 101 b 144 236 348 101 215 147 l 71 146 b 453 -20 152 47 306 -20 b 817 273 626 -20 820 73 b 475 553 814 473 626 513 b 234 708 272 607 235 633 b 446 869 234 825 318 869 b 725 775 564 869 657 831 l 798 867 b 448 992 713 941 588 992 z m 445 -86 b 382 -149 410 -86 382 -114 b 428 -210 382 -180 403 -203 b 363 -332 418 -263 396 -300 l 406 -359 b 510 -149 471 -309 521 -215 b 445 -86 503 -110 477 -86 z "},"T":{"ha":856,"x_min":0,"x_max":0,"o":"m 812 861 l 812 972 l 43 972 l 43 861 l 361 861 l 361 0 l 494 0 l 494 861 z "},"Ŧ":{"ha":856,"x_min":0,"x_max":0,"o":"m 495 861 l 812 861 l 812 972 l 43 972 l 43 861 l 361 861 l 361 543 l 200 543 l 200 429 l 361 429 l 361 0 l 495 0 l 495 429 l 656 429 l 656 543 l 495 543 z "},"Ť":{"ha":856,"x_min":0,"x_max":0,"o":"m 363 1062 l 493 1062 l 704 1301 l 559 1301 l 428 1141 l 297 1301 l 152 1301 z m 812 861 l 812 972 l 43 972 l 43 861 l 361 861 l 361 0 l 494 0 l 494 861 z "},"Ţ":{"ha":856,"x_min":0,"x_max":0,"o":"m 482 -1 l 494 -1 l 494 861 l 812 861 l 812 972 l 43 972 l 43 861 l 361 861 l 361 -1 l 386 -1 l 335 -107 l 359 -156 b 434 -142 378 -148 417 -141 b 496 -198 477 -141 495 -163 b 418 -256 496 -234 475 -255 b 276 -229 374 -255 319 -246 l 240 -306 b 430 -345 287 -330 370 -347 b 614 -196 542 -344 615 -280 b 475 -62 614 -122 558 -72 b 463 -61 471 -62 467 -61 z "},"Ț":{"ha":856,"x_min":0,"x_max":0,"o":"m 812 972 l 43 972 l 43 861 l 361 861 l 361 0 l 494 0 l 494 861 l 812 861 z m 436 -86 b 372 -149 401 -86 372 -114 b 418 -210 372 -180 394 -203 b 354 -332 409 -263 386 -300 l 397 -359 b 501 -149 462 -309 512 -215 b 436 -86 494 -110 468 -86 z "},"U":{"ha":1067,"x_min":0,"x_max":0,"o":"m 933 972 l 801 972 l 801 329 b 537 97 801 191 701 97 b 272 329 374 97 272 192 l 272 972 l 141 972 l 141 329 b 537 -19 141 136 298 -19 b 933 329 777 -19 933 136 z "},"Ú":{"ha":1067,"x_min":0,"x_max":0,"o":"m 594 1061 l 787 1300 l 641 1300 l 464 1061 z m 933 972 l 801 972 l 801 329 b 537 97 801 191 701 97 b 272 329 374 97 272 192 l 272 972 l 141 972 l 141 329 b 537 -19 141 136 298 -19 b 933 329 777 -19 933 136 z "},"Ǔ":{"ha":1067,"x_min":0,"x_max":0,"o":"m 468 1062 l 598 1062 l 809 1301 l 664 1301 l 533 1141 l 402 1301 l 257 1301 z m 933 972 l 801 972 l 801 329 b 537 97 801 191 701 97 b 272 329 374 97 272 192 l 272 972 l 141 972 l 141 329 b 537 -19 141 136 298 -19 b 933 329 777 -19 933 136 z "},"Û":{"ha":1067,"x_min":0,"x_max":0,"o":"m 402 1062 l 533 1222 l 664 1062 l 809 1062 l 598 1301 l 468 1301 l 257 1062 z m 933 972 l 801 972 l 801 329 b 537 97 801 191 701 97 b 272 329 374 97 272 192 l 272 972 l 141 972 l 141 329 b 537 -19 141 136 298 -19 b 933 329 777 -19 933 136 z "},"Ü":{"ha":1067,"x_min":0,"x_max":0,"o":"m 385 1236 b 312 1162 345 1236 312 1203 b 385 1089 312 1122 345 1089 b 458 1162 426 1089 458 1122 b 385 1236 458 1203 426 1236 z m 681 1236 b 608 1162 640 1236 608 1203 b 681 1089 608 1122 640 1089 b 754 1162 721 1089 754 1122 b 681 1236 754 1203 721 1236 z m 932 972 l 801 972 l 801 329 b 536 97 801 191 701 97 b 272 329 374 97 272 192 l 272 972 l 141 972 l 141 329 b 536 -19 141 136 298 -19 b 932 329 777 -19 932 136 z "},"Ǘ":{"ha":1067,"x_min":0,"x_max":0,"o":"m 594 1301 l 787 1541 l 641 1541 l 464 1301 z m 385 1236 b 312 1163 345 1236 312 1203 b 385 1089 312 1122 345 1089 b 458 1163 426 1089 458 1122 b 385 1236 458 1203 426 1236 z m 681 1236 b 608 1163 640 1236 608 1203 b 681 1089 608 1122 640 1089 b 754 1163 721 1089 754 1122 b 681 1236 754 1203 721 1236 z m 933 972 l 801 972 l 801 329 b 537 97 801 191 701 97 b 272 329 374 97 272 192 l 272 972 l 141 972 l 141 329 b 537 -19 141 136 298 -19 b 933 329 777 -19 933 136 z "},"Ǚ":{"ha":1067,"x_min":0,"x_max":0,"o":"m 468 1301 l 598 1301 l 809 1541 l 664 1541 l 533 1381 l 402 1541 l 257 1541 z m 312 1163 b 385 1089 312 1122 345 1089 b 458 1163 426 1089 458 1122 b 385 1236 458 1203 426 1236 b 312 1163 345 1236 312 1203 z m 608 1163 b 681 1089 608 1122 640 1089 b 754 1163 721 1089 754 1122 b 681 1236 754 1203 721 1236 b 608 1163 640 1236 608 1203 z m 932 972 l 801 972 l 801 329 b 536 97 801 191 701 97 b 272 329 374 97 272 192 l 272 972 l 141 972 l 141 329 b 536 -19 141 136 298 -19 b 932 329 777 -19 932 136 z "},"Ǜ":{"ha":1067,"x_min":0,"x_max":0,"o":"m 598 1301 l 421 1541 l 275 1541 l 469 1301 z m 385 1236 b 312 1163 345 1236 312 1203 b 385 1089 312 1122 345 1089 b 458 1163 426 1089 458 1122 b 385 1236 458 1203 426 1236 z m 681 1236 b 608 1163 640 1236 608 1203 b 681 1089 608 1122 640 1089 b 754 1163 721 1089 754 1122 b 681 1236 754 1203 721 1236 z m 933 972 l 801 972 l 801 329 b 537 97 801 191 701 97 b 272 329 374 97 272 192 l 272 972 l 141 972 l 141 329 b 537 -19 141 136 298 -19 b 933 329 777 -19 933 136 z "},"Ǖ":{"ha":1067,"x_min":0,"x_max":0,"o":"m 761 1341 l 761 1454 l 305 1454 l 305 1341 z m 385 1236 b 312 1163 345 1236 312 1203 b 385 1089 312 1122 345 1089 b 458 1163 426 1089 458 1122 b 385 1236 458 1203 426 1236 z m 681 1236 b 608 1163 640 1236 608 1203 b 681 1089 608 1122 640 1089 b 754 1163 721 1089 754 1122 b 681 1236 754 1203 721 1236 z m 933 972 l 801 972 l 801 329 b 537 97 801 191 701 97 b 272 329 374 97 272 192 l 272 972 l 141 972 l 141 329 b 537 -19 141 136 298 -19 b 933 329 777 -19 933 136 z "},"Ụ":{"ha":1067,"x_min":0,"x_max":0,"o":"m 933 972 l 801 972 l 801 329 b 537 97 801 191 701 97 b 272 329 374 97 272 192 l 272 972 l 141 972 l 141 329 b 537 -19 141 136 298 -19 b 933 329 777 -19 933 136 z m 537 -101 b 463 -174 496 -101 463 -134 b 537 -248 463 -215 496 -248 b 610 -174 577 -248 610 -215 b 537 -101 610 -134 577 -101 z "},"Ù":{"ha":1067,"x_min":0,"x_max":0,"o":"m 598 1062 l 421 1301 l 275 1301 l 469 1062 z m 933 972 l 801 972 l 801 329 b 537 97 801 191 701 97 b 272 329 374 97 272 192 l 272 972 l 141 972 l 141 329 b 537 -19 141 136 298 -19 b 933 329 777 -19 933 136 z "},"Ủ":{"ha":1067,"x_min":0,"x_max":0,"o":"m 581 1382 b 440 1354 534 1382 486 1374 l 483 1269 b 580 1286 511 1278 549 1286 b 640 1250 620 1286 640 1276 b 580 1192 640 1234 635 1219 b 472 1054 531 1168 474 1139 l 575 1054 b 625 1102 578 1078 593 1086 b 743 1244 709 1146 743 1168 b 581 1382 743 1356 670 1382 z m 933 972 l 801 972 l 801 329 b 537 97 801 191 701 97 b 272 329 374 97 272 192 l 272 972 l 141 972 l 141 329 b 537 -19 141 136 298 -19 b 933 329 777 -19 933 136 z "},"Ư":{"ha":1067,"x_min":0,"x_max":0,"o":"m 991 1102 b 969 987 1003 1047 995 1008 b 921 972 957 978 941 973 l 827 972 l 801 972 l 801 329 b 537 97 801 191 701 97 b 272 329 374 97 272 192 l 272 972 l 141 972 l 141 329 b 537 -19 141 136 298 -19 b 933 329 777 -19 933 136 l 933 896 b 1051 923 980 891 1021 901 b 1098 1134 1103 961 1124 1034 z "},"Ứ":{"ha":1067,"x_min":0,"x_max":0,"o":"m 594 1061 l 787 1300 l 641 1300 l 464 1061 z m 991 1102 b 969 987 1004 1047 995 1008 b 921 972 957 978 941 973 l 827 972 l 801 972 l 801 329 b 537 97 801 191 701 97 b 272 329 374 97 272 192 l 272 972 l 141 972 l 141 329 b 537 -19 141 136 298 -19 b 933 329 777 -19 933 136 l 933 896 b 1051 923 980 891 1021 901 b 1098 1134 1103 961 1124 1034 z "},"Ự":{"ha":1067,"x_min":0,"x_max":0,"o":"m 991 1102 b 969 987 1003 1047 995 1008 b 921 972 957 978 941 973 l 827 972 l 801 972 l 801 329 b 536 97 801 191 701 97 b 272 329 374 97 272 192 l 272 972 l 141 972 l 141 329 b 536 -19 141 136 298 -19 b 932 329 777 -19 932 136 l 932 896 b 1051 923 980 891 1021 901 b 1098 1134 1103 961 1124 1034 z m 536 -101 b 463 -174 496 -101 463 -134 b 536 -247 463 -215 496 -247 b 610 -174 577 -247 610 -215 b 536 -101 610 -134 577 -101 z "},"Ừ":{"ha":1067,"x_min":0,"x_max":0,"o":"m 469 1062 l 598 1062 l 421 1301 l 275 1301 z m 991 1102 b 969 987 1003 1047 995 1008 b 921 972 957 978 941 973 l 827 972 l 801 972 l 801 329 b 536 97 801 191 701 97 b 272 329 374 97 272 192 l 272 972 l 141 972 l 141 329 b 536 -19 141 136 298 -19 b 932 329 777 -19 932 136 l 932 896 b 1051 923 980 891 1021 901 b 1098 1134 1103 961 1124 1034 z "},"Ử":{"ha":1067,"x_min":0,"x_max":0,"o":"m 580 1286 b 640 1250 620 1286 640 1276 b 580 1192 640 1234 635 1219 b 472 1054 531 1168 474 1139 l 575 1054 b 625 1102 578 1078 593 1086 b 743 1244 709 1146 743 1168 b 581 1382 743 1356 670 1382 b 440 1354 534 1382 486 1374 l 483 1269 b 580 1286 511 1278 549 1286 z m 991 1102 b 969 987 1004 1047 995 1008 b 921 972 957 978 941 973 l 827 972 l 801 972 l 801 329 b 537 97 801 191 701 97 b 272 329 374 97 272 192 l 272 972 l 140 972 l 140 329 b 537 -19 140 136 298 -19 b 933 329 777 -19 933 136 l 933 896 b 1051 923 980 891 1021 901 b 1098 1134 1103 961 1124 1034 z "},"Ữ":{"ha":1067,"x_min":0,"x_max":0,"o":"m 430 1167 b 500 1134 452 1167 476 1151 b 633 1079 535 1109 573 1079 b 809 1217 715 1080 754 1137 l 732 1275 b 636 1189 693 1215 664 1189 b 569 1221 616 1189 594 1203 b 435 1278 534 1246 487 1278 b 257 1139 346 1278 292 1190 l 334 1081 b 430 1167 372 1139 401 1167 z m 991 1102 b 969 987 1004 1047 995 1008 b 921 972 957 978 941 973 l 827 972 l 801 972 l 801 329 b 537 97 801 191 701 97 b 272 329 374 97 272 192 l 272 972 l 141 972 l 141 329 b 537 -19 141 136 298 -19 b 933 329 777 -19 933 136 l 933 896 b 1051 923 980 891 1021 901 b 1099 1134 1103 961 1124 1034 z "},"Ű":{"ha":1067,"x_min":0,"x_max":0,"o":"m 461 1062 l 655 1301 l 509 1301 l 332 1062 z m 737 1062 l 931 1301 l 785 1301 l 608 1062 z m 933 972 l 801 972 l 801 329 b 537 97 801 191 701 97 b 272 329 374 97 272 192 l 272 972 l 141 972 l 141 329 b 537 -19 141 136 298 -19 b 933 329 777 -19 933 136 z "},"Ū":{"ha":1067,"x_min":0,"x_max":0,"o":"m 761 1096 l 761 1210 l 305 1210 l 305 1096 z m 933 972 l 801 972 l 801 329 b 537 97 801 191 701 97 b 272 329 374 97 272 192 l 272 972 l 141 972 l 141 329 b 537 -19 141 136 298 -19 b 933 329 777 -19 933 136 z "},"Ų":{"ha":1067,"x_min":0,"x_max":0,"o":"m 749 30 b 932 329 864 90 932 202 l 932 972 l 801 972 l 801 329 b 536 97 801 191 701 97 b 272 329 374 97 272 192 l 272 972 l 140 972 l 140 329 b 536 -19 140 136 298 -19 b 600 -16 559 -19 580 -18 b 539 -143 564 -52 539 -95 b 711 -278 539 -231 622 -278 b 849 -240 758 -278 811 -265 l 821 -161 b 743 -178 796 -174 765 -179 b 655 -106 694 -179 656 -158 b 749 30 656 -46 704 -2 z "},"Ů":{"ha":1067,"x_min":0,"x_max":0,"o":"m 533 1383 b 349 1206 422 1384 349 1305 b 533 1029 349 1108 422 1029 b 717 1206 645 1029 717 1108 b 533 1383 717 1304 645 1383 z m 532 1299 b 619 1206 583 1299 619 1263 b 533 1113 619 1149 583 1113 b 447 1206 484 1113 447 1149 b 532 1299 447 1264 484 1300 z m 933 972 l 801 972 l 801 329 b 537 97 801 191 701 97 b 272 329 374 97 272 192 l 272 972 l 141 972 l 141 329 b 537 -19 141 136 298 -19 b 933 329 777 -19 933 136 z "},"Ũ":{"ha":1067,"x_min":0,"x_max":0,"o":"m 435 1278 b 257 1139 346 1278 292 1190 l 334 1081 b 430 1167 372 1139 401 1167 b 500 1134 452 1167 476 1151 b 633 1079 535 1109 573 1079 b 809 1217 715 1080 754 1137 l 732 1275 b 636 1189 693 1215 664 1189 b 569 1221 616 1189 594 1203 b 435 1278 534 1246 487 1278 z m 933 972 l 801 972 l 801 329 b 537 97 801 191 701 97 b 272 329 374 97 272 192 l 272 972 l 141 972 l 141 329 b 537 -19 141 136 298 -19 b 933 329 777 -19 933 136 z "},"V":{"ha":958,"x_min":0,"x_max":0,"o":"m 557 0 l 915 972 l 773 972 l 479 151 l 184 972 l 43 972 l 401 0 z "},"W":{"ha":1411,"x_min":0,"x_max":0,"o":"m 1118 0 l 1368 972 l 1227 972 l 1027 165 l 803 972 l 608 972 l 385 165 l 184 972 l 43 972 l 294 0 l 467 0 l 706 837 l 945 0 z "},"Ẃ":{"ha":1411,"x_min":0,"x_max":0,"o":"m 767 1061 l 960 1300 l 815 1300 l 637 1061 z m 1118 0 l 1368 972 l 1227 972 l 1027 165 l 803 972 l 608 972 l 385 165 l 184 972 l 43 972 l 294 0 l 467 0 l 706 837 l 945 0 z "},"Ŵ":{"ha":1411,"x_min":0,"x_max":0,"o":"m 575 1062 l 706 1222 l 837 1062 l 983 1062 l 771 1301 l 641 1301 l 430 1062 z m 1368 972 l 1227 972 l 1027 165 l 803 972 l 608 972 l 385 165 l 184 972 l 43 972 l 294 0 l 467 0 l 706 837 l 945 0 l 1118 0 z "},"Ẅ":{"ha":1411,"x_min":0,"x_max":0,"o":"m 558 1236 b 485 1163 518 1236 485 1203 b 558 1089 485 1122 518 1089 b 632 1163 599 1089 632 1122 b 558 1236 632 1203 599 1236 z m 854 1236 b 781 1163 814 1236 781 1203 b 854 1089 781 1122 814 1089 b 927 1163 895 1089 927 1122 b 854 1236 927 1203 895 1236 z m 1118 0 l 1368 972 l 1227 972 l 1027 165 l 803 972 l 608 972 l 385 165 l 184 972 l 43 972 l 294 0 l 467 0 l 706 837 l 945 0 z "},"Ẁ":{"ha":1411,"x_min":0,"x_max":0,"o":"m 772 1062 l 594 1301 l 448 1301 l 642 1062 z m 1118 0 l 1368 972 l 1227 972 l 1027 165 l 803 972 l 608 972 l 385 165 l 184 972 l 43 972 l 294 0 l 467 0 l 706 837 l 945 0 z "},"X":{"ha":979,"x_min":0,"x_max":0,"o":"m 575 490 l 919 972 l 762 972 l 498 595 l 220 972 l 60 972 l 404 504 l 43 0 l 200 0 l 481 399 l 775 0 l 935 0 z "},"Y":{"ha":968,"x_min":0,"x_max":0,"o":"m 546 340 l 925 972 l 768 972 l 483 478 l 200 972 l 43 972 l 414 339 l 414 0 l 546 0 z "},"Ý":{"ha":968,"x_min":0,"x_max":0,"o":"m 545 1061 l 739 1300 l 593 1300 l 416 1061 z m 546 340 l 925 972 l 768 972 l 483 478 l 200 972 l 43 972 l 414 339 l 414 0 l 546 0 z "},"Ŷ":{"ha":968,"x_min":0,"x_max":0,"o":"m 354 1062 l 485 1222 l 616 1062 l 761 1062 l 550 1301 l 420 1301 l 208 1062 z m 546 340 l 925 972 l 768 972 l 483 478 l 200 972 l 43 972 l 414 339 l 414 0 l 546 0 z "},"Ÿ":{"ha":968,"x_min":0,"x_max":0,"o":"m 337 1089 b 410 1163 377 1089 410 1122 b 337 1236 410 1203 377 1236 b 264 1163 296 1236 264 1203 b 337 1089 264 1122 296 1089 z m 632 1089 b 706 1163 673 1089 706 1122 b 632 1236 706 1203 673 1236 b 559 1163 592 1236 559 1203 b 632 1089 559 1122 592 1089 z m 546 340 l 925 972 l 768 972 l 483 478 l 200 972 l 43 972 l 414 339 l 414 0 l 546 0 z "},"Ỵ":{"ha":968,"x_min":0,"x_max":0,"o":"m 414 339 l 414 0 l 546 0 l 546 340 l 925 972 l 768 972 l 483 478 l 200 972 l 43 972 z m 485 -101 b 412 -174 445 -101 412 -134 b 485 -247 412 -215 445 -247 b 558 -174 526 -247 558 -215 b 485 -101 558 -134 526 -101 z "},"Ỳ":{"ha":968,"x_min":0,"x_max":0,"o":"m 420 1062 l 550 1062 l 372 1301 l 227 1301 z m 546 340 l 925 972 l 768 972 l 483 478 l 200 972 l 43 972 l 414 339 l 414 0 l 546 0 z "},"Ỷ":{"ha":968,"x_min":0,"x_max":0,"o":"m 519 1286 b 579 1250 558 1286 578 1276 b 519 1192 579 1234 574 1219 b 410 1054 469 1168 413 1139 l 514 1054 b 563 1102 517 1078 531 1086 b 682 1244 648 1146 682 1168 b 520 1382 682 1356 609 1382 b 379 1354 472 1382 424 1374 l 421 1269 b 519 1286 449 1278 488 1286 z m 546 340 l 925 972 l 768 972 l 483 478 l 200 972 l 43 972 l 414 339 l 414 0 l 546 0 z "},"Ỹ":{"ha":968,"x_min":0,"x_max":0,"o":"m 381 1167 b 451 1134 403 1167 427 1151 b 585 1079 486 1109 525 1079 b 761 1217 667 1080 706 1137 l 684 1275 b 588 1189 645 1215 615 1189 b 520 1221 567 1189 546 1203 b 386 1278 486 1246 439 1278 b 208 1139 297 1278 244 1190 l 286 1081 b 381 1167 324 1139 353 1167 z m 546 340 l 925 972 l 768 972 l 483 478 l 200 972 l 43 972 l 414 339 l 414 0 l 546 0 z "},"Z":{"ha":871,"x_min":0,"x_max":0,"o":"m 801 111 l 239 111 l 787 885 l 787 972 l 104 972 l 104 861 l 618 861 l 70 87 l 70 0 l 801 0 z "},"Ź":{"ha":871,"x_min":0,"x_max":0,"o":"m 497 1061 l 691 1300 l 545 1300 l 367 1061 z m 801 111 l 239 111 l 787 885 l 787 972 l 104 972 l 104 861 l 618 861 l 70 87 l 70 0 l 801 0 z "},"Ž":{"ha":871,"x_min":0,"x_max":0,"o":"m 372 1062 l 501 1062 l 713 1301 l 567 1301 l 437 1141 l 306 1301 l 160 1301 z m 801 111 l 239 111 l 787 885 l 787 972 l 104 972 l 104 861 l 618 861 l 70 87 l 70 0 l 801 0 z "},"Ż":{"ha":871,"x_min":0,"x_max":0,"o":"m 436 1089 b 510 1163 477 1089 510 1122 b 436 1236 510 1203 477 1236 b 363 1163 396 1236 363 1203 b 436 1089 363 1122 396 1089 z m 801 111 l 239 111 l 787 885 l 787 972 l 104 972 l 104 861 l 618 861 l 70 87 l 70 0 l 801 0 z "},"a":{"ha":842,"x_min":0,"x_max":0,"o":"m 735 694 l 616 694 l 616 606 b 379 714 544 681 458 714 b 78 347 203 714 78 553 b 378 -19 78 141 203 -19 b 616 88 458 -19 544 13 l 616 0 l 735 0 z m 388 93 b 203 347 272 93 203 193 b 388 602 203 502 271 602 b 616 494 458 602 548 565 l 616 201 b 388 93 548 130 459 93 z "},"á":{"ha":842,"x_min":0,"x_max":0,"o":"m 495 783 l 689 1023 l 543 1023 l 366 783 z m 735 694 l 616 694 l 616 606 b 379 714 544 681 458 714 b 78 347 203 714 78 553 b 378 -19 78 141 203 -19 b 616 88 458 -19 544 13 l 616 0 l 735 0 z m 388 93 b 203 347 272 93 203 193 b 388 602 203 502 271 602 b 616 494 458 602 548 565 l 616 201 b 388 93 548 130 459 93 z "},"ă":{"ha":842,"x_min":0,"x_max":0,"o":"m 435 793 b 692 1019 591 793 692 894 l 575 1019 b 435 899 575 946 516 899 b 295 1019 355 899 295 946 l 178 1019 b 435 793 178 894 280 793 z m 735 694 l 616 694 l 616 606 b 379 714 544 681 458 714 b 78 347 203 714 78 553 b 378 -19 78 141 203 -19 b 616 88 458 -19 544 13 l 616 0 l 735 0 z m 388 93 b 203 347 272 93 203 193 b 388 602 203 502 271 602 b 616 494 458 602 548 565 l 616 201 b 388 93 548 130 459 93 z "},"ắ":{"ha":842,"x_min":0,"x_max":0,"o":"m 495 1023 l 689 1263 l 543 1263 l 366 1023 z m 435 793 b 692 1019 591 793 692 894 l 575 1019 b 435 899 575 946 516 899 b 295 1019 355 899 295 946 l 178 1019 b 435 793 178 894 280 793 z m 735 694 l 616 694 l 616 606 b 379 714 544 681 458 714 b 78 347 203 714 78 553 b 378 -19 78 141 203 -19 b 616 88 458 -19 544 13 l 616 0 l 735 0 z m 388 93 b 202 347 272 93 202 193 b 388 602 202 502 271 602 b 616 494 458 602 548 565 l 616 201 b 388 93 548 130 459 93 z "},"ặ":{"ha":842,"x_min":0,"x_max":0,"o":"m 435 793 b 692 1019 591 793 692 894 l 575 1019 b 435 899 575 946 516 899 b 295 1019 355 899 295 946 l 178 1019 b 435 793 178 894 280 793 z m 735 694 l 616 694 l 616 606 b 379 714 544 681 458 714 b 78 347 203 714 78 553 b 378 -19 78 141 203 -19 b 616 88 458 -19 544 13 l 616 0 l 735 0 z m 388 93 b 203 347 272 93 203 193 b 388 602 203 502 271 602 b 616 494 458 602 548 565 l 616 201 b 388 93 548 130 459 93 z m 434 -101 b 361 -174 394 -101 361 -134 b 434 -247 361 -215 394 -247 b 508 -174 475 -247 508 -215 b 434 -101 508 -134 475 -101 z "},"ằ":{"ha":842,"x_min":0,"x_max":0,"o":"m 371 1023 l 500 1023 l 323 1263 l 177 1263 z m 178 1019 b 435 793 178 894 280 793 b 692 1019 591 793 692 894 l 575 1019 b 435 899 575 946 516 899 b 295 1019 355 899 295 946 z m 735 694 l 616 694 l 616 606 b 379 714 544 681 458 714 b 78 347 203 714 78 553 b 378 -19 78 141 203 -19 b 616 88 458 -19 544 13 l 616 0 l 735 0 z m 388 93 b 203 347 272 93 203 193 b 388 602 203 502 271 602 b 616 494 458 602 548 565 l 616 201 b 388 93 548 130 459 93 z "},"ẳ":{"ha":842,"x_min":0,"x_max":0,"o":"m 467 1224 b 527 1188 507 1224 527 1214 b 467 1130 528 1172 522 1157 b 359 991 418 1106 361 1076 l 463 991 b 512 1040 465 1016 480 1024 b 631 1181 596 1083 631 1106 b 468 1320 631 1293 557 1320 b 328 1292 421 1320 373 1312 l 370 1207 b 467 1224 398 1216 436 1224 z m 435 793 b 692 1019 591 793 692 894 l 575 1019 b 435 899 575 946 516 899 b 295 1019 355 899 295 946 l 178 1019 b 435 793 178 894 280 793 z m 735 694 l 616 694 l 616 606 b 379 714 544 681 458 714 b 78 347 203 714 78 553 b 378 -19 78 141 203 -19 b 616 88 458 -19 544 13 l 616 0 l 735 0 z m 388 93 b 203 347 272 93 203 193 b 388 602 203 502 271 602 b 616 494 458 602 548 565 l 616 201 b 388 93 548 130 459 93 z "},"ẵ":{"ha":842,"x_min":0,"x_max":0,"o":"m 332 1128 b 402 1095 353 1128 378 1112 b 535 1040 436 1070 475 1040 b 711 1178 617 1041 656 1098 l 634 1236 b 538 1150 595 1176 566 1150 b 471 1183 518 1150 496 1164 b 337 1239 436 1208 389 1239 b 159 1100 248 1239 194 1151 l 236 1042 b 332 1128 274 1100 303 1128 z m 435 899 b 295 1019 355 899 295 946 l 178 1019 b 435 793 178 894 280 793 b 692 1019 591 793 692 894 l 575 1019 b 435 899 575 946 516 899 z m 735 694 l 616 694 l 616 606 b 379 714 544 681 458 714 b 78 347 203 714 78 553 b 379 -19 78 141 203 -19 b 616 88 458 -19 544 13 l 616 0 l 735 0 z m 388 93 b 203 347 272 93 203 193 b 388 602 203 502 272 602 b 616 494 458 602 548 565 l 616 201 b 388 93 548 130 459 93 z "},"ǎ":{"ha":842,"x_min":0,"x_max":0,"o":"m 370 784 l 500 784 l 711 1024 l 566 1024 l 435 863 l 304 1024 l 159 1024 z m 735 694 l 616 694 l 616 606 b 379 714 544 681 458 714 b 78 347 203 714 78 553 b 378 -19 78 141 203 -19 b 616 88 458 -19 544 13 l 616 0 l 735 0 z m 388 93 b 202 347 272 93 202 193 b 388 602 202 502 271 602 b 616 494 458 602 548 565 l 616 201 b 388 93 548 130 459 93 z "},"â":{"ha":842,"x_min":0,"x_max":0,"o":"m 304 784 l 435 944 l 566 784 l 711 784 l 500 1024 l 370 1024 l 159 784 z m 735 694 l 616 694 l 616 606 b 379 714 544 681 458 714 b 78 347 203 714 78 553 b 379 -19 78 141 203 -19 b 616 88 458 -19 544 13 l 616 0 l 735 0 z m 388 93 b 203 347 272 93 203 193 b 388 602 203 502 272 602 b 616 494 458 602 548 565 l 616 201 b 388 93 548 130 459 93 z "},"ấ":{"ha":842,"x_min":0,"x_max":0,"o":"m 1018 1108 l 873 1108 l 695 868 l 825 868 z m 304 784 l 435 944 l 566 784 l 711 784 l 500 1024 l 370 1024 l 159 784 z m 616 694 l 616 606 b 379 714 544 681 458 714 b 78 347 203 714 78 553 b 379 -19 78 141 203 -19 b 616 88 458 -19 544 13 l 616 0 l 735 0 l 735 694 z m 388 93 b 203 347 272 93 203 193 b 388 602 203 502 272 602 b 616 494 458 602 548 565 l 616 201 b 388 93 548 130 459 93 z "},"ậ":{"ha":842,"x_min":0,"x_max":0,"o":"m 304 784 l 435 944 l 566 784 l 711 784 l 500 1024 l 370 1024 l 159 784 z m 735 694 l 616 694 l 616 606 b 379 714 544 681 458 714 b 78 347 203 714 78 553 b 379 -19 78 141 203 -19 b 616 88 458 -19 544 13 l 616 0 l 735 0 z m 388 93 b 203 347 272 93 203 193 b 388 602 203 502 272 602 b 616 494 458 602 548 565 l 616 201 b 388 93 548 130 459 93 z m 435 -101 b 361 -174 394 -101 361 -134 b 435 -247 361 -215 394 -247 b 508 -174 475 -247 508 -215 b 435 -101 508 -134 475 -101 z "},"ầ":{"ha":842,"x_min":0,"x_max":0,"o":"m 882 868 l 704 1108 l 558 1108 l 752 868 z m 304 784 l 435 944 l 566 784 l 711 784 l 500 1024 l 370 1024 l 159 784 z m 616 694 l 616 606 b 379 714 544 681 458 714 b 78 347 203 714 78 553 b 379 -19 78 141 203 -19 b 616 88 458 -19 544 13 l 616 0 l 735 0 l 735 694 z m 388 93 b 203 347 272 93 203 193 b 388 602 203 502 272 602 b 616 494 458 602 548 565 l 616 201 b 388 93 548 130 459 93 z "},"ẩ":{"ha":842,"x_min":0,"x_max":0,"o":"m 814 1160 b 673 1133 767 1160 719 1152 l 716 1047 b 813 1065 744 1056 782 1064 b 873 1029 852 1065 873 1054 b 813 970 873 1012 868 997 b 705 832 764 946 707 917 l 808 832 b 857 880 811 856 826 864 b 976 1022 942 924 976 946 b 814 1160 976 1134 903 1160 z m 304 784 l 435 944 l 566 784 l 711 784 l 500 1024 l 370 1024 l 159 784 z m 616 694 l 616 606 b 379 714 544 681 458 714 b 78 347 203 714 78 553 b 378 -19 78 141 203 -19 b 616 88 458 -19 544 13 l 616 0 l 735 0 l 735 694 z m 388 93 b 203 347 272 93 203 193 b 388 602 203 502 272 602 b 616 494 458 602 548 565 l 616 201 b 388 93 548 130 459 93 z "},"ẫ":{"ha":842,"x_min":0,"x_max":0,"o":"m 332 1138 b 402 1106 353 1139 378 1123 b 535 1050 436 1081 475 1050 b 711 1188 617 1052 656 1109 l 634 1246 b 538 1160 595 1186 566 1160 b 471 1193 518 1160 496 1174 b 337 1250 436 1218 389 1250 b 159 1111 248 1250 194 1162 l 236 1052 b 332 1138 274 1110 303 1139 z m 500 1024 l 370 1024 l 159 784 l 304 784 l 435 944 l 566 784 l 711 784 z m 735 694 l 616 694 l 616 606 b 379 714 544 681 458 714 b 78 347 203 714 78 553 b 379 -19 78 141 203 -19 b 616 88 458 -19 544 13 l 616 0 l 735 0 z m 388 93 b 203 347 272 93 203 193 b 388 602 203 502 272 602 b 616 494 458 602 548 565 l 616 201 b 388 93 548 130 459 93 z "},"ä":{"ha":842,"x_min":0,"x_max":0,"o":"m 287 811 b 360 885 328 811 360 844 b 287 958 360 925 328 958 b 214 885 247 958 214 925 b 287 811 214 844 247 811 z m 583 811 b 656 885 623 811 656 844 b 583 958 656 925 623 958 b 510 885 542 958 510 925 b 583 811 510 844 542 811 z m 735 694 l 616 694 l 616 606 b 379 714 544 681 458 714 b 78 347 203 714 78 553 b 378 -19 78 141 203 -19 b 616 88 458 -19 544 13 l 616 0 l 735 0 z m 388 93 b 203 347 272 93 203 193 b 388 602 203 502 271 602 b 616 494 458 602 548 565 l 616 201 b 388 93 548 130 459 93 z "},"ạ":{"ha":842,"x_min":0,"x_max":0,"o":"m 735 694 l 616 694 l 616 606 b 379 714 544 681 458 714 b 78 347 203 714 78 553 b 378 -19 78 141 203 -19 b 616 88 458 -19 544 13 l 616 0 l 735 0 z m 388 93 b 203 347 272 93 203 193 b 388 602 203 502 271 602 b 616 494 458 602 548 565 l 616 201 b 388 93 548 130 459 93 z m 435 -101 b 361 -174 394 -101 361 -134 b 435 -247 361 -215 394 -247 b 508 -174 475 -247 508 -215 b 435 -101 508 -134 475 -101 z "},"à":{"ha":842,"x_min":0,"x_max":0,"o":"m 371 784 l 500 784 l 323 1024 l 177 1024 z m 735 694 l 616 694 l 616 606 b 379 714 544 681 458 714 b 78 347 203 714 78 553 b 378 -19 78 141 203 -19 b 616 88 458 -19 544 13 l 616 0 l 735 0 z m 388 93 b 203 347 272 93 203 193 b 388 602 203 502 271 602 b 616 494 458 602 548 565 l 616 201 b 388 93 548 130 459 93 z "},"ả":{"ha":842,"x_min":0,"x_max":0,"o":"m 467 1040 b 527 1005 507 1041 527 1030 b 467 946 528 988 522 973 b 359 808 418 922 361 893 l 463 808 b 512 856 465 832 480 840 b 631 998 596 900 631 922 b 468 1136 631 1110 557 1136 b 328 1108 421 1136 373 1128 l 370 1023 b 467 1040 398 1032 436 1040 z m 735 694 l 616 694 l 616 606 b 379 714 544 681 458 714 b 78 347 203 714 78 553 b 378 -19 78 141 203 -19 b 616 88 458 -19 544 13 l 616 0 l 735 0 z m 388 93 b 203 347 272 93 203 193 b 388 602 203 502 272 602 b 616 494 458 602 548 565 l 616 201 b 388 93 548 130 459 93 z "},"ā":{"ha":842,"x_min":0,"x_max":0,"o":"m 663 818 l 663 932 l 207 932 l 207 818 z m 735 694 l 616 694 l 616 606 b 379 714 544 681 458 714 b 78 347 203 714 78 553 b 378 -19 78 141 203 -19 b 616 88 458 -19 544 13 l 616 0 l 735 0 z m 388 93 b 203 347 272 93 203 193 b 388 602 203 502 271 602 b 616 494 458 602 548 565 l 616 201 b 388 93 548 130 459 93 z "},"ą":{"ha":842,"x_min":0,"x_max":0,"o":"m 786 -187 b 709 -204 761 -199 731 -204 b 621 -131 659 -204 621 -184 b 708 0 621 -74 665 -31 l 735 0 l 735 694 l 616 694 l 616 606 b 379 714 544 681 458 714 b 78 347 203 714 78 553 b 379 -20 78 141 203 -20 b 616 88 458 -20 544 13 l 616 0 b 504 -168 554 -42 505 -100 b 676 -304 505 -256 588 -303 b 815 -266 723 -303 777 -291 z m 388 93 b 203 347 272 93 203 193 b 388 602 203 501 272 602 b 616 494 458 602 548 565 l 616 200 b 388 93 548 129 459 93 z "},"å":{"ha":842,"x_min":0,"x_max":0,"o":"m 435 751 b 619 928 546 751 619 830 b 435 1105 619 1026 546 1105 b 251 928 324 1106 251 1027 b 435 751 251 830 324 751 z m 434 1021 b 521 928 485 1021 521 985 b 435 835 521 871 485 835 b 349 928 386 835 349 871 b 434 1021 349 986 386 1022 z m 735 694 l 616 694 l 616 606 b 379 714 544 681 458 714 b 78 347 203 714 78 553 b 378 -19 78 141 203 -19 b 616 88 458 -19 544 13 l 616 0 l 735 0 z m 388 93 b 203 347 272 93 203 193 b 388 602 203 502 271 602 b 616 494 458 602 548 565 l 616 201 b 388 93 548 130 459 93 z "},"ã":{"ha":842,"x_min":0,"x_max":0,"o":"m 332 889 b 402 856 353 889 378 874 b 535 801 436 831 475 801 b 711 939 617 802 656 859 l 634 997 b 538 911 595 937 566 911 b 471 944 518 911 496 925 b 337 1000 436 969 389 1000 b 159 862 248 1000 194 913 l 236 803 b 332 889 274 861 303 889 z m 735 694 l 616 694 l 616 606 b 379 714 544 681 458 714 b 78 347 203 714 78 553 b 379 -19 78 141 203 -19 b 616 88 458 -19 544 13 l 616 0 l 735 0 z m 388 93 b 203 347 272 93 203 193 b 388 602 203 502 272 602 b 616 494 458 602 548 565 l 616 201 b 388 93 548 130 459 93 z "},"æ":{"ha":1299,"x_min":0,"x_max":0,"o":"m 382 714 b 76 347 197 714 76 551 b 382 -19 76 143 197 -19 b 654 94 472 -19 572 20 b 904 -19 713 24 799 -19 b 1165 75 988 -19 1084 13 l 1135 157 b 907 93 1057 114 981 93 b 696 296 791 93 713 175 b 693 318 695 303 694 311 l 1226 318 b 1227 348 1227 328 1227 338 b 904 714 1226 551 1121 714 b 654 600 799 715 713 671 b 382 714 571 675 472 714 z m 907 602 b 1102 416 1025 602 1086 528 l 698 416 b 907 602 719 527 795 602 z m 388 602 b 602 515 455 602 536 570 b 568 347 580 465 568 408 b 602 180 568 287 580 230 b 387 93 534 123 451 93 b 200 347 270 93 200 192 b 388 602 200 502 270 602 z "},"b":{"ha":858,"x_min":0,"x_max":0,"o":"m 471 714 b 232 604 386 714 302 677 l 232 972 l 114 972 l 114 0 l 232 0 l 232 90 b 472 -19 302 18 386 -19 b 772 347 648 -19 772 141 b 471 714 772 553 648 714 z m 462 93 b 232 203 394 93 304 127 l 232 492 b 462 602 304 567 394 602 b 649 347 580 602 649 498 b 462 93 649 196 579 93 z "},"c":{"ha":778,"x_min":0,"x_max":0,"o":"m 431 714 b 86 347 226 715 86 557 b 429 -19 86 144 225 -19 b 693 75 522 -19 615 15 l 663 157 b 437 93 586 114 502 93 b 210 347 293 93 210 199 b 432 602 208 499 293 602 b 663 537 506 602 585 580 l 693 619 b 431 714 612 681 516 714 z "},"ć":{"ha":778,"x_min":0,"x_max":0,"o":"m 475 783 l 669 1023 l 523 1023 l 346 783 z m 431 714 b 86 347 226 715 86 557 b 429 -19 86 144 225 -19 b 693 75 522 -19 615 15 l 663 157 b 437 93 586 114 502 93 b 210 347 293 93 210 199 b 432 602 209 499 293 602 b 663 537 506 602 585 580 l 693 619 b 431 714 612 681 516 714 z "},"č":{"ha":778,"x_min":0,"x_max":0,"o":"m 350 784 l 480 784 l 691 1024 l 546 1024 l 415 863 l 284 1024 l 138 1024 z m 437 93 b 210 347 293 93 210 199 b 432 602 208 499 293 602 b 663 537 506 602 585 580 l 693 619 b 431 714 612 681 516 714 b 86 347 226 715 86 557 b 429 -19 86 144 225 -19 b 693 75 522 -19 615 15 l 663 157 b 437 93 586 114 502 93 z "},"ç":{"ha":778,"x_min":0,"x_max":0,"o":"m 663 157 b 437 93 586 114 502 93 b 210 347 293 93 210 199 b 432 602 209 499 293 602 b 663 537 506 602 585 580 l 693 619 b 431 714 612 681 516 714 b 86 347 226 715 86 557 b 343 -9 86 174 187 30 l 297 -106 l 321 -155 b 396 -141 340 -147 379 -141 b 458 -197 439 -141 457 -163 b 379 -255 457 -233 437 -255 b 237 -228 336 -255 281 -246 l 202 -305 b 391 -344 249 -329 331 -346 b 576 -196 504 -343 576 -279 b 436 -61 576 -121 520 -71 b 425 -61 433 -61 429 -61 l 438 -19 b 693 75 528 -17 617 17 z "},"ċ":{"ha":778,"x_min":0,"x_max":0,"o":"m 415 958 b 342 885 374 958 342 925 b 415 811 342 844 374 811 b 488 885 455 811 488 844 b 415 958 488 925 455 958 z m 431 714 b 86 347 226 715 86 557 b 429 -19 86 144 225 -19 b 693 75 522 -19 615 15 l 663 157 b 437 93 586 114 502 93 b 210 347 293 93 210 199 b 432 602 209 499 293 602 b 663 537 506 602 585 580 l 693 619 b 431 714 612 681 516 714 z "},"d":{"ha":857,"x_min":0,"x_max":0,"o":"m 744 972 l 625 972 l 625 604 b 391 714 556 677 468 714 b 85 347 208 715 85 553 b 385 -19 85 141 210 -19 b 625 90 465 -19 552 14 l 625 0 l 744 0 z m 396 93 b 209 347 277 93 208 196 b 392 602 208 498 279 602 b 625 492 468 602 556 564 l 625 203 b 396 93 557 130 466 93 z "},"ð":{"ha":904,"x_min":0,"x_max":0,"o":"m 786 916 l 731 1015 l 582 937 b 326 1010 510 984 424 1011 b 88 953 235 1011 158 990 l 131 860 b 326 898 190 884 256 898 b 459 872 374 898 419 889 l 331 804 l 387 705 l 564 799 b 673 562 618 741 657 661 b 422 667 604 631 524 667 b 84 339 195 666 84 525 b 444 -19 84 122 237 -19 b 806 434 698 -19 802 189 b 673 856 809 609 760 755 z m 682 436 b 440 93 678 223 605 93 b 209 341 304 93 208 182 b 418 554 208 475 277 554 b 682 452 512 554 602 520 b 682 436 682 447 682 442 z "},"ď":{"ha":857,"x_min":0,"x_max":0,"o":"m 1009 929 b 944 992 1003 968 977 992 b 881 929 909 992 881 964 b 927 868 881 898 903 875 b 862 746 917 815 895 778 l 905 718 b 1009 929 970 768 1020 863 z m 625 972 l 625 604 b 391 714 556 677 468 714 b 85 347 208 715 85 553 b 385 -19 85 141 210 -19 b 625 90 465 -19 552 14 l 625 0 l 744 0 l 744 972 z m 396 93 b 209 347 277 93 208 196 b 392 602 208 498 279 602 b 625 492 468 602 556 564 l 625 203 b 396 93 557 130 466 93 z "},"đ":{"ha":857,"x_min":0,"x_max":0,"o":"m 890 772 l 890 870 l 744 870 l 744 972 l 625 972 l 625 870 l 434 870 l 434 772 l 625 772 l 625 604 b 391 714 556 677 468 714 b 85 347 208 715 85 553 b 385 -19 85 141 210 -19 b 625 90 465 -19 552 14 l 625 0 l 744 0 l 744 772 z m 396 93 b 209 347 277 93 208 196 b 392 602 208 498 279 602 b 625 492 468 602 556 564 l 625 203 b 396 93 557 130 466 93 z "},"e":{"ha":817,"x_min":0,"x_max":0,"o":"m 421 714 b 86 347 219 715 86 551 b 421 -19 86 144 219 -19 b 683 75 506 -19 602 13 l 653 157 b 425 93 575 114 499 93 b 212 305 306 93 226 179 b 211 318 212 310 211 314 l 744 318 b 745 349 744 328 745 338 b 421 714 744 551 638 714 z m 425 602 b 620 416 543 602 604 528 l 216 416 b 425 602 237 527 313 602 z "},"é":{"ha":817,"x_min":0,"x_max":0,"o":"m 481 783 l 675 1023 l 529 1023 l 351 783 z m 421 714 b 86 347 219 715 86 551 b 421 -19 86 144 219 -19 b 683 75 506 -19 602 13 l 653 157 b 425 93 575 114 499 93 b 212 305 306 93 226 179 b 211 318 212 310 211 314 l 744 318 b 745 349 744 328 745 338 b 421 714 744 551 638 714 z m 425 602 b 620 416 543 602 604 528 l 216 416 b 425 602 237 527 313 602 z "},"ě":{"ha":817,"x_min":0,"x_max":0,"o":"m 356 784 l 485 784 l 697 1024 l 551 1024 l 420 863 l 290 1024 l 144 1024 z m 745 349 b 421 714 744 551 638 714 b 86 347 219 715 86 551 b 421 -19 86 144 219 -19 b 683 75 506 -19 602 13 l 653 157 b 425 93 575 114 499 93 b 212 305 306 93 226 179 b 211 318 212 310 211 314 l 744 318 b 745 349 744 328 745 338 z m 216 416 b 425 602 237 527 313 602 b 620 416 543 602 604 528 z "},"ê":{"ha":817,"x_min":0,"x_max":0,"o":"m 290 784 l 420 944 l 551 784 l 697 784 l 485 1024 l 356 1024 l 144 784 z m 745 349 b 421 714 744 551 638 714 b 86 347 219 715 86 551 b 421 -19 86 144 219 -19 b 683 75 506 -19 602 13 l 653 157 b 425 93 575 114 499 93 b 212 305 306 93 226 179 b 211 318 212 309 211 314 l 744 318 b 745 349 744 328 745 338 z m 216 416 b 425 602 237 527 313 602 b 620 416 543 602 604 528 z "},"ế":{"ha":817,"x_min":0,"x_max":0,"o":"m 1004 1108 l 858 1108 l 681 868 l 810 868 z m 290 784 l 420 944 l 551 784 l 697 784 l 485 1024 l 356 1024 l 144 784 z m 421 714 b 86 347 219 715 86 551 b 421 -19 86 144 219 -19 b 683 75 506 -19 602 13 l 653 157 b 425 93 575 114 499 93 b 212 305 306 93 226 179 b 211 318 212 309 211 314 l 744 318 b 745 349 744 328 745 338 b 421 714 744 551 638 714 z m 216 416 b 425 602 237 527 313 602 b 620 416 543 602 604 528 z "},"ệ":{"ha":817,"x_min":0,"x_max":0,"o":"m 290 784 l 420 944 l 551 784 l 697 784 l 485 1024 l 356 1024 l 144 784 z m 745 349 b 421 714 744 551 638 714 b 86 347 219 715 86 551 b 421 -19 86 144 219 -19 b 683 75 506 -19 602 13 l 653 157 b 425 93 575 114 499 93 b 212 305 306 93 226 179 b 211 318 212 309 211 314 l 744 318 b 745 349 744 328 745 338 z m 216 416 b 425 602 237 527 313 602 b 620 416 543 602 604 528 z m 421 -101 b 348 -174 381 -101 348 -134 b 421 -248 348 -215 381 -248 b 495 -174 462 -248 495 -215 b 421 -101 495 -134 462 -101 z "},"ề":{"ha":817,"x_min":0,"x_max":0,"o":"m 737 868 l 867 868 l 690 1108 l 544 1108 z m 290 784 l 420 944 l 551 784 l 697 784 l 485 1024 l 356 1024 l 144 784 z m 421 714 b 86 347 219 715 86 551 b 421 -19 86 144 219 -19 b 683 75 506 -19 602 13 l 653 157 b 425 93 575 114 499 93 b 212 305 306 93 226 179 b 211 318 212 310 211 314 l 744 318 b 745 349 744 328 745 338 b 421 714 744 551 638 714 z m 216 416 b 425 602 237 527 313 602 b 620 416 543 602 604 528 z "},"ể":{"ha":817,"x_min":0,"x_max":0,"o":"m 799 1160 b 659 1133 752 1160 704 1152 l 701 1047 b 798 1065 729 1056 767 1064 b 859 1029 838 1065 858 1054 b 798 970 859 1012 854 997 b 690 832 749 946 693 917 l 794 832 b 843 880 797 856 811 864 b 962 1022 928 924 962 946 b 799 1160 962 1134 889 1160 z m 290 784 l 420 944 l 551 784 l 697 784 l 485 1024 l 356 1024 l 144 784 z m 421 714 b 86 347 219 715 86 551 b 421 -19 86 144 219 -19 b 683 75 506 -19 602 13 l 653 157 b 425 93 575 114 499 93 b 212 305 306 93 226 179 b 211 318 212 310 211 314 l 744 318 b 745 349 744 328 745 338 b 421 714 744 551 638 714 z m 216 416 b 425 602 237 527 313 602 b 620 416 543 602 604 528 z "},"ễ":{"ha":817,"x_min":0,"x_max":0,"o":"m 317 1138 b 387 1106 339 1139 363 1123 b 521 1050 422 1081 461 1050 b 697 1188 603 1052 642 1109 l 620 1246 b 523 1160 581 1186 551 1160 b 456 1193 503 1160 482 1174 b 322 1250 422 1218 375 1250 b 144 1111 233 1250 180 1162 l 221 1052 b 317 1138 259 1110 289 1139 z m 485 1024 l 356 1024 l 144 784 l 290 784 l 420 944 l 551 784 l 697 784 z m 745 349 b 421 714 744 551 638 714 b 86 347 219 715 86 551 b 421 -19 86 144 219 -19 b 683 75 506 -19 602 13 l 653 157 b 425 93 575 114 499 93 b 212 305 306 93 226 179 b 211 318 212 310 211 314 l 744 318 b 745 349 744 328 745 338 z m 216 416 b 425 602 237 527 313 602 b 620 416 543 602 604 528 z "},"ë":{"ha":817,"x_min":0,"x_max":0,"o":"m 273 958 b 199 885 232 958 199 925 b 273 811 199 844 232 811 b 346 885 313 811 346 844 b 273 958 346 925 313 958 z m 568 958 b 495 885 528 958 495 925 b 568 811 495 844 528 811 b 642 885 609 811 642 844 b 568 958 642 925 609 958 z m 421 714 b 86 347 219 715 86 551 b 421 -19 86 144 219 -19 b 683 75 506 -19 602 13 l 653 157 b 425 93 575 114 499 93 b 212 305 306 93 226 179 b 211 318 212 310 211 314 l 744 318 b 745 349 744 328 745 338 b 421 714 744 551 638 714 z m 425 602 b 620 416 543 602 604 528 l 216 416 b 425 602 237 527 313 602 z "},"ė":{"ha":817,"x_min":0,"x_max":0,"o":"m 420 958 b 347 885 380 958 347 925 b 420 811 347 844 380 811 b 494 885 461 811 494 844 b 420 958 494 925 461 958 z m 421 714 b 86 347 219 715 86 551 b 421 -19 86 144 219 -19 b 683 75 506 -19 602 13 l 653 157 b 425 93 575 114 499 93 b 212 305 306 93 226 179 b 211 318 212 310 211 314 l 744 318 b 745 349 744 328 745 338 b 421 714 744 551 638 714 z m 425 602 b 620 416 543 602 604 528 l 216 416 b 425 602 237 527 313 602 z "},"ẹ":{"ha":817,"x_min":0,"x_max":0,"o":"m 421 714 b 86 347 219 715 86 551 b 421 -19 86 144 219 -19 b 683 75 506 -19 602 13 l 653 157 b 425 93 575 114 499 93 b 212 305 306 93 226 179 b 211 318 212 310 211 314 l 744 318 b 745 349 744 328 745 338 b 421 714 744 551 638 714 z m 425 602 b 620 416 543 602 604 528 l 216 416 b 425 602 237 527 313 602 z m 421 -101 b 348 -174 381 -101 348 -134 b 421 -248 348 -215 381 -248 b 495 -174 462 -248 495 -215 b 421 -101 495 -134 462 -101 z "},"è":{"ha":817,"x_min":0,"x_max":0,"o":"m 486 784 l 308 1024 l 162 1024 l 356 784 z m 421 714 b 86 347 219 715 86 551 b 421 -19 86 144 219 -19 b 683 75 506 -19 602 13 l 653 157 b 425 93 575 114 499 93 b 212 305 306 93 226 179 b 211 318 212 310 211 314 l 744 318 b 745 349 744 328 745 338 b 421 714 744 551 638 714 z m 425 602 b 620 416 543 602 604 528 l 216 416 b 425 602 237 527 313 602 z "},"ẻ":{"ha":817,"x_min":0,"x_max":0,"o":"m 457 1136 b 317 1108 410 1136 362 1128 l 359 1023 b 456 1040 387 1032 425 1040 b 517 1005 496 1041 516 1030 b 456 946 517 988 512 973 b 348 808 407 922 351 893 l 452 808 b 501 856 455 832 469 840 b 620 998 585 900 620 922 b 457 1136 620 1110 547 1136 z m 421 714 b 86 347 219 715 86 551 b 421 -19 86 144 219 -19 b 683 75 506 -19 602 13 l 653 157 b 425 93 575 114 499 93 b 212 305 306 93 226 179 b 211 318 212 310 211 314 l 744 318 b 745 349 744 328 745 338 b 421 714 744 551 638 714 z m 425 602 b 620 416 543 602 604 528 l 216 416 b 425 602 237 527 313 602 z "},"ē":{"ha":817,"x_min":0,"x_max":0,"o":"m 648 818 l 648 932 l 193 932 l 193 818 z m 421 714 b 86 347 219 715 86 551 b 421 -19 86 144 219 -19 b 683 75 506 -19 602 13 l 653 157 b 425 93 575 114 499 93 b 212 305 306 93 226 179 b 211 318 212 310 211 314 l 744 318 b 745 349 744 328 745 338 b 421 714 744 551 638 714 z m 425 602 b 620 416 543 602 604 528 l 216 416 b 425 602 237 527 313 602 z "},"ę":{"ha":817,"x_min":0,"x_max":0,"o":"m 745 349 b 421 714 744 551 638 714 b 86 347 219 715 86 551 b 421 -19 86 144 219 -19 b 447 -19 430 -19 438 -19 b 378 -153 406 -56 378 -101 b 550 -288 378 -241 461 -288 b 688 -250 597 -288 650 -275 l 660 -171 b 582 -188 635 -184 604 -188 b 494 -116 533 -188 495 -168 b 582 16 495 -58 539 -15 b 683 75 617 31 651 51 l 653 157 b 425 93 575 114 499 93 b 212 305 306 93 226 179 b 211 318 212 309 211 314 l 744 318 b 745 349 744 328 745 338 z m 216 416 b 425 602 237 527 313 602 b 620 416 543 602 604 528 z "},"ẽ":{"ha":817,"x_min":0,"x_max":0,"o":"m 322 1000 b 144 862 233 1000 180 913 l 221 803 b 317 889 259 861 289 889 b 387 856 339 889 363 874 b 521 801 422 831 461 801 b 697 939 603 802 642 859 l 620 997 b 523 911 581 937 551 911 b 456 944 503 911 482 925 b 322 1000 422 969 375 1000 z m 421 714 b 86 347 219 715 86 551 b 421 -19 86 144 219 -19 b 683 75 506 -19 602 13 l 653 157 b 425 93 575 114 499 93 b 212 305 306 93 226 179 b 211 318 212 310 211 314 l 744 318 b 745 349 744 328 745 338 b 421 714 744 551 638 714 z m 425 602 b 620 416 543 602 604 528 l 216 416 b 425 602 237 527 313 602 z "},"f":{"ha":588,"x_min":0,"x_max":0,"o":"m 419 885 b 578 851 469 886 523 874 l 608 933 b 409 992 543 972 472 992 b 186 734 286 992 186 912 l 186 692 l 178 692 l 49 671 l 49 594 l 186 594 l 186 0 l 305 0 l 305 594 l 515 594 l 515 692 l 305 692 l 305 741 b 419 885 305 833 347 885 z "},"g":{"ha":851,"x_min":0,"x_max":0,"o":"m 744 694 l 625 694 l 625 607 b 387 714 553 680 469 714 b 85 359 210 714 85 559 b 387 2 85 158 208 3 b 625 109 473 3 553 37 l 625 22 b 441 -192 625 -117 567 -192 b 157 -85 356 -192 249 -157 l 149 -182 b 449 -297 243 -260 349 -297 b 745 21 614 -297 745 -199 z m 396 108 b 209 356 277 108 209 206 b 395 602 209 506 279 602 b 625 495 471 602 561 562 l 625 215 b 396 108 557 145 468 108 z "},"ğ":{"ha":851,"x_min":0,"x_max":0,"o":"m 434 793 b 691 1019 590 793 691 894 l 575 1019 b 434 899 575 946 515 899 b 294 1019 354 899 294 946 l 178 1019 b 434 793 178 894 280 793 z m 744 694 l 625 694 l 625 607 b 387 714 553 680 469 714 b 85 359 210 714 85 559 b 387 2 85 158 208 3 b 625 109 473 3 553 37 l 625 22 b 441 -192 625 -117 567 -192 b 157 -85 356 -192 249 -157 l 149 -182 b 449 -297 243 -260 349 -297 b 745 21 614 -297 745 -199 z m 396 108 b 209 356 277 108 209 206 b 395 602 209 506 279 602 b 625 495 471 602 561 562 l 625 215 b 396 108 557 145 468 108 z "},"ģ":{"ha":851,"x_min":0,"x_max":0,"o":"m 422 769 b 485 831 457 768 485 796 b 439 892 485 863 464 886 b 504 1014 449 945 471 982 l 461 1042 b 357 831 396 992 346 897 b 422 769 363 792 390 768 z m 744 694 l 625 694 l 625 607 b 387 714 553 680 469 714 b 85 359 210 714 85 559 b 387 2 85 158 208 3 b 625 109 473 3 553 37 l 625 22 b 441 -192 625 -117 567 -192 b 158 -85 356 -192 249 -157 l 149 -182 b 449 -297 243 -260 349 -297 b 745 21 614 -297 745 -199 z m 396 108 b 209 356 277 108 209 206 b 395 602 209 506 279 602 b 625 495 472 602 561 562 l 625 215 b 396 108 557 145 468 108 z "},"ġ":{"ha":851,"x_min":0,"x_max":0,"o":"m 434 811 b 508 885 475 811 508 844 b 434 958 508 925 475 958 b 361 885 394 958 361 925 b 434 811 361 844 394 811 z m 744 694 l 625 694 l 625 607 b 387 714 553 680 469 714 b 85 359 210 714 85 559 b 387 2 85 158 208 3 b 625 109 473 3 553 37 l 625 22 b 441 -192 625 -117 567 -192 b 158 -85 356 -192 249 -157 l 149 -182 b 449 -297 243 -260 349 -297 b 745 21 614 -297 745 -199 z m 396 108 b 209 356 277 108 209 206 b 395 602 209 506 279 602 b 625 495 472 602 561 562 l 625 215 b 396 108 557 145 468 108 z "},"h":{"ha":821,"x_min":0,"x_max":0,"o":"m 483 714 b 233 607 399 714 307 677 l 233 972 l 114 972 l 114 0 l 233 0 l 233 506 b 456 603 302 568 386 603 b 602 453 538 603 602 557 l 602 0 l 721 0 l 721 453 b 483 714 721 630 611 714 z "},"ħ":{"ha":821,"x_min":0,"x_max":0,"o":"m 483 714 b 233 607 399 714 307 677 l 233 772 l 423 772 l 423 870 l 233 870 l 233 972 l 114 972 l 114 870 l -32 870 l -32 772 l 114 772 l 114 0 l 233 0 l 233 506 b 456 603 302 568 386 603 b 602 453 538 603 602 557 l 602 0 l 721 0 l 721 453 b 483 714 721 630 611 714 z "},"i":{"ha":354,"x_min":0,"x_max":0,"o":"m 181 958 b 107 885 140 958 107 925 b 181 811 107 844 140 811 b 254 885 221 811 254 844 b 181 958 254 925 221 958 z m 240 0 l 240 694 l 121 694 l 121 0 z "},"ı":{"ha":354,"x_min":0,"x_max":0,"o":"m 240 0 l 240 694 l 121 694 l 121 0 z "},"í":{"ha":354,"x_min":0,"x_max":0,"o":"m 239 783 l 432 1023 l 286 1023 l 109 783 z m 240 0 l 240 694 l 121 694 l 121 0 z "},"ǐ":{"ha":354,"x_min":0,"x_max":0,"o":"m 454 1024 l 309 1024 l 178 863 l 47 1024 l -98 1024 l 113 784 l 243 784 z m 121 694 l 121 0 l 240 0 l 240 694 z "},"î":{"ha":354,"x_min":0,"x_max":0,"o":"m 454 784 l 243 1024 l 113 1024 l -98 784 l 47 784 l 178 944 l 309 784 z m 121 694 l 121 0 l 240 0 l 240 694 z "},"ï":{"ha":354,"x_min":0,"x_max":0,"o":"m 30 958 b -43 885 -10 958 -43 925 b 30 811 -43 844 -10 811 b 103 885 71 811 103 844 b 30 958 103 925 71 958 z m 326 958 b 253 885 285 958 253 925 b 326 811 253 844 285 811 b 399 885 366 811 399 844 b 326 958 399 925 366 958 z m 240 0 l 240 694 l 121 694 l 121 0 z "},"ị":{"ha":354,"x_min":0,"x_max":0,"o":"m 181 958 b 107 885 140 958 107 925 b 181 811 107 844 140 811 b 254 885 221 811 254 844 b 181 958 254 925 221 958 z m 240 0 l 240 694 l 121 694 l 121 0 z m 181 -101 b 107 -174 140 -101 107 -134 b 181 -247 107 -215 140 -247 b 254 -174 221 -247 254 -215 b 181 -101 254 -134 221 -101 z "},"ì":{"ha":354,"x_min":0,"x_max":0,"o":"m 243 784 l 66 1024 l -80 1024 l 114 784 z m 240 0 l 240 694 l 121 694 l 121 0 z "},"ỉ":{"ha":354,"x_min":0,"x_max":0,"o":"m 239 1136 b 98 1108 192 1136 144 1128 l 141 1023 b 238 1040 169 1032 207 1040 b 298 1005 278 1041 298 1030 b 238 946 299 988 293 973 b 130 808 189 922 132 893 l 234 808 b 283 856 236 832 251 840 b 402 998 367 900 402 922 b 239 1136 402 1110 328 1136 z m 240 0 l 240 694 l 121 694 l 121 0 z "},"ĳ":{"ha":713,"x_min":0,"x_max":0,"o":"m 181 958 b 107 885 140 958 107 925 b 181 811 107 844 140 811 b 254 885 221 811 254 844 b 181 958 254 925 221 958 z m 539 958 b 466 885 499 958 466 925 b 539 811 466 844 499 811 b 612 885 580 811 612 844 b 539 958 612 925 580 958 z m 240 0 l 240 694 l 121 694 l 121 0 z m 598 694 l 480 694 l 480 -82 b 384 -190 480 -151 444 -190 b 322 -184 364 -190 343 -188 l 313 -281 b 412 -297 347 -292 380 -297 b 598 -82 515 -297 598 -231 z "},"ī":{"ha":354,"x_min":0,"x_max":0,"o":"m 406 818 l 406 932 l -50 932 l -50 818 z m 240 0 l 240 694 l 121 694 l 121 0 z "},"į":{"ha":354,"x_min":0,"x_max":0,"o":"m 178 811 b 251 885 219 811 251 844 b 178 958 251 925 219 958 b 105 885 138 958 105 925 b 178 811 105 844 138 811 z m 298 -200 b 221 -217 273 -213 243 -218 b 133 -145 171 -218 133 -197 b 240 0 133 -79 191 -32 l 240 694 l 121 694 l 121 0 l 147 0 b 16 -182 76 -44 17 -107 b 188 -317 17 -270 100 -317 b 327 -279 235 -317 289 -304 z "},"ĩ":{"ha":354,"x_min":0,"x_max":0,"o":"m 80 1000 b -98 862 -9 1000 -63 913 l -21 803 b 75 889 17 861 46 889 b 145 856 97 889 121 874 b 278 801 180 831 219 801 b 454 939 361 802 399 859 l 377 997 b 281 911 338 937 309 911 b 214 944 261 911 239 925 b 80 1000 179 969 132 1000 z m 240 0 l 240 694 l 121 694 l 121 0 z "},"j":{"ha":358,"x_min":0,"x_max":0,"o":"m 185 958 b 111 885 144 958 111 925 b 185 811 111 844 144 811 b 258 885 225 811 258 844 b 185 958 258 925 225 958 z m 244 694 l 125 694 l 125 -82 b 30 -190 125 -151 90 -190 b -33 -184 10 -190 -11 -188 l -42 -281 b 58 -297 -8 -292 26 -297 b 244 -82 160 -297 244 -231 z "},"k":{"ha":790,"x_min":0,"x_max":0,"o":"m 378 364 l 618 0 l 761 0 l 459 441 l 728 694 l 559 694 l 233 379 l 233 972 l 114 972 l 114 0 l 233 0 l 233 226 z "},"ķ":{"ha":790,"x_min":0,"x_max":0,"o":"m 761 0 l 459 441 l 728 694 l 559 694 l 233 379 l 233 972 l 114 972 l 114 0 l 233 0 l 233 226 l 378 364 l 618 0 z m 405 -86 b 341 -149 370 -86 341 -114 b 387 -210 341 -180 363 -203 b 323 -332 378 -263 355 -300 l 366 -359 b 470 -149 431 -309 481 -215 b 405 -86 463 -110 437 -86 z "},"l":{"ha":482,"x_min":0,"x_max":0,"o":"m 233 972 l 114 972 l 114 187 b 314 -19 114 38 210 -20 b 413 -2 347 -19 381 -13 l 378 91 b 339 88 365 89 352 88 b 233 187 283 87 233 111 z "},"ĺ":{"ha":482,"x_min":0,"x_max":0,"o":"m 286 1061 l 479 1300 l 333 1300 l 156 1061 z m 233 972 l 114 972 l 114 187 b 314 -19 114 38 210 -20 b 413 -2 347 -19 381 -13 l 378 91 b 339 88 365 89 352 88 b 233 187 283 87 233 111 z "},"ľ":{"ha":482,"x_min":0,"x_max":0,"o":"m 433 992 b 370 929 398 992 370 964 b 416 868 370 898 392 875 b 351 746 406 815 384 778 l 394 718 b 498 929 459 768 509 863 b 433 992 492 968 466 992 z m 233 972 l 114 972 l 114 187 b 314 -19 114 38 210 -20 b 413 -2 347 -19 381 -13 l 378 91 b 339 88 365 89 352 88 b 233 187 283 87 233 111 z "},"ļ":{"ha":482,"x_min":0,"x_max":0,"o":"m 233 972 l 114 972 l 114 187 b 314 -19 114 38 210 -20 b 413 -2 347 -19 381 -13 l 378 91 b 339 88 365 89 352 88 b 233 187 283 87 233 111 z m 249 -86 b 186 -149 214 -86 186 -114 b 231 -210 186 -180 207 -203 b 167 -332 222 -263 200 -300 l 210 -359 b 314 -149 275 -309 325 -215 b 249 -86 307 -110 281 -86 z "},"ŀ":{"ha":482,"x_min":0,"x_max":0,"o":"m 233 972 l 114 972 l 114 187 b 314 -19 114 38 210 -20 b 413 -2 347 -19 381 -13 l 378 91 b 339 88 365 89 352 88 b 233 187 283 87 233 111 z m 383 549 b 306 472 340 549 306 516 b 383 395 306 429 340 395 b 460 472 426 395 460 429 b 383 549 460 515 426 549 z "},"ł":{"ha":446,"x_min":0,"x_max":0,"o":"m 329 85 b 233 195 269 85 233 125 l 233 489 l 443 605 l 396 691 l 233 601 l 233 972 l 114 972 l 114 536 l -51 445 l -4 359 l 114 424 l 114 196 b 301 -19 114 47 198 -19 b 371 -8 323 -19 347 -16 l 379 90 b 329 85 362 87 345 85 z "},"m":{"ha":1261,"x_min":0,"x_max":0,"o":"m 930 714 b 663 598 839 714 741 672 b 465 714 623 677 548 714 b 226 608 384 714 298 678 l 226 694 l 107 694 l 107 0 l 226 0 l 226 510 b 437 603 292 570 371 603 b 575 453 515 603 575 556 l 575 0 l 694 0 l 694 453 b 688 521 694 477 692 500 b 900 603 757 574 835 603 b 1042 453 981 603 1042 557 l 1042 0 l 1161 0 l 1161 453 b 930 714 1161 633 1056 714 z "},"n":{"ha":814,"x_min":0,"x_max":0,"o":"m 476 714 b 226 607 397 714 302 680 l 226 694 l 107 694 l 107 0 l 226 0 l 226 506 b 453 603 298 570 386 603 b 595 453 533 603 595 555 l 595 0 l 714 0 l 714 453 b 476 714 714 630 603 714 z "},"ń":{"ha":814,"x_min":0,"x_max":0,"o":"m 485 783 l 678 1023 l 533 1023 l 355 783 z m 476 714 b 226 607 397 714 302 680 l 226 694 l 107 694 l 107 0 l 226 0 l 226 506 b 453 603 298 570 386 603 b 595 453 533 603 595 555 l 595 0 l 714 0 l 714 453 b 476 714 714 630 603 714 z "},"ň":{"ha":814,"x_min":0,"x_max":0,"o":"m 359 784 l 489 784 l 701 1024 l 555 1024 l 424 863 l 293 1024 l 148 1024 z m 476 714 b 226 607 397 714 302 680 l 226 694 l 107 694 l 107 0 l 226 0 l 226 506 b 453 603 298 570 386 603 b 595 453 533 603 595 555 l 595 0 l 714 0 l 714 453 b 476 714 714 630 603 714 z "},"ņ":{"ha":814,"x_min":0,"x_max":0,"o":"m 476 714 b 226 607 397 714 302 680 l 226 694 l 107 694 l 107 0 l 226 0 l 226 506 b 453 603 298 570 386 603 b 595 453 533 603 595 555 l 595 0 l 714 0 l 714 453 b 476 714 714 630 603 714 z m 432 -86 b 369 -149 397 -86 369 -114 b 414 -210 369 -180 390 -203 b 350 -332 405 -263 383 -300 l 393 -359 b 497 -149 458 -309 508 -215 b 432 -86 490 -110 464 -86 z "},"ŋ":{"ha":814,"x_min":0,"x_max":0,"o":"m 476 714 b 226 607 397 714 302 680 l 226 694 l 107 694 l 107 0 l 226 0 l 226 506 b 453 603 298 570 386 603 b 595 453 533 603 595 555 l 595 -82 b 499 -190 595 -151 559 -190 b 437 -184 479 -190 458 -188 l 428 -281 b 527 -297 462 -292 495 -297 b 714 -82 630 -297 714 -231 l 714 453 b 476 714 714 630 603 714 z "},"ñ":{"ha":814,"x_min":0,"x_max":0,"o":"m 321 889 b 391 856 343 889 367 874 b 525 801 426 831 465 801 b 701 939 607 802 646 859 l 623 997 b 527 911 585 937 555 911 b 460 944 507 911 486 925 b 326 1000 425 969 379 1000 b 148 862 237 1000 184 913 l 225 803 b 321 889 263 861 293 889 z m 476 714 b 226 607 397 714 302 680 l 226 694 l 107 694 l 107 0 l 226 0 l 226 506 b 453 603 298 570 386 603 b 595 453 533 603 595 555 l 595 0 l 714 0 l 714 453 b 476 714 714 630 603 714 z "},"o":{"ha":863,"x_min":0,"x_max":0,"o":"m 432 714 b 86 347 223 715 86 551 b 432 -19 86 144 223 -19 b 777 347 641 -19 777 144 b 432 714 777 550 641 714 z m 432 602 b 653 347 569 602 653 497 b 432 93 653 197 569 93 b 210 347 296 93 210 199 b 432 602 209 496 293 602 z "},"ó":{"ha":863,"x_min":0,"x_max":0,"o":"m 492 783 l 686 1023 l 540 1023 l 362 783 z m 432 714 b 86 347 223 715 86 551 b 432 -19 86 144 223 -19 b 777 347 641 -19 777 144 b 432 714 777 550 641 714 z m 432 602 b 653 347 569 602 653 497 b 432 93 653 197 569 93 b 210 347 296 93 210 199 b 432 602 209 496 293 602 z "},"ǒ":{"ha":863,"x_min":0,"x_max":0,"o":"m 367 784 l 496 784 l 708 1024 l 563 1024 l 432 863 l 301 1024 l 155 1024 z m 432 714 b 86 347 223 715 86 551 b 432 -19 86 144 223 -19 b 777 347 641 -19 777 144 b 432 714 777 550 641 714 z m 432 93 b 210 347 296 93 210 199 b 432 602 209 496 293 602 b 653 347 569 602 653 497 b 432 93 653 197 569 93 z "},"ô":{"ha":863,"x_min":0,"x_max":0,"o":"m 301 784 l 432 944 l 562 784 l 708 784 l 496 1024 l 367 1024 l 155 784 z m 432 714 b 86 347 223 715 86 551 b 432 -19 86 144 223 -19 b 777 347 641 -19 777 144 b 432 714 777 550 641 714 z m 432 93 b 210 347 296 93 210 199 b 432 602 209 496 293 602 b 653 347 569 602 653 497 b 432 93 653 197 569 93 z "},"ố":{"ha":863,"x_min":0,"x_max":0,"o":"m 1015 1108 l 869 1108 l 692 868 l 822 868 z m 301 784 l 432 944 l 562 784 l 708 784 l 496 1024 l 367 1024 l 155 784 z m 432 714 b 86 347 223 715 86 551 b 432 -19 86 144 223 -19 b 777 347 641 -19 777 144 b 432 714 777 550 641 714 z m 432 93 b 210 347 296 93 210 199 b 432 602 209 496 293 602 b 653 347 569 602 653 497 b 432 93 653 197 569 93 z "},"ộ":{"ha":863,"x_min":0,"x_max":0,"o":"m 301 784 l 432 944 l 562 784 l 708 784 l 496 1024 l 367 1024 l 155 784 z m 432 714 b 86 347 223 715 86 551 b 432 -19 86 144 223 -19 b 777 347 641 -19 777 144 b 432 714 777 550 641 714 z m 432 93 b 210 347 296 93 210 199 b 432 602 209 496 293 602 b 653 347 569 602 653 497 b 432 93 653 197 569 93 z m 432 -101 b 358 -174 391 -101 358 -134 b 432 -248 358 -215 391 -248 b 505 -174 472 -248 505 -215 b 432 -101 505 -134 472 -101 z "},"ồ":{"ha":863,"x_min":0,"x_max":0,"o":"m 748 868 l 878 868 l 701 1108 l 555 1108 z m 301 784 l 432 944 l 562 784 l 708 784 l 496 1024 l 367 1024 l 155 784 z m 432 714 b 86 347 223 715 86 551 b 432 -19 86 144 223 -19 b 777 347 641 -19 777 144 b 432 714 777 550 641 714 z m 432 93 b 210 347 296 93 210 199 b 432 602 209 496 293 602 b 653 347 569 602 653 497 b 432 93 653 197 569 93 z "},"ổ":{"ha":863,"x_min":0,"x_max":0,"o":"m 811 1160 b 670 1133 763 1160 715 1152 l 712 1047 b 810 1065 740 1056 779 1064 b 870 1029 849 1065 869 1054 b 809 970 870 1012 865 997 b 701 832 760 946 704 917 l 805 832 b 854 880 808 856 822 864 b 973 1022 939 924 973 946 b 811 1160 973 1134 900 1160 z m 301 784 l 432 944 l 562 784 l 708 784 l 496 1024 l 367 1024 l 155 784 z m 432 714 b 86 347 223 715 86 551 b 432 -19 86 144 223 -19 b 777 347 641 -19 777 144 b 432 714 777 550 641 714 z m 432 93 b 210 347 296 93 210 199 b 432 602 209 496 293 602 b 653 347 569 602 653 497 b 432 93 653 197 569 93 z "},"ỗ":{"ha":863,"x_min":0,"x_max":0,"o":"m 328 1138 b 398 1106 350 1139 374 1123 b 532 1050 433 1081 472 1050 b 708 1188 614 1052 653 1109 l 631 1246 b 535 1160 592 1186 562 1160 b 467 1193 514 1160 493 1174 b 333 1250 433 1218 386 1250 b 155 1111 244 1250 191 1162 l 232 1052 b 328 1138 270 1110 300 1139 z m 496 1024 l 367 1024 l 155 784 l 301 784 l 432 944 l 563 784 l 708 784 z m 432 714 b 86 347 223 715 86 551 b 432 -19 86 144 223 -19 b 777 347 641 -19 777 144 b 432 714 777 550 641 714 z m 432 93 b 210 347 296 93 210 199 b 432 602 209 496 293 602 b 653 347 569 602 653 497 b 432 93 653 197 569 93 z "},"ö":{"ha":863,"x_min":0,"x_max":0,"o":"m 284 958 b 211 885 243 958 211 925 b 284 811 211 844 243 811 b 357 885 324 811 357 844 b 284 958 357 925 324 958 z m 579 958 b 506 885 539 958 506 925 b 579 811 506 844 539 811 b 653 885 620 811 653 844 b 579 958 653 925 620 958 z m 432 714 b 86 347 223 715 86 551 b 432 -19 86 144 223 -19 b 777 347 641 -19 777 144 b 432 714 777 550 641 714 z m 432 602 b 653 347 569 602 653 497 b 432 93 653 197 569 93 b 210 347 296 93 210 199 b 432 602 209 496 293 602 z "},"ọ":{"ha":863,"x_min":0,"x_max":0,"o":"m 432 714 b 86 347 223 715 86 551 b 432 -19 86 144 223 -19 b 777 347 641 -19 777 144 b 432 714 777 550 641 714 z m 432 602 b 653 347 569 602 653 497 b 432 93 653 197 569 93 b 210 347 296 93 210 199 b 432 602 209 496 293 602 z m 432 -101 b 358 -174 391 -101 358 -134 b 432 -248 358 -215 391 -248 b 505 -174 472 -248 505 -215 b 432 -101 505 -134 472 -101 z "},"ò":{"ha":863,"x_min":0,"x_max":0,"o":"m 497 784 l 319 1024 l 174 1024 l 367 784 z m 432 714 b 86 347 223 715 86 551 b 432 -19 86 144 223 -19 b 777 347 641 -19 777 144 b 432 714 777 550 641 714 z m 432 602 b 653 347 569 602 653 497 b 432 93 653 197 569 93 b 210 347 296 93 210 199 b 432 602 209 496 293 602 z "},"ỏ":{"ha":863,"x_min":0,"x_max":0,"o":"m 467 1136 b 326 1108 419 1136 372 1128 l 368 1023 b 466 1040 396 1032 435 1040 b 526 1005 505 1041 526 1030 b 466 946 526 988 521 973 b 358 808 416 922 360 893 l 461 808 b 510 856 464 832 478 840 b 629 998 595 900 629 922 b 467 1136 629 1110 556 1136 z m 432 714 b 86 347 223 715 86 551 b 432 -19 86 144 223 -19 b 777 347 641 -19 777 144 b 432 714 777 550 641 714 z m 432 602 b 653 347 569 602 653 497 b 432 93 653 197 569 93 b 210 347 296 93 210 199 b 432 602 209 496 293 602 z "},"ơ":{"ha":863,"x_min":0,"x_max":0,"o":"m 717 786 b 702 664 735 728 728 685 b 631 653 685 651 661 647 b 432 714 577 691 509 714 b 86 347 223 715 86 551 b 432 -19 86 144 223 -19 b 777 347 641 -19 777 144 b 703 582 777 437 751 519 b 776 607 732 584 756 593 b 810 814 825 642 841 712 z m 432 93 b 210 347 296 93 210 199 b 432 602 209 496 293 602 b 653 347 569 602 653 497 b 432 93 653 197 569 93 z "},"ớ":{"ha":863,"x_min":0,"x_max":0,"o":"m 492 783 l 686 1023 l 540 1023 l 362 783 z m 717 786 b 702 664 735 728 728 685 b 631 653 685 651 661 647 b 432 714 577 691 509 714 b 86 347 223 715 86 551 b 432 -19 86 144 223 -19 b 777 347 641 -19 777 144 b 703 582 777 437 751 519 b 776 607 732 584 756 593 b 810 814 825 642 841 712 z m 432 93 b 210 347 296 93 210 199 b 432 602 209 496 293 602 b 653 347 569 602 653 497 b 432 93 653 197 569 93 z "},"ợ":{"ha":863,"x_min":0,"x_max":0,"o":"m 717 786 b 702 664 735 728 728 685 b 631 653 685 651 661 647 b 432 714 577 691 509 714 b 86 347 223 715 86 551 b 432 -19 86 144 223 -19 b 777 347 641 -19 777 144 b 703 582 777 437 751 519 b 776 607 732 584 756 593 b 810 814 825 642 841 712 z m 432 93 b 210 347 296 93 210 199 b 432 602 209 496 293 602 b 653 347 569 602 653 497 b 432 93 653 197 569 93 z m 432 -101 b 358 -174 391 -101 358 -134 b 432 -248 358 -215 391 -248 b 505 -174 472 -248 505 -215 b 432 -101 505 -134 472 -101 z "},"ờ":{"ha":863,"x_min":0,"x_max":0,"o":"m 367 784 l 497 784 l 319 1024 l 174 1024 z m 717 786 b 702 664 735 728 728 685 b 631 653 685 651 661 647 b 432 714 577 691 509 714 b 86 347 223 715 86 551 b 432 -19 86 144 223 -19 b 777 347 641 -19 777 144 b 703 582 777 437 751 519 b 776 607 732 584 756 593 b 810 814 825 642 841 712 z m 432 93 b 210 347 296 93 210 199 b 432 602 209 496 293 602 b 653 347 569 602 653 497 b 432 93 653 197 569 93 z "},"ở":{"ha":863,"x_min":0,"x_max":0,"o":"m 466 1040 b 526 1005 505 1041 526 1030 b 466 946 526 988 521 973 b 358 808 416 922 360 893 l 461 808 b 510 856 464 832 478 840 b 629 998 595 900 629 922 b 467 1136 629 1110 556 1136 b 326 1108 419 1136 372 1128 l 368 1023 b 466 1040 396 1032 435 1040 z m 717 786 b 702 664 735 728 728 685 b 631 653 685 651 661 647 b 432 714 577 691 509 714 b 86 347 223 715 86 551 b 432 -19 86 144 223 -19 b 777 347 641 -19 777 144 b 703 582 777 437 751 519 b 776 607 732 584 756 593 b 810 814 825 642 841 712 z m 432 93 b 210 347 296 93 210 199 b 432 602 209 496 293 602 b 653 347 569 602 653 497 b 432 93 653 197 569 93 z "},"ỡ":{"ha":863,"x_min":0,"x_max":0,"o":"m 328 889 b 398 856 350 889 374 874 b 532 801 433 831 472 801 b 708 939 614 802 653 859 l 631 997 b 535 911 592 937 562 911 b 467 944 514 911 493 925 b 333 1000 433 969 386 1000 b 155 862 244 1000 191 913 l 232 803 b 328 889 270 861 300 889 z m 717 786 b 702 664 735 728 728 685 b 631 653 685 651 661 647 b 432 714 577 691 509 714 b 86 347 223 715 86 551 b 432 -19 86 144 223 -19 b 777 347 641 -19 777 144 b 703 582 777 437 751 519 b 776 607 732 584 756 593 b 810 814 825 642 841 712 z m 432 93 b 210 347 296 93 210 199 b 432 602 209 496 293 602 b 653 347 569 602 653 497 b 432 93 653 197 569 93 z "},"ő":{"ha":863,"x_min":0,"x_max":0,"o":"m 360 784 l 554 1024 l 408 1024 l 230 784 z m 636 784 l 829 1024 l 684 1024 l 506 784 z m 432 714 b 86 347 223 715 86 551 b 432 -19 86 144 223 -19 b 777 347 641 -19 777 144 b 432 714 777 550 641 714 z m 432 602 b 653 347 569 602 653 497 b 432 93 653 197 569 93 b 210 347 296 93 210 199 b 432 602 209 496 293 602 z "},"ō":{"ha":863,"x_min":0,"x_max":0,"o":"m 659 818 l 659 932 l 204 932 l 204 818 z m 432 714 b 86 347 223 715 86 551 b 432 -19 86 144 223 -19 b 777 347 641 -19 777 144 b 432 714 777 550 641 714 z m 432 602 b 653 347 569 602 653 497 b 432 93 653 197 569 93 b 210 347 296 93 210 199 b 432 602 209 496 293 602 z "},"ø":{"ha":863,"x_min":0,"x_max":0,"o":"m 703 764 l 581 764 l 546 695 b 432 714 511 707 472 714 b 86 347 223 715 86 551 b 221 50 86 225 136 117 l 160 -69 l 283 -69 l 317 -1 b 432 -19 352 -13 390 -19 b 777 347 641 -19 777 144 b 641 642 777 468 726 576 z m 210 347 b 432 602 209 496 293 602 b 495 593 454 602 475 599 l 275 158 b 210 347 233 203 210 269 z m 432 93 b 369 101 409 93 388 96 l 588 537 b 653 347 630 492 653 426 b 432 93 653 197 569 93 z "},"õ":{"ha":863,"x_min":0,"x_max":0,"o":"m 333 1000 b 155 862 244 1000 191 913 l 232 803 b 328 889 270 861 300 889 b 398 856 350 889 374 874 b 532 801 433 831 472 801 b 708 939 614 802 653 859 l 631 997 b 535 911 592 937 562 911 b 467 944 514 911 493 925 b 333 1000 433 969 386 1000 z m 432 714 b 86 347 223 715 86 551 b 432 -19 86 144 223 -19 b 777 347 641 -19 777 144 b 432 714 777 550 641 714 z m 432 602 b 653 347 569 602 653 497 b 432 93 653 197 569 93 b 210 347 296 93 210 199 b 432 602 209 496 293 602 z "},"œ":{"ha":1386,"x_min":0,"x_max":0,"o":"m 432 714 b 86 347 223 715 86 551 b 432 -19 86 144 223 -19 b 715 132 558 -19 657 40 b 990 -19 772 40 869 -19 b 1252 75 1075 -19 1171 13 l 1221 157 b 994 93 1144 114 1068 93 b 782 299 877 93 798 176 b 780 318 781 305 780 312 l 1312 318 b 1313 348 1313 328 1313 338 b 990 714 1313 551 1207 714 b 715 563 868 715 772 655 b 432 714 657 654 558 714 z m 432 602 b 653 347 569 602 653 497 b 432 93 653 197 569 93 b 210 347 296 93 210 199 b 432 602 209 496 293 602 z m 994 602 b 1189 416 1112 602 1173 528 l 785 416 b 994 602 806 527 882 602 z "},"p":{"ha":838,"x_min":0,"x_max":0,"o":"m 454 714 b 214 604 368 714 284 677 l 214 694 l 96 694 l 96 -278 l 214 -278 l 214 82 b 450 -20 286 13 370 -20 b 754 347 610 -19 754 114 b 454 714 754 553 630 714 z m 444 89 b 214 209 371 88 288 133 l 214 492 b 444 602 286 567 376 602 b 631 347 562 602 631 498 b 444 89 631 174 548 91 z "},"þ":{"ha":838,"x_min":0,"x_max":0,"o":"m 448 714 b 214 604 371 714 283 677 l 214 972 l 96 972 l 96 -278 l 214 -278 l 214 90 b 448 -19 283 18 371 -19 b 754 347 631 -21 754 141 b 448 714 754 553 631 715 z m 448 93 b 214 203 371 93 284 130 l 214 492 b 448 602 284 564 371 602 b 630 347 560 602 632 498 b 448 93 632 197 561 93 z "},"q":{"ha":836,"x_min":0,"x_max":0,"o":"m 719 694 l 600 694 l 600 604 b 361 714 530 677 447 714 b 60 347 184 714 61 553 b 365 -20 61 114 205 -19 b 600 82 445 -20 529 13 l 600 -278 l 719 -278 z m 371 89 b 184 347 266 91 184 174 b 370 602 184 498 253 602 b 600 492 439 602 529 567 l 600 209 b 371 89 527 133 444 88 z "},"r":{"ha":547,"x_min":0,"x_max":0,"o":"m 499 715 b 226 596 410 715 308 675 l 226 694 l 107 694 l 107 0 l 226 0 l 226 491 b 475 594 303 560 394 594 b 497 594 483 594 490 594 l 518 714 b 499 715 512 715 506 715 z "},"ŕ":{"ha":547,"x_min":0,"x_max":0,"o":"m 334 783 l 527 1023 l 382 1023 l 204 783 z m 226 694 l 107 694 l 107 0 l 226 0 l 226 491 b 475 594 303 560 394 594 b 497 594 483 594 490 594 l 518 714 b 499 715 512 715 506 715 b 226 596 410 715 308 675 z "},"ř":{"ha":547,"x_min":0,"x_max":0,"o":"m 208 784 l 338 784 l 550 1024 l 404 1024 l 273 863 l 142 1024 l -3 1024 z m 226 694 l 107 694 l 107 0 l 226 0 l 226 491 b 475 594 303 560 394 594 b 497 594 483 594 490 594 l 518 714 b 499 715 512 715 506 715 b 226 596 410 715 308 675 z "},"ŗ":{"ha":547,"x_min":0,"x_max":0,"o":"m 499 715 b 226 596 410 715 308 675 l 226 694 l 107 694 l 107 0 l 226 0 l 226 491 b 475 594 303 560 394 594 b 497 594 483 594 490 594 l 518 714 b 499 715 512 715 506 715 z m 281 -86 b 218 -149 246 -86 218 -114 b 264 -210 218 -180 239 -203 b 199 -332 254 -263 232 -300 l 242 -359 b 346 -149 307 -309 357 -215 b 281 -86 339 -110 313 -86 z "},"s":{"ha":675,"x_min":0,"x_max":0,"o":"m 337 714 b 75 506 206 714 75 659 b 324 303 75 393 148 350 b 499 193 423 277 499 265 b 329 83 499 123 421 84 b 112 177 241 84 154 117 l 57 93 b 331 -19 111 21 220 -19 b 618 193 467 -19 619 41 b 357 409 616 347 466 380 b 192 512 228 442 192 460 b 340 610 192 578 252 610 b 540 538 418 610 497 585 l 595 622 b 337 714 532 688 428 714 z "},"ś":{"ha":675,"x_min":0,"x_max":0,"o":"m 396 783 l 589 1023 l 444 1023 l 266 783 z m 337 714 b 75 506 206 714 75 659 b 324 303 75 393 148 350 b 499 193 423 277 499 265 b 329 83 499 123 421 84 b 112 177 241 84 154 117 l 57 93 b 331 -19 111 21 220 -19 b 618 193 467 -19 619 41 b 357 409 616 347 466 380 b 192 512 228 442 192 460 b 340 610 192 578 252 610 b 540 538 418 610 497 585 l 595 622 b 337 714 532 688 428 714 z "},"š":{"ha":675,"x_min":0,"x_max":0,"o":"m 271 784 l 400 784 l 612 1024 l 466 1024 l 335 863 l 204 1024 l 59 1024 z m 618 193 b 357 409 616 347 466 380 b 192 512 228 442 192 460 b 340 610 192 578 252 610 b 540 538 418 610 497 585 l 595 622 b 337 714 532 688 428 714 b 75 506 206 714 75 659 b 324 303 75 393 148 350 b 499 193 423 277 499 265 b 329 83 499 123 421 84 b 112 177 241 84 154 117 l 57 93 b 331 -19 111 21 220 -19 b 618 193 467 -19 619 41 z "},"ş":{"ha":675,"x_min":0,"x_max":0,"o":"m 618 193 b 357 409 616 347 466 380 b 192 512 228 442 192 460 b 340 610 192 578 252 610 b 540 538 418 610 497 585 l 595 622 b 337 714 532 688 428 714 b 75 506 206 714 75 659 b 324 303 75 393 148 350 b 499 193 423 277 499 265 b 329 83 499 123 421 84 b 112 177 241 84 154 117 l 57 93 b 278 -16 102 32 186 -6 l 235 -106 l 259 -155 b 335 -141 278 -147 317 -141 b 396 -197 377 -141 396 -163 b 318 -255 396 -233 375 -255 b 176 -228 275 -255 219 -246 l 141 -305 b 330 -344 188 -329 270 -346 b 514 -196 442 -343 515 -279 b 375 -61 515 -121 458 -71 b 364 -61 371 -61 367 -61 l 377 -17 b 618 193 499 -5 619 58 z "},"ș":{"ha":675,"x_min":0,"x_max":0,"o":"m 337 714 b 75 506 206 714 75 659 b 324 303 75 393 148 350 b 499 193 423 277 499 265 b 329 83 499 123 421 84 b 112 177 241 84 154 117 l 57 93 b 331 -19 111 21 220 -19 b 618 193 467 -19 619 41 b 357 409 616 347 466 380 b 192 512 228 442 192 460 b 340 610 192 578 252 610 b 540 538 418 610 497 585 l 595 622 b 337 714 532 688 428 714 z m 336 -86 b 273 -149 301 -86 273 -114 b 319 -210 273 -180 294 -203 b 254 -332 309 -263 287 -300 l 297 -359 b 401 -149 362 -309 412 -215 b 336 -86 395 -110 368 -86 z "},"ß":{"ha":994,"x_min":0,"x_max":0,"o":"m 467 1042 b 139 775 274 1042 139 936 l 139 0 l 258 0 l 258 775 b 471 929 258 869 332 929 b 676 799 606 929 668 871 b 533 708 680 753 662 744 b 357 499 482 694 344 655 b 607 303 368 373 464 341 b 778 194 705 276 778 257 b 607 93 778 129 700 93 b 420 172 513 93 443 128 l 315 119 b 604 -19 364 28 486 -19 b 897 193 735 -19 897 39 b 636 411 897 349 732 386 b 476 508 503 446 479 463 b 564 600 472 571 508 585 b 794 800 725 646 810 675 b 467 1042 776 949 649 1042 z "},"t":{"ha":617,"x_min":0,"x_max":0,"o":"m 510 109 b 405 88 480 98 441 88 b 298 187 348 87 298 111 l 298 594 l 508 594 l 508 692 l 298 692 l 298 892 l 179 892 l 179 692 l 171 692 l 42 671 l 42 594 l 179 594 l 179 187 b 379 -19 179 38 275 -20 b 540 28 435 -19 493 -2 z "},"ŧ":{"ha":617,"x_min":0,"x_max":0,"o":"m 510 109 b 405 88 480 98 441 88 b 298 187 348 87 298 111 l 298 387 l 497 387 l 497 485 l 298 485 l 298 594 l 508 594 l 508 692 l 298 692 l 298 892 l 179 892 l 179 692 l 171 692 l 42 671 l 42 594 l 179 594 l 179 485 l 42 485 l 42 387 l 179 387 l 179 187 b 379 -19 179 38 275 -20 b 540 28 435 -19 493 -2 z "},"ť":{"ha":617,"x_min":0,"x_max":0,"o":"m 632 929 b 567 992 625 968 599 992 b 503 929 532 992 503 964 b 549 868 503 898 525 875 b 485 746 540 815 517 778 l 528 718 b 632 929 593 768 643 863 z m 405 88 b 298 187 348 87 298 111 l 298 594 l 508 594 l 508 692 l 298 692 l 298 892 l 179 892 l 179 692 l 171 692 l 42 671 l 42 594 l 179 594 l 179 187 b 379 -19 179 38 275 -20 b 540 28 435 -19 493 -2 l 510 109 b 405 88 480 98 441 88 z "},"ţ":{"ha":617,"x_min":0,"x_max":0,"o":"m 351 -61 b 339 -61 347 -61 343 -61 l 352 -18 b 379 -19 361 -19 370 -19 b 540 28 435 -19 493 -2 l 510 109 b 405 88 480 98 441 88 b 298 187 348 87 298 111 l 298 594 l 508 594 l 508 692 l 298 692 l 298 892 l 179 892 l 179 692 l 171 692 l 42 671 l 42 594 l 179 594 l 179 187 b 266 9 179 96 215 39 l 211 -106 l 235 -155 b 310 -141 254 -147 293 -141 b 372 -197 353 -141 372 -163 b 294 -255 372 -233 351 -255 b 152 -228 250 -255 195 -246 l 116 -305 b 306 -344 163 -329 246 -346 b 490 -196 418 -343 491 -279 b 351 -61 490 -121 434 -71 z "},"ț":{"ha":617,"x_min":0,"x_max":0,"o":"m 510 109 b 405 88 480 98 441 88 b 298 187 348 87 298 111 l 298 594 l 508 594 l 508 692 l 298 692 l 298 892 l 179 892 l 179 692 l 171 692 l 42 671 l 42 594 l 179 594 l 179 187 b 379 -19 179 38 275 -20 b 540 28 435 -19 493 -2 z m 312 -86 b 249 -149 277 -86 249 -114 b 294 -210 249 -180 270 -203 b 230 -332 285 -263 262 -300 l 273 -359 b 377 -149 338 -309 388 -215 b 312 -86 370 -110 344 -86 z "},"u":{"ha":807,"x_min":0,"x_max":0,"o":"m 707 694 l 588 694 l 588 188 b 352 91 516 124 429 91 b 219 242 268 91 219 145 l 219 694 l 100 694 l 100 242 b 340 -19 100 62 208 -19 b 588 88 421 -19 514 17 l 588 0 l 707 0 z "},"ú":{"ha":807,"x_min":0,"x_max":0,"o":"m 465 783 l 658 1023 l 512 1023 l 335 783 z m 707 694 l 588 694 l 588 188 b 352 91 516 124 429 91 b 219 242 268 91 219 145 l 219 694 l 100 694 l 100 242 b 340 -19 100 62 208 -19 b 588 88 421 -19 514 17 l 588 0 l 707 0 z "},"ǔ":{"ha":807,"x_min":0,"x_max":0,"o":"m 339 784 l 469 784 l 680 1024 l 535 1024 l 404 863 l 273 1024 l 128 1024 z m 707 694 l 588 694 l 588 188 b 352 91 516 124 428 91 b 219 242 268 91 219 145 l 219 694 l 100 694 l 100 242 b 340 -19 100 62 208 -19 b 588 88 421 -19 514 17 l 588 0 l 707 0 z "},"û":{"ha":807,"x_min":0,"x_max":0,"o":"m 273 784 l 404 944 l 535 784 l 680 784 l 469 1024 l 339 1024 l 128 784 z m 707 694 l 588 694 l 588 188 b 352 91 516 124 428 91 b 219 242 268 91 219 145 l 219 694 l 100 694 l 100 242 b 340 -19 100 62 208 -19 b 588 88 421 -19 514 17 l 588 0 l 707 0 z "},"ü":{"ha":807,"x_min":0,"x_max":0,"o":"m 256 811 b 329 885 297 811 329 844 b 256 958 329 925 297 958 b 183 885 216 958 183 925 b 256 811 183 844 216 811 z m 552 811 b 625 885 592 811 625 844 b 552 958 625 925 592 958 b 479 885 511 958 479 925 b 552 811 479 844 511 811 z m 707 694 l 588 694 l 588 188 b 352 91 516 124 429 91 b 219 242 268 91 219 145 l 219 694 l 100 694 l 100 242 b 340 -19 100 62 208 -19 b 588 88 421 -19 514 17 l 588 0 l 707 0 z "},"ǘ":{"ha":807,"x_min":0,"x_max":0,"o":"m 465 1024 l 658 1263 l 512 1263 l 335 1024 z m 256 811 b 329 885 297 811 329 844 b 256 958 329 925 297 958 b 183 885 216 958 183 925 b 256 811 183 844 216 811 z m 479 885 b 552 811 479 844 511 811 b 625 885 592 811 625 844 b 552 958 625 925 592 958 b 479 885 511 958 479 925 z m 707 694 l 588 694 l 588 188 b 352 91 516 124 429 91 b 219 242 268 91 219 145 l 219 694 l 100 694 l 100 242 b 340 -19 100 62 208 -19 b 588 88 421 -19 514 17 l 588 0 l 707 0 z "},"ǚ":{"ha":807,"x_min":0,"x_max":0,"o":"m 339 1024 l 469 1024 l 680 1263 l 535 1263 l 404 1103 l 273 1263 l 128 1263 z m 183 885 b 256 811 183 844 216 811 b 329 885 297 811 329 844 b 256 958 329 925 297 958 b 183 885 216 958 183 925 z m 479 885 b 552 811 479 844 511 811 b 625 885 592 811 625 844 b 552 958 625 925 592 958 b 479 885 511 958 479 925 z m 707 694 l 588 694 l 588 188 b 352 91 516 124 428 91 b 219 242 268 91 219 145 l 219 694 l 100 694 l 100 242 b 340 -19 100 62 208 -19 b 588 88 421 -19 514 17 l 588 0 l 707 0 z "},"ǜ":{"ha":807,"x_min":0,"x_max":0,"o":"m 340 1024 l 469 1024 l 292 1263 l 146 1263 z m 183 885 b 256 811 183 844 216 811 b 329 885 297 811 329 844 b 256 958 329 925 297 958 b 183 885 216 958 183 925 z m 552 811 b 625 885 592 811 625 844 b 552 958 625 925 592 958 b 479 885 511 958 479 925 b 552 811 479 844 511 811 z m 707 694 l 588 694 l 588 188 b 352 91 516 124 428 91 b 219 242 268 91 219 145 l 219 694 l 100 694 l 100 242 b 340 -19 100 62 208 -19 b 588 88 421 -19 514 17 l 588 0 l 707 0 z "},"ǖ":{"ha":807,"x_min":0,"x_max":0,"o":"m 632 1043 l 632 1157 l 176 1157 l 176 1043 z m 183 885 b 256 811 183 844 216 811 b 329 885 297 811 329 844 b 256 958 329 925 297 958 b 183 885 216 958 183 925 z m 479 885 b 552 811 479 844 511 811 b 625 885 592 811 625 844 b 552 958 625 925 592 958 b 479 885 511 958 479 925 z m 707 694 l 588 694 l 588 188 b 352 91 516 124 428 91 b 219 242 268 91 219 145 l 219 694 l 100 694 l 100 242 b 340 -19 100 62 208 -19 b 588 88 421 -19 514 17 l 588 0 l 707 0 z "},"ụ":{"ha":807,"x_min":0,"x_max":0,"o":"m 707 694 l 588 694 l 588 188 b 352 91 516 124 429 91 b 219 242 268 91 219 145 l 219 694 l 100 694 l 100 242 b 340 -19 100 62 208 -19 b 588 88 421 -19 514 17 l 588 0 l 707 0 z m 404 -101 b 331 -174 363 -101 331 -134 b 404 -247 331 -215 363 -247 b 477 -174 444 -247 477 -215 b 404 -101 477 -134 444 -101 z "},"ù":{"ha":807,"x_min":0,"x_max":0,"o":"m 340 784 l 469 784 l 292 1024 l 146 1024 z m 707 694 l 588 694 l 588 188 b 352 91 516 124 428 91 b 219 242 268 91 219 145 l 219 694 l 100 694 l 100 242 b 340 -19 100 62 208 -19 b 588 88 421 -19 514 17 l 588 0 l 707 0 z "},"ủ":{"ha":807,"x_min":0,"x_max":0,"o":"m 443 1040 b 504 1005 483 1041 503 1030 b 443 946 504 988 499 973 b 335 808 394 922 338 893 l 439 808 b 488 856 442 832 456 840 b 607 998 572 900 607 922 b 444 1136 607 1110 534 1136 b 304 1108 397 1136 349 1128 l 346 1023 b 443 1040 374 1032 412 1040 z m 707 694 l 588 694 l 588 188 b 352 92 516 124 428 92 b 219 242 268 92 219 145 l 219 694 l 100 694 l 100 242 b 340 -19 100 62 208 -19 b 588 88 421 -19 514 17 l 588 0 l 707 0 z "},"ư":{"ha":807,"x_min":0,"x_max":0,"o":"m 746 829 b 731 709 763 773 757 730 b 684 694 720 700 704 695 l 588 694 l 588 188 b 352 91 516 124 429 91 b 219 242 268 91 219 145 l 219 694 l 100 694 l 100 242 b 340 -19 100 62 208 -19 b 588 88 421 -19 514 17 l 588 0 l 707 0 l 707 627 b 805 652 746 624 780 633 b 839 858 853 687 870 757 z "},"ứ":{"ha":807,"x_min":0,"x_max":0,"o":"m 465 783 l 658 1023 l 512 1023 l 335 783 z m 746 829 b 731 709 763 773 757 730 b 684 694 720 700 704 695 l 588 694 l 588 188 b 352 91 516 124 429 91 b 219 242 268 91 219 145 l 219 694 l 100 694 l 100 242 b 340 -19 100 62 208 -19 b 588 88 421 -19 514 17 l 588 0 l 707 0 l 707 627 b 805 652 746 624 780 633 b 839 858 853 687 870 757 z "},"ự":{"ha":807,"x_min":0,"x_max":0,"o":"m 746 829 b 731 709 763 773 757 730 b 684 694 720 700 704 695 l 588 694 l 588 188 b 352 91 516 124 428 91 b 219 242 268 91 219 145 l 219 694 l 100 694 l 100 242 b 340 -19 100 62 208 -19 b 588 88 421 -19 514 17 l 588 0 l 707 0 l 707 627 b 805 652 746 624 780 633 b 839 858 853 687 870 757 z m 404 -101 b 331 -174 363 -101 331 -134 b 404 -248 331 -215 363 -248 b 477 -174 444 -248 477 -215 b 404 -101 477 -134 444 -101 z "},"ừ":{"ha":807,"x_min":0,"x_max":0,"o":"m 340 784 l 469 784 l 292 1024 l 146 1024 z m 746 829 b 731 709 763 773 757 730 b 684 694 720 700 704 695 l 588 694 l 588 188 b 352 91 516 124 428 91 b 219 242 268 91 219 145 l 219 694 l 100 694 l 100 242 b 340 -19 100 62 208 -19 b 588 88 421 -19 514 17 l 588 0 l 707 0 l 707 627 b 805 652 746 624 780 633 b 839 858 853 687 870 757 z "},"ử":{"ha":807,"x_min":0,"x_max":0,"o":"m 443 1040 b 504 1005 483 1041 503 1030 b 443 946 504 988 499 973 b 335 808 394 922 338 893 l 439 808 b 488 856 442 832 456 840 b 607 998 572 900 607 922 b 444 1136 607 1110 534 1136 b 304 1108 397 1136 349 1128 l 346 1023 b 443 1040 374 1032 412 1040 z m 746 829 b 731 709 763 773 757 730 b 684 694 720 700 704 695 l 588 694 l 588 188 b 352 92 516 124 428 92 b 219 242 268 92 219 145 l 219 694 l 100 694 l 100 242 b 340 -19 100 62 208 -19 b 588 88 421 -19 514 17 l 588 0 l 707 0 l 707 627 b 805 652 746 624 780 633 b 839 858 853 687 870 757 z "},"ữ":{"ha":807,"x_min":0,"x_max":0,"o":"m 301 889 b 371 856 323 889 347 874 b 504 801 405 831 444 801 b 680 939 586 802 625 859 l 603 997 b 507 911 564 937 535 911 b 440 944 487 911 465 925 b 306 1000 405 969 358 1000 b 128 862 217 1000 163 913 l 205 803 b 301 889 243 861 272 889 z m 746 829 b 731 709 763 773 757 730 b 684 694 720 700 704 695 l 588 694 l 588 188 b 352 91 516 124 429 91 b 219 242 268 91 219 145 l 219 694 l 100 694 l 100 242 b 340 -19 100 62 208 -19 b 588 88 421 -19 514 17 l 588 0 l 707 0 l 707 627 b 806 652 746 624 780 633 b 839 858 854 687 870 757 z "},"ű":{"ha":807,"x_min":0,"x_max":0,"o":"m 332 784 l 526 1024 l 380 1024 l 203 784 z m 478 784 l 608 784 l 802 1024 l 656 1024 z m 588 694 l 588 188 b 352 91 516 124 429 91 b 219 242 268 91 219 145 l 219 694 l 100 694 l 100 242 b 340 -19 100 62 208 -19 b 588 88 421 -19 514 17 l 588 0 l 707 0 l 707 694 z "},"ū":{"ha":807,"x_min":0,"x_max":0,"o":"m 632 818 l 632 932 l 176 932 l 176 818 z m 707 694 l 588 694 l 588 188 b 352 91 516 124 429 91 b 219 242 268 91 219 145 l 219 694 l 100 694 l 100 242 b 340 -19 100 62 208 -19 b 588 88 421 -19 514 17 l 588 0 l 707 0 z "},"ų":{"ha":807,"x_min":0,"x_max":0,"o":"m 763 -182 b 686 -199 738 -195 708 -200 b 598 -127 636 -200 598 -179 b 679 0 598 -72 638 -31 l 707 0 l 707 694 l 588 694 l 588 188 b 352 91 516 124 428 91 b 219 242 268 91 219 145 l 219 694 l 100 694 l 100 242 b 340 -19 100 62 208 -19 b 588 88 421 -19 514 17 l 588 1 b 481 -164 528 -41 482 -97 b 653 -299 482 -252 565 -299 b 792 -261 700 -299 754 -286 z "},"ů":{"ha":807,"x_min":0,"x_max":0,"o":"m 404 751 b 588 928 516 751 588 830 b 404 1105 588 1026 516 1105 b 220 928 293 1106 220 1027 b 404 751 220 830 293 751 z m 403 1021 b 490 928 454 1021 490 985 b 404 835 490 871 454 835 b 318 928 355 835 318 871 b 403 1021 318 986 355 1022 z m 707 694 l 588 694 l 588 188 b 352 91 516 124 428 91 b 219 242 268 91 219 145 l 219 694 l 100 694 l 100 242 b 340 -19 100 62 208 -19 b 588 88 421 -19 514 17 l 588 0 l 707 0 z "},"ũ":{"ha":807,"x_min":0,"x_max":0,"o":"m 301 889 b 371 856 323 889 347 874 b 504 801 405 831 444 801 b 680 939 586 802 625 859 l 603 997 b 507 911 564 937 535 911 b 440 944 487 911 465 925 b 306 1000 405 969 358 1000 b 128 862 217 1000 163 913 l 205 803 b 301 889 243 861 272 889 z m 707 694 l 588 694 l 588 188 b 352 91 516 124 429 91 b 219 242 268 91 219 145 l 219 694 l 100 694 l 100 242 b 340 -19 100 62 208 -19 b 588 88 421 -19 514 17 l 588 0 l 707 0 z "},"v":{"ha":742,"x_min":0,"x_max":0,"o":"m 712 694 l 584 694 l 371 138 l 157 694 l 29 694 l 308 0 l 433 0 z "},"w":{"ha":1135,"x_min":0,"x_max":0,"o":"m 866 0 l 1106 694 l 978 694 l 799 147 l 640 694 l 495 694 l 336 147 l 157 694 l 29 694 l 269 0 l 404 0 l 568 559 l 731 0 z "},"ẃ":{"ha":1135,"x_min":0,"x_max":0,"o":"m 628 783 l 822 1023 l 676 1023 l 499 783 z m 866 0 l 1106 694 l 978 694 l 799 147 l 640 694 l 495 694 l 336 147 l 157 694 l 29 694 l 269 0 l 404 0 l 568 559 l 731 0 z "},"ŵ":{"ha":1135,"x_min":0,"x_max":0,"o":"m 437 784 l 568 944 l 699 784 l 844 784 l 633 1024 l 503 1024 l 291 784 z m 1106 694 l 978 694 l 799 147 l 640 694 l 495 694 l 336 147 l 157 694 l 29 694 l 269 0 l 404 0 l 568 559 l 731 0 l 866 0 z "},"ẅ":{"ha":1135,"x_min":0,"x_max":0,"o":"m 420 958 b 347 885 380 958 347 925 b 420 811 347 844 380 811 b 493 885 460 811 493 844 b 420 958 493 925 460 958 z m 716 958 b 642 885 675 958 642 925 b 716 811 642 844 675 811 b 789 885 756 811 789 844 b 716 958 789 925 756 958 z m 866 0 l 1106 694 l 978 694 l 799 147 l 640 694 l 495 694 l 336 147 l 157 694 l 29 694 l 269 0 l 404 0 l 568 559 l 731 0 z "},"ẁ":{"ha":1135,"x_min":0,"x_max":0,"o":"m 633 784 l 456 1024 l 310 1024 l 503 784 z m 866 0 l 1106 694 l 978 694 l 799 147 l 640 694 l 495 694 l 336 147 l 157 694 l 29 694 l 269 0 l 404 0 l 568 559 l 731 0 z "},"x":{"ha":756,"x_min":0,"x_max":0,"o":"m 440 354 l 693 694 l 558 694 l 373 442 l 180 694 l 43 694 l 297 362 l 27 0 l 163 0 l 363 275 l 573 0 l 710 0 z "},"y":{"ha":764,"x_min":0,"x_max":0,"o":"m 735 694 l 609 694 l 388 149 l 160 694 l 29 694 l 329 3 l 216 -278 l 330 -278 z "},"ý":{"ha":764,"x_min":0,"x_max":0,"o":"m 443 783 l 636 1023 l 491 1023 l 313 783 z m 735 694 l 609 694 l 388 149 l 160 694 l 29 694 l 329 3 l 216 -278 l 330 -278 z "},"ŷ":{"ha":764,"x_min":0,"x_max":0,"o":"m 251 784 l 382 944 l 513 784 l 659 784 l 447 1024 l 317 1024 l 106 784 z m 735 694 l 609 694 l 388 149 l 160 694 l 29 694 l 329 3 l 216 -278 l 330 -278 z "},"ÿ":{"ha":764,"x_min":0,"x_max":0,"o":"m 234 811 b 308 885 275 811 308 844 b 234 958 308 925 275 958 b 161 885 194 958 161 925 b 234 811 161 844 194 811 z m 530 811 b 603 885 570 811 603 844 b 530 958 603 925 570 958 b 457 885 490 958 457 925 b 530 811 457 844 490 811 z m 735 694 l 609 694 l 388 149 l 160 694 l 29 694 l 329 3 l 216 -278 l 330 -278 z "},"ỵ":{"ha":764,"x_min":0,"x_max":0,"o":"m 735 694 l 609 694 l 388 149 l 160 694 l 29 694 l 329 3 l 216 -278 l 330 -278 z m 555 -101 b 482 -174 515 -101 482 -134 b 555 -247 482 -215 515 -247 b 628 -174 595 -247 628 -215 b 555 -101 628 -134 595 -101 z "},"ỳ":{"ha":764,"x_min":0,"x_max":0,"o":"m 318 784 l 447 784 l 270 1024 l 124 1024 z m 735 694 l 609 694 l 388 149 l 160 694 l 29 694 l 329 3 l 216 -278 l 330 -278 z "},"ỷ":{"ha":764,"x_min":0,"x_max":0,"o":"m 426 1040 b 486 1005 465 1041 485 1030 b 425 946 486 988 481 973 b 317 808 376 922 320 893 l 421 808 b 470 856 424 832 438 840 b 589 998 555 900 589 922 b 427 1136 589 1110 516 1136 b 286 1108 379 1136 331 1128 l 328 1023 b 426 1040 356 1032 395 1040 z m 735 694 l 609 694 l 388 149 l 160 694 l 29 694 l 329 3 l 216 -278 l 330 -278 z "},"ỹ":{"ha":764,"x_min":0,"x_max":0,"o":"m 279 889 b 349 856 301 889 325 874 b 483 801 384 831 423 801 b 659 939 565 802 604 859 l 581 997 b 485 911 542 937 513 911 b 418 944 465 911 444 925 b 284 1000 383 969 336 1000 b 106 862 195 1000 142 913 l 183 803 b 279 889 221 861 251 889 z m 735 694 l 609 694 l 388 149 l 160 694 l 29 694 l 329 3 l 216 -278 l 330 -278 z "},"z":{"ha":678,"x_min":0,"x_max":0,"o":"m 614 98 l 202 98 l 602 618 l 602 694 l 71 694 l 71 597 l 450 597 l 50 77 l 50 0 l 614 0 z "},"ź":{"ha":678,"x_min":0,"x_max":0,"o":"m 399 783 l 593 1023 l 447 1023 l 270 783 z m 614 98 l 202 98 l 602 618 l 602 694 l 71 694 l 71 597 l 450 597 l 50 77 l 50 0 l 614 0 z "},"ž":{"ha":678,"x_min":0,"x_max":0,"o":"m 274 784 l 404 784 l 615 1024 l 470 1024 l 339 863 l 208 1024 l 62 1024 z m 202 98 l 602 618 l 602 694 l 71 694 l 71 597 l 450 597 l 50 77 l 50 0 l 614 0 l 614 98 z "},"ż":{"ha":678,"x_min":0,"x_max":0,"o":"m 339 811 b 412 885 379 811 412 844 b 339 958 412 925 379 958 b 265 885 298 958 265 925 b 339 811 265 844 298 811 z m 614 98 l 202 98 l 602 618 l 602 694 l 71 694 l 71 597 l 450 597 l 50 77 l 50 0 l 614 0 z "},"ﬁ":{"ha":911,"x_min":0,"x_max":0,"o":"m 803 692 l 305 692 l 305 741 b 419 885 305 833 347 885 b 578 851 469 886 523 874 l 608 933 b 409 992 543 972 472 992 b 186 734 286 992 186 912 l 186 692 l 178 692 l 49 671 l 49 594 l 186 594 l 186 0 l 305 0 l 305 594 l 684 594 l 684 0 l 803 0 z "},"ﬂ":{"ha":1068,"x_min":0,"x_max":0,"o":"m 186 692 l 178 692 l 49 671 l 49 594 l 186 594 l 186 0 l 305 0 l 305 594 l 515 594 l 515 692 l 305 692 l 305 741 b 419 885 305 833 347 885 b 578 851 469 886 523 874 l 608 933 b 409 992 543 972 472 992 b 186 734 286 992 186 912 z m 966 91 b 926 88 953 89 939 88 b 820 187 870 87 820 111 l 820 972 l 701 972 l 701 187 b 901 -19 701 38 797 -20 b 1001 -2 934 -19 968 -13 z "},"ª":{"ha":690,"x_min":0,"x_max":0,"o":"m 591 1068 l 484 1068 l 484 1012 b 313 1083 433 1058 369 1083 b 69 798 167 1084 69 956 b 313 513 69 640 167 512 b 484 584 369 513 433 538 l 484 528 l 591 528 z m 314 605 b 181 798 233 605 180 682 b 314 991 180 914 233 991 b 484 911 369 991 431 965 l 484 685 b 314 605 431 631 369 605 z "},"º":{"ha":688,"x_min":0,"x_max":0,"o":"m 344 1083 b 69 798 178 1084 69 954 b 344 513 69 642 178 513 b 618 798 511 513 618 642 b 344 1083 618 953 511 1083 z m 344 991 b 507 798 444 991 507 914 b 344 605 507 682 444 605 b 181 798 245 605 181 683 b 344 991 180 913 243 991 z "},"Δ":{"ha":833,"x_min":0,"x_max":0,"o":""},"Ω":{"ha":833,"x_min":0,"x_max":0,"o":""},"μ":{"ha":833,"x_min":0,"x_max":0,"o":""},"π":{"ha":833,"x_min":0,"x_max":0,"o":""},"⁄":{"ha":797,"x_min":0,"x_max":0,"o":"m 754 992 l 645 992 l 22 -19 l 131 -19 z "},"½":{"ha":1364,"x_min":0,"x_max":0,"o":"m 1023 992 l 914 992 l 291 -19 l 400 -19 z m 207 468 l 65 468 l 65 391 l 426 391 l 426 468 l 299 468 l 299 972 l 247 972 l 47 882 l 80 812 l 207 868 z m 1298 76 l 939 76 l 939 99 b 1068 211 939 149 970 167 b 1298 429 1180 262 1298 295 b 1056 593 1298 556 1185 593 b 855 560 979 593 909 580 l 887 493 b 1043 515 932 507 988 515 b 1205 418 1135 515 1205 491 b 1037 287 1205 360 1160 341 b 844 110 919 234 844 203 l 844 0 l 1298 0 z "},"¼":{"ha":1321,"x_min":0,"x_max":0,"o":"m 1023 992 l 914 992 l 291 -19 l 400 -19 z m 299 468 l 299 972 l 247 972 l 47 882 l 80 812 l 207 868 l 207 468 l 65 468 l 65 391 l 426 391 l 426 468 z m 1174 215 l 1174 581 l 1063 581 l 756 197 l 756 138 l 1082 138 l 1082 0 l 1174 0 l 1174 138 l 1266 138 l 1266 215 z m 866 215 l 1082 494 l 1082 215 z "},"¾":{"ha":1365,"x_min":0,"x_max":0,"o":"m 1067 992 l 958 992 l 335 -19 l 444 -19 z m 523 556 b 392 700 523 625 472 678 b 497 826 457 722 497 767 b 268 984 497 921 403 984 b 80 953 202 984 135 974 l 114 880 b 265 906 158 897 211 906 b 403 815 349 906 403 869 b 279 732 403 765 354 732 l 185 732 l 185 712 l 185 654 l 289 654 b 428 562 373 654 428 617 b 274 457 428 499 366 457 b 91 489 209 457 145 468 l 54 416 b 268 379 117 392 192 379 b 523 556 417 379 523 449 z m 1311 215 l 1219 215 l 1219 581 l 1107 581 l 801 197 l 801 138 l 1126 138 l 1126 0 l 1219 0 l 1219 138 l 1311 138 z m 1126 494 l 1126 215 l 911 215 z "},"⅛":{"ha":1401,"x_min":0,"x_max":0,"o":"m 1023 992 l 914 992 l 291 -19 l 400 -19 z m 207 468 l 65 468 l 65 391 l 426 391 l 426 468 l 299 468 l 299 972 l 247 972 l 47 882 l 80 812 l 207 868 z m 1197 306 b 1308 435 1270 328 1308 372 b 1078 593 1308 530 1214 593 b 849 435 943 593 849 530 b 959 306 849 373 885 328 b 823 162 870 285 823 237 b 1078 -13 823 56 929 -13 b 1333 162 1227 -13 1333 56 b 1197 306 1334 235 1288 285 z m 1078 517 b 1213 425 1160 517 1213 480 b 1078 339 1213 374 1170 339 b 943 425 989 339 943 374 b 1078 517 943 480 997 517 z m 1078 65 b 918 174 982 65 918 108 b 1078 273 918 234 971 273 b 1238 174 1183 273 1238 235 b 1078 65 1238 108 1174 65 z "},"⅜":{"ha":1447,"x_min":0,"x_max":0,"o":"m 1067 992 l 958 992 l 335 -19 l 444 -19 z m 523 556 b 392 700 523 625 472 678 b 497 826 457 722 497 767 b 268 984 497 921 403 984 b 80 953 202 984 135 974 l 114 880 b 265 906 158 897 211 906 b 403 815 349 906 403 869 b 279 732 403 765 354 732 l 185 732 l 185 712 l 185 654 l 289 654 b 428 562 373 654 428 617 b 274 457 428 499 366 457 b 91 489 209 457 145 468 l 54 416 b 268 379 117 392 192 379 b 523 556 417 379 523 449 z m 1242 306 b 1352 435 1314 327 1352 372 b 1123 593 1353 530 1258 593 b 893 435 988 593 893 530 b 1003 306 893 373 929 328 b 868 162 914 285 868 237 b 1123 -13 868 56 974 -13 b 1377 162 1271 -13 1377 56 b 1242 306 1378 235 1332 285 z m 1123 517 b 1258 424 1204 517 1258 480 b 1123 339 1258 374 1214 339 b 988 425 1033 339 988 374 b 1123 517 988 480 1041 517 z m 1123 64 b 963 174 1027 64 963 108 b 1123 273 963 234 1016 273 b 1283 174 1228 273 1283 235 b 1123 64 1283 108 1218 64 z "},"⅝":{"ha":1438,"x_min":0,"x_max":0,"o":"m 1059 992 l 950 992 l 327 -19 l 436 -19 z m 519 576 b 290 750 520 681 425 750 b 181 735 252 750 214 745 l 181 896 l 473 896 l 473 972 l 88 972 l 89 692 l 133 650 b 278 679 177 668 227 679 b 424 573 364 679 424 642 b 266 457 424 503 360 457 b 100 486 207 457 149 467 l 62 413 b 261 379 124 390 198 379 b 519 576 415 379 519 456 z m 1233 306 b 1344 435 1306 328 1344 372 b 1114 593 1345 530 1250 593 b 885 435 980 593 885 530 b 995 306 885 373 921 328 b 859 162 906 285 859 237 b 1114 -13 859 56 966 -13 b 1369 162 1263 -13 1369 56 b 1233 306 1370 235 1324 285 z m 1114 517 b 1249 425 1196 517 1249 480 b 1114 339 1249 374 1206 339 b 979 425 1025 339 979 374 b 1114 517 979 480 1033 517 z m 1114 65 b 954 174 1019 65 954 108 b 1114 273 954 234 1008 273 b 1274 174 1219 273 1274 235 b 1114 65 1274 108 1210 65 z "},"⅞":{"ha":1257,"x_min":0,"x_max":0,"o":"m 877 992 l 768 992 l 145 -19 l 254 -19 z m 97 391 l 199 391 l 472 912 l 472 972 l 43 972 l 43 896 l 376 896 z m 1052 306 b 1162 435 1124 328 1162 372 b 933 593 1163 530 1068 593 b 703 435 798 593 703 530 b 813 306 703 373 739 328 b 678 162 724 285 678 237 b 933 -13 678 56 784 -13 b 1187 162 1081 -13 1187 56 b 1052 306 1188 235 1142 285 z m 933 517 b 1068 425 1014 517 1068 480 b 933 339 1068 374 1024 339 b 798 425 843 339 798 374 b 933 517 798 480 851 517 z m 933 64 b 773 174 837 64 773 108 b 933 273 773 234 826 273 b 1093 174 1038 273 1093 235 b 933 64 1093 108 1028 64 z "},"¹":{"ha":476,"x_min":0,"x_max":0,"o":"m 299 468 l 299 972 l 247 972 l 47 882 l 80 812 l 207 868 l 207 468 l 65 468 l 65 391 l 426 391 l 426 468 z "},"²":{"ha":576,"x_min":0,"x_max":0,"o":"m 509 468 l 151 468 l 151 491 b 279 603 151 536 178 558 b 509 819 398 655 509 690 b 268 984 509 948 398 984 b 66 951 192 984 118 971 l 98 884 b 254 906 147 899 200 906 b 417 809 349 906 416 882 b 249 678 416 755 381 736 b 56 502 133 627 55 595 l 56 391 l 509 391 z "},"³":{"ha":592,"x_min":0,"x_max":0,"o":"m 392 700 b 497 826 457 722 497 767 b 268 984 497 921 403 984 b 80 953 202 984 135 974 l 114 880 b 265 906 158 897 211 906 b 403 815 349 906 403 869 b 279 732 403 765 354 732 l 185 732 l 185 712 l 185 654 l 289 654 b 428 562 373 654 428 617 b 274 457 428 499 366 457 b 91 489 209 457 145 468 l 54 416 b 268 379 117 392 192 379 b 523 556 417 379 523 449 b 392 700 523 625 472 678 z "},"*":{"ha":597,"x_min":0,"x_max":0,"o":"m 353 806 l 364 992 l 233 992 l 244 806 l 70 873 l 30 749 l 211 702 l 92 558 l 198 481 l 298 638 l 399 481 l 505 558 l 386 702 l 567 749 l 527 873 z "},"\\":{"ha":711,"x_min":0,"x_max":0,"o":"m 689 -19 l 181 992 l 43 992 l 551 -19 z "},"·":{"ha":285,"x_min":0,"x_max":0,"o":"m 143 496 b 65 418 100 496 65 462 b 143 341 65 376 100 341 b 220 418 185 341 220 376 b 143 496 220 461 185 496 z "},"•":{"ha":481,"x_min":0,"x_max":0,"o":"m 240 559 b 73 393 148 559 74 487 b 240 226 74 301 148 226 b 407 393 332 226 407 301 b 240 559 407 485 332 559 z "},":":{"ha":285,"x_min":0,"x_max":0,"o":"m 143 696 b 65 619 100 696 65 662 b 143 541 65 576 100 541 b 220 619 185 541 220 576 b 143 696 220 661 185 696 z m 143 150 b 65 73 100 150 65 116 b 143 -5 65 30 100 -5 b 220 73 185 -5 220 30 b 143 150 220 115 185 150 z "},",":{"ha":313,"x_min":0,"x_max":0,"o":"m 160 150 b 82 73 117 150 82 116 b 138 -2 82 35 109 7 b 58 -152 127 -67 99 -113 l 110 -186 b 239 73 191 -125 253 -8 b 160 150 231 121 199 150 z "},"…":{"ha":926,"x_min":0,"x_max":0,"o":"m 143 150 b 65 73 100 150 65 116 b 143 -5 65 30 100 -5 b 220 73 185 -5 220 30 b 143 150 220 115 185 150 z m 463 150 b 386 73 420 150 386 116 b 463 -5 386 30 420 -5 b 540 73 506 -5 540 30 b 463 150 540 115 506 150 z m 784 150 b 706 73 741 150 706 116 b 784 -5 706 30 741 -5 b 861 73 826 -5 861 30 b 784 150 861 115 826 150 z "},"!":{"ha":364,"x_min":0,"x_max":0,"o":"m 232 243 l 249 972 l 114 972 l 131 243 z m 181 150 b 104 73 139 150 104 116 b 181 -5 104 30 139 -5 b 259 73 224 -5 259 30 b 181 150 259 115 224 150 z "},"¡":{"ha":364,"x_min":0,"x_max":0,"o":"m 182 719 b 105 641 139 719 105 684 b 182 564 105 598 139 564 b 259 641 225 564 259 599 b 182 719 259 684 225 719 z m 250 -258 l 232 471 l 132 471 l 114 -258 z "},"#":{"ha":957,"x_min":0,"x_max":0,"o":"m 724 581 l 892 581 l 912 692 l 743 692 l 793 972 l 666 972 l 616 692 l 411 692 l 461 972 l 334 972 l 284 692 l 121 692 l 102 581 l 265 581 l 228 375 l 65 375 l 46 264 l 209 264 l 162 0 l 289 0 l 336 264 l 541 264 l 494 0 l 621 0 l 668 264 l 836 264 l 856 375 l 687 375 z m 597 581 l 560 375 l 355 375 l 392 581 z "},".":{"ha":285,"x_min":0,"x_max":0,"o":"m 143 150 b 65 73 100 150 65 116 b 143 -5 65 30 100 -5 b 220 73 185 -5 220 30 b 143 150 220 115 185 150 z "},"?":{"ha":786,"x_min":0,"x_max":0,"o":"m 371 992 b 72 929 265 992 159 970 l 123 839 b 371 881 199 866 285 881 b 567 707 498 881 567 846 b 400 522 567 612 533 587 b 259 331 297 472 253 433 l 261 243 l 367 243 l 369 325 b 458 422 370 376 403 395 b 699 707 611 496 699 552 b 371 992 699 930 539 992 z m 316 150 b 238 73 273 150 238 116 b 316 -5 238 30 273 -5 b 393 73 358 -5 393 30 b 316 150 393 115 358 150 z "},"¿":{"ha":786,"x_min":0,"x_max":0,"o":"m 470 719 b 393 641 427 719 393 684 b 470 564 393 599 427 564 b 547 641 513 564 547 598 b 470 719 547 684 513 719 z m 524 471 l 418 471 l 416 389 b 328 292 415 338 383 319 b 87 6 175 218 87 161 b 414 -278 87 -216 246 -278 b 713 -216 520 -278 626 -256 l 663 -125 b 414 -167 587 -153 501 -167 b 219 6 287 -167 219 -132 b 386 192 219 102 252 127 b 527 383 488 242 532 281 z "},"\"":{"ha":549,"x_min":0,"x_max":0,"o":"m 194 677 l 215 1042 l 72 1042 l 93 677 z m 455 677 l 477 1042 l 334 1042 l 355 677 z "},"'":{"ha":286,"x_min":0,"x_max":0,"o":"m 194 677 l 215 1042 l 72 1042 l 93 677 z "},";":{"ha":313,"x_min":0,"x_max":0,"o":"m 159 696 b 82 619 117 695 82 663 b 159 541 82 577 117 541 b 236 619 202 541 236 577 b 159 696 236 662 202 695 z m 160 150 b 82 73 117 150 82 116 b 138 -2 82 35 109 7 b 58 -152 127 -67 99 -113 l 110 -186 b 239 73 191 -125 253 -8 b 159 150 231 121 199 150 z "},"/":{"ha":711,"x_min":0,"x_max":0,"o":"m 160 -19 l 668 992 l 530 992 l 22 -19 z "},"_":{"ha":815,"x_min":0,"x_max":0,"o":"m 745 -238 l 745 -140 l 71 -140 l 71 -238 z "},"{":{"ha":544,"x_min":0,"x_max":0,"o":"m 400 1102 b 214 886 297 1102 214 1036 l 214 557 b 122 454 214 492 181 454 l 97 454 l 97 353 l 122 353 b 214 250 181 353 214 315 l 214 -79 b 400 -295 214 -228 297 -295 b 502 -278 433 -295 467 -289 l 493 -181 b 428 -187 471 -185 449 -188 b 332 -79 368 -187 332 -148 l 332 250 b 272 403 332 323 309 374 b 332 557 309 433 332 484 l 332 887 b 428 995 332 955 368 995 b 493 988 449 995 471 993 l 502 1085 b 400 1102 467 1096 433 1102 z "},"}":{"ha":544,"x_min":0,"x_max":0,"o":"m 145 1102 b 42 1085 112 1102 77 1096 l 51 988 b 117 995 74 992 96 995 b 212 887 177 995 212 955 l 212 557 b 273 403 212 484 236 433 b 212 250 236 374 212 323 l 212 -79 b 117 -188 212 -148 177 -188 b 51 -181 96 -188 74 -185 l 42 -278 b 145 -295 77 -289 112 -295 b 331 -79 247 -295 331 -228 l 331 250 b 422 353 331 315 364 353 l 447 353 l 447 454 l 422 454 b 331 557 364 454 331 492 l 331 886 b 145 1102 331 1036 247 1102 z "},"[":{"ha":517,"x_min":0,"x_max":0,"o":"m 259 994 l 474 994 l 474 1092 l 141 1092 l 141 -275 l 474 -275 l 474 -177 l 259 -177 z "},"]":{"ha":517,"x_min":0,"x_max":0,"o":"m 376 1092 l 42 1092 l 42 994 l 257 994 l 257 -177 l 42 -177 l 42 -275 l 376 -275 z "},"(":{"ha":543,"x_min":0,"x_max":0,"o":"m 420 1081 b 113 372 227 936 113 674 b 423 -337 113 71 229 -192 l 472 -270 b 237 372 324 -119 237 113 b 470 1013 237 630 323 861 z "},")":{"ha":543,"x_min":0,"x_max":0,"o":"m 74 1013 b 306 372 220 861 306 630 b 71 -270 306 113 220 -119 l 120 -337 b 430 372 314 -192 430 71 b 123 1081 430 674 316 936 z "},"—":{"ha":1306,"x_min":0,"x_max":0,"o":"m 1233 355 l 1233 453 l 72 453 l 72 355 z "},"–":{"ha":865,"x_min":0,"x_max":0,"o":"m 793 355 l 793 453 l 72 453 l 72 355 z "},"-":{"ha":592,"x_min":0,"x_max":0,"o":"m 520 355 l 520 453 l 72 453 l 72 355 z "},"«":{"ha":897,"x_min":0,"x_max":0,"o":"m 469 653 l 397 730 l 43 433 l 43 357 l 397 60 l 469 138 l 175 395 z m 852 653 l 780 730 l 426 433 l 426 357 l 780 60 l 852 138 l 559 395 z "},"»":{"ha":897,"x_min":0,"x_max":0,"o":"m 470 433 l 117 730 l 45 653 l 338 395 l 45 138 l 117 60 l 470 357 z m 853 433 l 500 730 l 428 653 l 721 395 l 428 138 l 500 60 l 853 357 z "},"‹":{"ha":514,"x_min":0,"x_max":0,"o":"m 469 653 l 397 730 l 43 433 l 43 357 l 397 60 l 469 138 l 175 395 z "},"›":{"ha":514,"x_min":0,"x_max":0,"o":"m 470 433 l 117 730 l 45 653 l 338 395 l 45 138 l 117 60 l 470 357 z "},"„":{"ha":561,"x_min":0,"x_max":0,"o":"m 160 150 b 82 73 117 150 82 116 b 138 -2 82 34 109 7 b 58 -152 127 -67 99 -113 l 110 -186 b 239 73 191 -126 253 -8 b 160 150 231 121 199 150 z m 408 150 b 331 73 365 150 331 116 b 387 -2 331 34 357 7 b 307 -152 375 -67 347 -113 l 359 -186 b 488 73 439 -126 501 -8 b 408 150 480 121 448 150 z "},"“":{"ha":561,"x_min":0,"x_max":0,"o":"m 202 1046 b 74 787 122 986 60 868 b 153 711 82 739 114 710 b 231 788 196 710 231 745 b 175 862 231 826 204 854 b 255 1013 186 928 214 973 z m 451 1046 b 322 787 371 986 309 868 b 402 711 330 739 362 710 b 479 788 445 710 480 745 b 423 862 480 826 453 854 b 504 1013 435 928 463 973 z "},"”":{"ha":561,"x_min":0,"x_max":0,"o":"m 160 1046 b 82 969 117 1047 82 1012 b 138 895 82 931 109 903 b 58 744 127 829 99 784 l 110 711 b 239 970 191 771 253 889 b 160 1046 231 1018 199 1047 z m 408 1046 b 331 969 365 1047 331 1012 b 387 895 331 931 357 903 b 307 744 375 829 347 784 l 359 711 b 488 970 439 771 501 889 b 408 1046 480 1018 448 1047 z "},"‘":{"ha":313,"x_min":0,"x_max":0,"o":"m 202 1046 b 74 787 122 986 60 868 b 153 711 82 739 114 710 b 231 788 196 710 231 745 b 175 862 231 826 204 854 b 255 1013 186 928 214 973 z "},"’":{"ha":313,"x_min":0,"x_max":0,"o":"m 160 1046 b 82 969 117 1047 82 1012 b 138 895 82 931 109 903 b 58 744 127 829 99 784 l 110 711 b 239 970 191 771 253 889 b 160 1046 231 1018 199 1047 z "},"‚":{"ha":313,"x_min":0,"x_max":0,"o":"m 160 150 b 82 73 117 150 82 116 b 138 -2 82 34 109 7 b 58 -152 127 -67 99 -113 l 110 -186 b 239 73 191 -126 253 -8 b 160 150 231 121 199 150 z "}," ":{"ha":340,"x_min":0,"x_max":0,"o":""},"¢":{"ha":778,"x_min":0,"x_max":0,"o":"m 693 174 b 431 93 605 120 516 93 b 210 347 296 93 210 199 b 432 602 209 496 293 602 b 693 520 515 602 605 575 l 693 619 b 485 710 629 668 555 699 l 485 846 l 366 846 l 366 709 b 86 347 197 680 86 534 b 366 -14 86 166 195 17 l 366 -151 l 485 -151 l 485 -15 b 693 75 555 -5 629 26 z "},"¤":{"ha":833,"x_min":0,"x_max":0,"o":""},"$":{"ha":869,"x_min":0,"x_max":0,"o":"m 817 273 b 474 553 814 473 625 513 b 234 708 272 607 235 633 b 445 869 234 825 318 869 b 725 775 563 869 656 831 l 797 867 b 504 989 724 931 622 977 l 504 1134 l 386 1134 l 386 988 b 96 709 236 972 96 892 b 439 432 97 557 192 499 b 680 269 583 393 679 375 b 452 101 680 159 573 101 b 143 236 348 101 215 147 l 71 146 b 386 -15 139 62 261 1 l 386 -162 l 505 -162 l 505 -17 b 817 273 662 0 820 93 z "},"€":{"ha":1156,"x_min":0,"x_max":0,"o":"m 1021 216 b 684 105 914 144 792 105 b 374 325 537 105 424 192 l 765 325 l 765 422 l 351 422 b 347 486 348 443 347 464 b 348 530 347 501 347 516 l 765 530 l 765 628 l 367 628 b 683 866 413 773 529 867 b 1021 755 792 866 914 828 l 1058 855 b 684 992 942 945 806 992 b 226 628 448 993 278 840 l 90 628 l 90 530 l 211 530 b 209 486 210 516 209 501 b 213 422 209 465 210 443 l 90 422 l 90 325 l 232 325 b 684 -19 290 124 456 -19 b 1058 117 804 -19 942 27 z "},"ƒ":{"ha":590,"x_min":0,"x_max":0,"o":"m 419 885 b 578 851 469 886 523 874 l 609 933 b 409 992 543 972 473 992 b 186 734 286 992 186 912 l 186 579 l 178 579 l 49 558 l 49 482 l 186 482 l 186 -85 b 95 -188 186 -150 153 -188 b 57 -186 83 -188 70 -187 l 48 -286 b 123 -295 74 -292 99 -295 b 305 -85 224 -295 305 -229 l 305 482 l 515 482 l 515 579 l 305 579 l 305 741 b 419 885 305 833 347 885 z "},"£":{"ha":881,"x_min":0,"x_max":0,"o":"m 811 0 l 811 111 l 304 111 b 375 405 380 219 387 315 l 637 405 l 637 516 l 352 516 b 321 701 338 575 321 641 b 537 866 321 830 397 866 b 750 822 628 866 689 851 l 791 935 b 537 992 710 975 630 992 b 184 700 360 992 184 930 b 212 516 184 638 196 582 l 112 516 l 112 405 l 235 405 b 112 54 255 294 249 191 l 112 54 l 112 0 z "},"¥":{"ha":1000,"x_min":0,"x_max":0,"o":"m 709 578 l 956 972 l 800 972 l 499 475 l 200 972 l 43 972 l 290 578 l 176 578 l 176 467 l 359 467 l 429 355 l 429 339 l 176 339 l 176 228 l 429 228 l 429 0 l 561 0 l 561 228 l 823 228 l 823 339 l 561 339 l 561 343 l 639 467 l 823 467 l 823 578 z "},"≈":{"ha":797,"x_min":0,"x_max":0,"o":"m 269 651 b 58 486 167 652 111 561 l 133 429 b 263 534 176 491 218 534 b 364 488 301 534 339 507 b 529 417 406 457 461 417 b 739 583 625 417 680 497 l 664 639 b 533 535 619 573 577 535 b 434 580 499 535 465 558 b 269 651 389 614 335 652 z m 269 376 b 58 210 167 376 110 285 l 133 153 b 263 258 176 216 218 258 b 364 212 301 258 339 231 b 529 142 406 182 461 142 b 739 307 625 142 680 221 l 664 364 b 533 259 619 298 577 259 b 434 305 499 259 465 282 b 269 376 389 338 335 376 z "},"~":{"ha":797,"x_min":0,"x_max":0,"o":"m 269 484 b 58 318 167 484 111 393 l 133 261 b 263 366 176 323 218 366 b 364 320 301 366 339 339 b 529 250 406 290 461 250 b 739 415 625 250 680 329 l 664 472 b 533 367 619 406 577 367 b 434 413 499 367 465 390 b 269 484 389 446 335 484 z "},"÷":{"ha":824,"x_min":0,"x_max":0,"o":"m 412 707 b 329 624 366 707 329 670 b 412 543 329 578 366 543 b 494 624 457 543 494 578 b 412 707 494 670 457 707 z m 765 412 l 58 412 l 58 299 l 765 299 z m 412 169 b 329 85 366 169 329 131 b 412 4 329 40 366 4 b 494 85 457 4 494 40 b 412 169 494 131 457 169 z "},"∅":{"ha":833,"x_min":0,"x_max":0,"o":""},"=":{"ha":761,"x_min":0,"x_max":0,"o":"m 703 467 l 703 578 l 58 578 l 58 467 z m 703 228 l 703 339 l 58 339 l 58 228 z "},">":{"ha":738,"x_min":0,"x_max":0,"o":"m 681 466 l 45 748 l 45 609 l 526 399 l 45 189 l 45 50 l 681 331 z "},"≥":{"ha":813,"x_min":0,"x_max":0,"o":"m 756 605 l 45 835 l 45 695 l 605 518 l 45 340 l 45 200 l 756 431 z m 756 3 l 756 114 l 45 114 l 45 3 z "},"∞":{"ha":833,"x_min":0,"x_max":0,"o":""},"∫":{"ha":833,"x_min":0,"x_max":0,"o":""},"<":{"ha":738,"x_min":0,"x_max":0,"o":"m 694 609 l 694 748 l 58 466 l 58 331 l 694 50 l 694 189 l 212 399 z "},"≤":{"ha":813,"x_min":0,"x_max":0,"o":"m 769 695 l 769 835 l 58 605 l 58 431 l 769 200 l 769 340 l 209 518 z m 769 3 l 769 114 l 58 114 l 58 3 z "},"¬":{"ha":833,"x_min":0,"x_max":0,"o":""},"−":{"ha":761,"x_min":0,"x_max":0,"o":"m 703 349 l 703 460 l 58 460 l 58 349 z "},"×":{"ha":696,"x_min":0,"x_max":0,"o":"m 638 616 l 560 695 l 348 483 l 136 695 l 58 616 l 270 405 l 58 193 l 136 114 l 348 326 l 560 114 l 638 193 l 427 405 z "},"≠":{"ha":763,"x_min":0,"x_max":0,"o":"m 475 467 l 705 467 l 705 578 l 530 578 l 655 825 l 532 825 l 408 578 l 58 578 l 58 467 l 353 467 l 288 339 l 58 339 l 58 228 l 233 228 l 108 -19 l 231 -19 l 355 228 l 705 228 l 705 339 l 410 339 z "},"∂":{"ha":833,"x_min":0,"x_max":0,"o":""},"%":{"ha":1319,"x_min":0,"x_max":0,"o":"m 316 992 b 56 717 159 993 56 870 b 316 442 56 565 159 442 b 575 717 473 442 575 565 b 316 992 575 869 473 992 z m 442 -19 l 999 992 l 864 992 l 307 -19 z m 315 892 b 459 717 399 892 459 823 b 316 542 459 611 399 542 b 172 717 233 542 172 611 b 315 892 172 823 233 892 z m 1004 531 b 744 256 848 532 744 409 b 1004 -19 744 103 848 -19 b 1263 256 1161 -19 1263 103 b 1004 531 1263 408 1161 531 z m 1003 431 b 1147 256 1087 431 1147 361 b 1004 80 1147 150 1087 80 b 860 256 921 80 860 150 b 1003 431 860 362 921 431 z "},"‰":{"ha":1919,"x_min":0,"x_max":0,"o":"m 316 992 b 56 717 159 993 56 870 b 316 442 56 565 159 442 b 575 717 473 442 575 565 b 316 992 575 869 473 992 z m 442 -19 l 999 992 l 864 992 l 307 -19 z m 315 892 b 459 717 399 892 459 823 b 316 542 459 611 399 542 b 172 717 233 542 172 611 b 315 892 172 823 233 892 z m 1004 531 b 744 256 848 532 744 409 b 1004 -19 744 103 848 -19 b 1263 256 1161 -19 1263 103 b 1004 531 1263 408 1161 531 z m 1604 531 b 1345 256 1448 532 1345 409 b 1604 -19 1345 103 1448 -19 b 1864 256 1762 -19 1864 103 b 1604 531 1864 408 1762 531 z m 1003 431 b 1147 256 1087 431 1147 361 b 1004 80 1147 150 1087 80 b 860 256 921 80 860 150 b 1003 431 860 362 921 431 z m 1603 431 b 1748 256 1687 431 1748 361 b 1604 80 1748 150 1687 80 b 1461 256 1522 80 1461 150 b 1603 431 1461 362 1521 431 z "},"+":{"ha":763,"x_min":0,"x_max":0,"o":"m 705 349 l 705 460 l 437 460 l 437 728 l 326 728 l 326 460 l 58 460 l 58 349 l 326 349 l 326 81 l 437 81 l 437 349 z "},"±":{"ha":707,"x_min":0,"x_max":0,"o":"m 677 531 l 409 531 l 409 757 l 298 757 l 298 531 l 30 531 l 30 420 l 298 420 l 298 194 l 409 194 l 409 420 l 677 420 z m 30 114 l 30 3 l 677 3 l 677 114 z "},"∏":{"ha":833,"x_min":0,"x_max":0,"o":""},"√":{"ha":833,"x_min":0,"x_max":0,"o":""},"∑":{"ha":833,"x_min":0,"x_max":0,"o":""},"◊":{"ha":833,"x_min":0,"x_max":0,"o":""},"|":{"ha":403,"x_min":0,"x_max":0,"o":"m 261 -297 l 261 1042 l 142 1042 l 142 -297 z "},"¦":{"ha":403,"x_min":0,"x_max":0,"o":"m 261 458 l 261 1042 l 142 1042 l 142 458 z m 261 -297 l 261 287 l 142 287 l 142 -297 z "},"@":{"ha":1451,"x_min":0,"x_max":0,"o":"m 726 992 b 100 347 349 992 100 706 b 726 -297 100 -9 348 -297 b 955 -258 809 -297 886 -283 l 912 -153 b 726 -185 850 -175 797 -185 b 224 347 424 -185 224 45 b 726 879 224 652 424 879 b 1228 347 1029 879 1228 650 b 1098 118 1228 226 1180 139 b 958 136 1059 108 1012 113 l 959 640 l 839 640 l 839 575 b 672 640 788 618 730 640 b 419 349 520 641 419 509 b 672 59 419 190 520 58 b 839 124 730 59 788 80 l 839 74 l 839 74 b 1129 14 950 8 1048 -6 b 1352 347 1266 47 1352 184 b 726 992 1352 704 1106 992 z m 672 158 b 543 349 594 158 542 232 b 672 541 542 466 594 541 b 839 463 726 541 786 516 l 839 236 b 672 158 786 182 726 158 z "},"&":{"ha":997,"x_min":0,"x_max":0,"o":"m 911 25 l 793 152 b 823 282 813 190 823 234 l 823 431 l 686 431 l 686 282 b 686 268 686 277 686 272 l 480 489 l 482 490 b 719 737 624 552 718 596 b 450 992 718 886 613 992 b 172 728 284 992 171 886 b 227 568 171 665 190 609 l 260 532 l 246 525 b 87 277 148 479 87 399 b 449 -19 87 90 237 -19 b 704 51 551 -19 639 6 l 751 0 l 911 0 z m 447 866 b 582 734 541 866 585 810 b 428 605 581 677 551 658 l 388 589 l 342 638 b 309 729 319 663 308 693 b 447 866 308 818 359 866 z m 449 103 b 224 279 301 103 225 168 b 296 408 225 337 245 380 l 351 433 l 617 145 b 449 103 577 118 521 103 z "},"¶":{"ha":954,"x_min":0,"x_max":0,"o":"m 843 867 l 843 972 l 320 972 b 86 713 193 972 85 869 b 320 454 86 556 193 454 l 403 454 l 403 -297 l 522 -297 l 522 867 l 634 867 l 634 -297 l 753 -297 l 753 867 z "},"©":{"ha":1203,"x_min":0,"x_max":0,"o":"m 602 992 b 111 486 331 992 111 765 b 602 -19 111 207 331 -19 b 1092 486 873 -19 1092 207 b 602 992 1092 765 873 992 z m 602 902 b 992 486 814 902 992 723 b 602 70 992 250 814 70 b 211 486 389 70 211 250 b 602 902 211 723 389 902 z m 597 751 b 342 486 445 752 342 630 b 597 221 342 343 445 221 b 804 298 664 221 744 249 l 776 373 b 597 307 717 329 654 307 b 443 486 507 307 443 382 b 597 665 443 591 507 665 b 776 599 654 665 717 643 l 804 674 b 597 751 744 724 665 751 z "},"®":{"ha":1203,"x_min":0,"x_max":0,"o":"m 602 992 b 111 486 331 992 111 765 b 602 -19 111 207 331 -19 b 1092 486 873 -19 1092 207 b 602 992 1092 765 873 992 z m 602 902 b 992 486 814 902 992 723 b 602 70 992 250 814 70 b 211 486 389 70 211 250 b 602 902 211 723 389 902 z m 409 740 l 409 230 l 504 230 l 504 424 l 605 424 l 712 230 l 823 230 l 700 438 b 790 582 752 462 790 515 b 635 740 791 674 718 740 z m 504 661 l 635 661 b 692 582 665 661 692 634 b 635 503 692 530 664 503 l 504 503 z "},"§":{"ha":818,"x_min":0,"x_max":0,"o":"m 631 195 b 747 384 699 235 747 297 b 452 620 747 559 560 591 b 253 748 276 667 253 686 b 435 879 253 843 323 879 b 647 806 519 879 596 858 l 736 884 b 435 992 662 961 542 992 b 129 749 283 992 129 928 b 235 577 129 667 161 617 b 129 382 172 539 129 477 b 419 145 129 251 213 200 b 623 17 535 114 623 101 b 425 -111 623 -66 532 -111 b 173 -3 323 -111 221 -72 l 71 -67 b 425 -223 142 -169 291 -223 b 747 17 578 -223 747 -146 b 631 195 747 109 696 162 z m 253 382 b 416 513 253 471 315 509 b 419 512 417 512 418 512 b 623 384 535 481 623 467 b 442 256 623 306 542 261 b 253 382 276 301 253 321 z "},"™":{"ha":1135,"x_min":0,"x_max":0,"o":"m 465 880 l 465 972 l 43 972 l 43 880 l 202 880 l 202 448 l 306 448 l 306 880 z m 1064 448 l 1064 972 l 978 972 l 790 712 l 603 972 l 516 972 l 516 448 l 620 448 l 620 778 l 748 605 l 833 605 l 961 778 l 961 448 z "},"°":{"ha":574,"x_min":0,"x_max":0,"o":"m 287 1164 b 56 942 148 1165 56 1065 b 287 719 56 819 148 719 b 517 942 427 719 517 819 b 287 1164 517 1064 427 1164 z m 286 1078 b 413 942 360 1078 413 1025 b 287 805 413 858 360 805 b 161 942 215 805 161 858 b 286 1078 161 1026 214 1078 z "},"^":{"ha":615,"x_min":0,"x_max":0,"o":"m 438 565 l 559 565 l 370 992 l 245 992 l 56 566 l 177 566 l 307 874 z "},"†":{"ha":832,"x_min":0,"x_max":0,"o":"m 756 522 l 756 634 l 478 634 l 478 992 l 359 992 l 359 634 l 81 634 l 81 522 l 359 522 l 359 -297 l 478 -297 l 478 522 z "},"‡":{"ha":832,"x_min":0,"x_max":0,"o":"m 478 522 l 756 522 l 756 634 l 478 634 l 478 992 l 359 992 l 359 634 l 81 634 l 81 522 l 359 522 l 359 172 l 81 172 l 81 60 l 359 60 l 359 -297 l 478 -297 l 478 60 l 756 60 l 756 172 l 478 172 z "},"´":{"ha":436,"x_min":0,"x_max":0,"o":"m 186 785 l 380 1025 l 234 1025 l 56 785 z "},"˘":{"ha":626,"x_min":0,"x_max":0,"o":"m 453 1020 b 313 900 453 947 394 900 b 173 1020 233 900 173 947 l 56 1020 b 313 794 56 895 158 794 b 570 1020 469 794 570 895 z "},"ˇ":{"ha":665,"x_min":0,"x_max":0,"o":"m 609 1025 l 464 1025 l 333 864 l 202 1025 l 56 1025 l 268 785 l 398 785 z "},"¸":{"ha":471,"x_min":0,"x_max":0,"o":"m 296 20 l 204 20 l 143 -106 l 167 -155 b 243 -141 186 -147 225 -141 b 304 -197 285 -141 304 -163 b 226 -255 304 -233 283 -255 b 84 -228 183 -255 127 -246 l 49 -305 b 238 -344 96 -329 178 -346 b 422 -196 350 -343 423 -279 b 283 -61 423 -121 366 -71 b 272 -61 279 -61 275 -61 z "},"ˆ":{"ha":665,"x_min":0,"x_max":0,"o":"m 464 785 l 609 785 l 398 1025 l 268 1025 l 56 785 l 202 785 l 333 945 z "},"¨":{"ha":542,"x_min":0,"x_max":0,"o":"m 123 959 b 50 886 83 959 50 926 b 123 812 50 845 83 812 b 196 886 164 812 196 845 b 123 959 196 926 164 959 z m 419 959 b 345 886 378 959 345 926 b 419 812 345 845 378 812 b 492 886 459 812 492 845 b 419 959 492 926 459 959 z "},"˙":{"ha":246,"x_min":0,"x_max":0,"o":"m 123 959 b 50 886 83 959 50 926 b 123 812 50 845 83 812 b 196 886 164 812 196 845 b 123 959 196 926 164 959 z "},"`":{"ha":436,"x_min":0,"x_max":0,"o":"m 380 785 l 202 1025 l 56 1025 l 250 785 z "},"˝":{"ha":713,"x_min":0,"x_max":0,"o":"m 186 785 l 380 1025 l 234 1025 l 56 785 z m 462 785 l 656 1025 l 510 1025 l 332 785 z "},"¯":{"ha":568,"x_min":0,"x_max":0,"o":"m 512 819 l 512 933 l 56 933 l 56 819 z "},"˛":{"ha":424,"x_min":0,"x_max":0,"o":"m 190 8 b 56 -174 118 -36 57 -98 b 228 -310 57 -263 140 -309 b 367 -272 275 -309 329 -297 l 338 -193 b 261 -210 313 -206 283 -210 b 173 -138 211 -210 173 -190 b 281 8 173 -71 232 -24 z "},"˚":{"ha":493,"x_min":0,"x_max":0,"o":"m 247 1106 b 63 929 136 1107 63 1028 b 247 752 63 831 136 752 b 431 929 358 752 431 831 b 247 1106 431 1027 358 1106 z m 246 1022 b 333 929 296 1022 333 986 b 247 836 333 872 296 836 b 160 929 197 836 160 872 b 246 1022 160 987 198 1023 z "},"˜":{"ha":665,"x_min":0,"x_max":0,"o":"m 234 1001 b 56 863 145 1001 92 914 l 134 804 b 230 890 172 862 201 890 b 299 857 251 890 275 875 b 433 802 334 832 373 802 b 609 940 515 803 554 860 l 532 998 b 436 912 493 938 463 912 b 368 945 416 912 394 926 b 234 1001 334 970 287 1001 z "},"̭":{"ha":0,"x_min":0,"x_max":0,"o":"m 464 -310 l 609 -310 l 398 -71 l 268 -71 l 56 -310 l 202 -310 l 333 -150 z "},"̦":{"ha":0,"x_min":0,"x_max":0,"o":"m 121 -86 b 58 -149 86 -86 58 -114 b 104 -210 58 -180 80 -203 b 39 -332 94 -263 72 -300 l 82 -359 b 186 -149 147 -309 197 -215 b 121 -86 180 -110 154 -86 z "},"̣":{"ha":0,"x_min":0,"x_max":0,"o":"m 123 -101 b 50 -174 83 -101 50 -134 b 123 -247 50 -215 83 -247 b 196 -174 164 -247 196 -215 b 123 -101 196 -134 164 -101 z "},"̱":{"ha":0,"x_min":0,"x_max":0,"o":"m 512 -222 l 512 -109 l 56 -109 l 56 -222 z "}}}
